<svg width="35" height="37" viewBox="0 0 35 37" fill="none" xmlns="http://www.w3.org/2000/svg">
<path d="M19.2128 3.88608C20.2513 3.88198 21.2898 3.8927 22.3279 3.91823L22.604 3.92846C22.9228 3.94015 23.2373 3.95477 23.6172 3.97231C25.1314 4.04538 26.1646 4.29092 27.0711 4.65192C28.0103 5.02315 28.8015 5.52592 29.5927 6.33854C30.3162 7.06873 30.8761 7.952 31.2336 8.92692C31.5851 9.85792 31.8241 10.9205 31.8953 12.4755C31.9124 12.8643 31.9266 13.1888 31.938 13.5162L31.9465 13.7997C31.9718 14.8654 31.9827 15.9315 31.9792 16.9975L31.9807 18.0878V20.0025C31.9842 21.069 31.9733 22.1355 31.9479 23.2018L31.9394 23.4853C31.928 23.8127 31.9138 24.1357 31.8967 24.5259C31.8256 26.081 31.5836 27.1421 31.2336 28.0731C30.8773 29.049 30.3172 29.933 29.5927 30.6629C28.8812 31.4059 28.0207 31.9809 27.0711 32.3481C26.1646 32.7091 25.1314 32.9546 23.6172 33.0277C23.2373 33.0452 22.9228 33.0598 22.604 33.0715L22.3279 33.0803C21.2898 33.1063 20.2513 33.1175 19.2128 33.1139L18.1512 33.1154H16.2884C15.2499 33.119 14.2115 33.1078 13.1733 33.0818L12.8972 33.073C12.5594 33.0604 12.2216 33.0458 11.884 33.0292C10.3698 32.9561 9.33667 32.7076 8.42875 32.3481C7.4791 31.9817 6.61893 31.4066 5.90848 30.6629C5.1842 29.9326 4.62376 29.0487 4.26625 28.0731C3.91475 27.1421 3.67567 26.081 3.60452 24.5259C3.58867 24.1791 3.57444 23.8322 3.56182 23.4853L3.55471 23.2018C3.52847 22.1356 3.51661 21.069 3.51913 20.0025V16.9975C3.51516 15.9315 3.5256 14.8654 3.55044 13.7997L3.5604 13.5162C3.57179 13.1888 3.58602 12.8643 3.60309 12.4755C3.67425 10.919 3.91332 9.85938 4.26482 8.92692C4.62255 7.95152 5.18408 7.0685 5.9099 6.34C6.61987 5.59571 7.4795 5.01961 8.42875 4.65192C9.33667 4.29092 10.3684 4.04538 11.884 3.97231L12.8972 3.92846L13.1733 3.92115C14.211 3.89422 15.249 3.88204 16.287 3.88461L19.2128 3.88608ZM17.7499 11.1938C16.8071 11.1801 15.8711 11.359 14.9962 11.72C14.1213 12.0811 13.3251 12.6171 12.6536 13.297C11.9822 13.9769 11.4491 14.787 11.0852 15.6803C10.7213 16.5737 10.5339 17.5324 10.5339 18.5007C10.5339 19.4691 10.7213 20.4278 11.0852 21.3211C11.4491 22.2144 11.9822 23.0246 12.6536 23.7045C13.3251 24.3843 14.1213 24.9204 14.9962 25.2814C15.8711 25.6425 16.8071 25.8214 17.7499 25.8077C19.637 25.8077 21.4468 25.0378 22.7812 23.6673C24.1156 22.2969 24.8653 20.4381 24.8653 18.5C24.8653 16.5619 24.1156 14.7031 22.7812 13.3327C21.4468 11.9622 19.637 11.1938 17.7499 11.1938ZM17.7499 14.1168C18.317 14.1061 18.8805 14.2115 19.4075 14.427C19.9345 14.6424 20.4144 14.9636 20.8192 15.3716C21.2239 15.7797 21.5455 16.2665 21.765 16.8037C21.9846 17.3408 22.0977 17.9175 22.0978 18.5C22.0979 19.0825 21.9849 19.6592 21.7656 20.1964C21.5462 20.7336 21.2248 21.2206 20.8202 21.6288C20.4155 22.037 19.9357 22.3583 19.4088 22.5739C18.8819 22.7895 18.3184 22.8952 17.7513 22.8846C16.6191 22.8846 15.5332 22.4227 14.7325 21.6004C13.9319 20.7781 13.4821 19.6629 13.4821 18.5C13.4821 17.3371 13.9319 16.2219 14.7325 15.3996C15.5332 14.5773 16.6191 14.1154 17.7513 14.1154L17.7499 14.1168ZM25.2211 9.00146C24.762 9.02033 24.3278 9.22091 24.0095 9.56119C23.6911 9.90146 23.5133 10.355 23.5133 10.8269C23.5133 11.2988 23.6911 11.7524 24.0095 12.0927C24.3278 12.4329 24.762 12.6335 25.2211 12.6524C25.6928 12.6524 26.1453 12.4599 26.4789 12.1173C26.8125 11.7747 26.9999 11.31 26.9999 10.8255C26.9999 10.3409 26.8125 9.87625 26.4789 9.53363C26.1453 9.19102 25.6928 8.99854 25.2211 8.99854V9.00146Z" fill="white"/>
</svg>
