<svg width="25" height="29" viewBox="0 0 25 29" fill="none" xmlns="http://www.w3.org/2000/svg">
<path d="M19.8308 4.67546C18.7442 3.43486 18.1455 1.84163 18.1459 0.192383H13.2344V19.9052C13.1965 20.972 12.7462 21.9824 11.9784 22.7237C11.2105 23.465 10.1849 23.8794 9.11766 23.8796C6.8606 23.8796 4.98501 22.0355 4.98501 19.7462C4.98501 17.0119 7.62355 14.9611 10.3416 15.8037V10.7801C4.85785 10.0488 0.0576172 14.3093 0.0576172 19.7462C0.0576172 25.0401 4.44459 28.8078 9.10177 28.8078C14.0927 28.8078 18.1459 24.7539 18.1459 19.7462V9.74674C20.1375 11.1773 22.5287 11.9448 24.9807 11.9406V7.02828C24.9807 7.02828 21.9925 7.17136 19.8308 4.67546Z" fill="white"/>
</svg>
