<svg width="43" height="31" viewBox="0 0 43 31" fill="none" xmlns="http://www.w3.org/2000/svg">
<path d="M41.5658 5.37969C41.3267 4.48924 40.858 3.67721 40.2064 3.02486C39.5549 2.3725 38.7435 1.90271 37.8533 1.6625C34.5768 0.78125 21.4424 0.78125 21.4424 0.78125C21.4424 0.78125 8.30801 0.78125 5.03145 1.65781C4.14092 1.89725 3.32906 2.36678 2.67741 3.01925C2.02576 3.67172 1.55725 4.48417 1.31895 5.375C0.442383 8.65625 0.442383 15.5 0.442383 15.5C0.442383 15.5 0.442383 22.3438 1.31895 25.6203C1.80176 27.4297 3.22676 28.8547 5.03145 29.3375C8.30801 30.2188 21.4424 30.2188 21.4424 30.2188C21.4424 30.2188 34.5768 30.2188 37.8533 29.3375C39.6627 28.8547 41.083 27.4297 41.5658 25.6203C42.4424 22.3438 42.4424 15.5 42.4424 15.5C42.4424 15.5 42.4424 8.65625 41.5658 5.37969ZM17.2705 21.7812V9.21875L28.1455 15.4531L17.2705 21.7812Z" fill="white"/>
</svg>
