<svg width="684" height="70" viewBox="0 0 684 70" fill="none" xmlns="http://www.w3.org/2000/svg">
<g filter="url(#filter0_d_26_136)">
<rect x="12" width="693" height="62" fill="url(#paint0_linear_26_136)"/>
<g filter="url(#filter1_d_26_136)">
<mask id="path-2-outside-1_26_136" maskUnits="userSpaceOnUse" x="32" y="21" width="302" height="23" fill="black">
<rect fill="white" x="32" y="21" width="302" height="23"/>
<path d="M61.032 22.488V28.088H51.4V43H43.336V28.088H33.736V22.488H61.032ZM94.7413 28.984C95.0826 31.4587 95.0933 33.9547 94.7733 36.472C94.6453 37.4107 94.3679 38.2853 93.9412 39.096C93.5146 39.8853 92.9706 40.568 92.3093 41.144C91.6479 41.72 90.8906 42.1787 90.0373 42.52C89.1839 42.84 88.2879 43 87.3493 43H70.9973C70.0586 43 69.1626 42.84 68.3093 42.52C67.4773 42.1787 66.7306 41.72 66.0693 41.144C65.4079 40.568 64.8639 39.8853 64.4373 39.096C64.0106 38.2853 63.7333 37.4213 63.6053 36.504C63.2426 33.9867 63.2426 31.48 63.6053 28.984C63.7333 28.0453 64.0106 27.1813 64.4373 26.392C64.8639 25.6027 65.4079 24.92 66.0693 24.344C66.7306 23.768 67.4773 23.32 68.3093 23C69.1626 22.6587 70.0586 22.488 70.9973 22.488H87.3493C88.2879 22.488 89.1733 22.6587 90.0053 23C90.8586 23.32 91.6159 23.768 92.2773 24.344C92.9386 24.92 93.4826 25.6027 93.9093 26.392C94.3359 27.1813 94.6133 28.0453 94.7413 28.984ZM86.3893 35.16C86.7093 33.5387 86.7093 31.928 86.3893 30.328C86.2613 29.6667 85.9413 29.1333 85.4293 28.728C84.9173 28.3013 84.3199 28.088 83.6373 28.088H74.6773C74.0159 28.088 73.4293 28.3013 72.9173 28.728C72.4053 29.1333 72.0853 29.6667 71.9573 30.328C71.7866 31.1387 71.7013 31.9493 71.7013 32.76C71.7013 33.5493 71.7866 34.3493 71.9573 35.16C72.0853 35.8213 72.4053 36.3653 72.9173 36.792C73.4293 37.1973 74.0266 37.4 74.7093 37.4H83.6373C84.3199 37.4 84.9173 37.1973 85.4293 36.792C85.9413 36.3653 86.2613 35.8213 86.3893 35.16ZM127.474 28.984C127.559 29.7947 127.559 30.616 127.474 31.448C127.346 32.3653 127.068 33.2293 126.642 34.04C126.215 34.8293 125.671 35.512 125.01 36.088C124.348 36.664 123.591 37.1227 122.738 37.464C121.906 37.8053 121.02 37.976 120.082 37.976H106.898V43H98.8338V22.488H120.082C121.02 22.488 121.906 22.6587 122.738 23C123.591 23.32 124.348 23.768 125.01 24.344C125.671 24.92 126.215 25.6027 126.642 26.392C127.068 27.1813 127.346 28.0453 127.474 28.984ZM117.042 32.376C117.426 32.376 117.788 32.28 118.13 32.088C118.471 31.896 118.738 31.6293 118.93 31.288C119.122 30.968 119.218 30.616 119.218 30.232C119.218 29.848 119.122 29.4853 118.93 29.144C118.738 28.8027 118.471 28.536 118.13 28.344C117.788 28.152 117.426 28.0667 117.042 28.088H106.898V32.376H117.042ZM153.304 27.8V30.232H171.96V35.256H153.304V37.688H171.96V43H145.24V22.488H171.96V27.8H153.304ZM208.558 22.488L195.47 43H187.438L174.35 22.488H184.206L191.438 35.704L198.67 22.488H208.558ZM219.117 27.8V30.232H237.773V35.256H219.117V37.688H237.773V43H211.053V22.488H237.773V27.8H219.117ZM270.978 22.488V43H261.314L250.21 30.776V43H242.146V22.488H251.81L262.914 34.712V22.488H270.978ZM301.251 22.488V28.088H291.619V43H283.555V28.088H273.955V22.488H301.251ZM325.68 30.584C326.619 30.584 327.525 30.7013 328.4 30.936C329.275 31.1493 330.043 31.512 330.704 32.024C331.387 32.5147 331.92 33.1653 332.304 33.976C332.709 34.7867 332.912 35.7787 332.912 36.952C332.912 38.104 332.709 39.0747 332.304 39.864C331.92 40.632 331.387 41.2507 330.704 41.72C330.043 42.1893 329.275 42.52 328.4 42.712C327.547 42.904 326.651 43 325.712 43H311.088C310.149 43 309.253 42.84 308.4 42.52C307.568 42.1787 306.821 41.72 306.16 41.144C305.499 40.568 304.955 39.8853 304.528 39.096C304.101 38.2853 303.824 37.4107 303.696 36.472H311.92C312.155 36.9627 312.496 37.3467 312.944 37.624C313.392 37.9013 313.883 38.04 314.416 38.04H318.928C320.016 38.0613 321.2 38.072 322.48 38.072C322.629 38.072 322.821 38.0613 323.056 38.04C323.291 37.9973 323.525 37.9227 323.76 37.816C323.995 37.688 324.197 37.5173 324.368 37.304C324.539 37.0907 324.624 36.8133 324.624 36.472C324.624 36.1093 324.539 35.832 324.368 35.64C324.197 35.4267 323.995 35.2667 323.76 35.16C323.525 35.032 323.28 34.9573 323.024 34.936C322.789 34.8933 322.608 34.872 322.48 34.872H310.736C309.797 34.872 308.891 34.7653 308.016 34.552C307.141 34.3173 306.363 33.9547 305.68 33.464C305.019 32.952 304.485 32.3013 304.08 31.512C303.696 30.7013 303.504 29.7093 303.504 28.536C303.504 27.3627 303.696 26.392 304.08 25.624C304.485 24.8347 305.019 24.216 305.68 23.768C306.363 23.2987 307.131 22.968 307.984 22.776C308.859 22.584 309.765 22.488 310.704 22.488H325.232C326.171 22.488 327.056 22.6587 327.888 23C328.741 23.32 329.499 23.768 330.16 24.344C330.821 24.92 331.365 25.6027 331.792 26.392C332.219 27.1813 332.496 28.0453 332.624 28.984L324.4 29.016C324.165 28.5253 323.824 28.1413 323.376 27.864C322.928 27.5653 322.437 27.416 321.904 27.416H313.936C313.787 27.416 313.584 27.4373 313.328 27.48C313.093 27.5013 312.859 27.576 312.624 27.704C312.411 27.8107 312.219 27.9707 312.048 28.184C311.877 28.376 311.792 28.6533 311.792 29.016C311.792 29.3573 311.877 29.6347 312.048 29.848C312.219 30.0613 312.421 30.2213 312.656 30.328C312.891 30.4347 313.125 30.5093 313.36 30.552C313.616 30.5733 313.808 30.584 313.936 30.584H325.68Z"/>
</mask>
<path d="M61.032 22.488V28.088H51.4V43H43.336V28.088H33.736V22.488H61.032ZM94.7413 28.984C95.0826 31.4587 95.0933 33.9547 94.7733 36.472C94.6453 37.4107 94.3679 38.2853 93.9412 39.096C93.5146 39.8853 92.9706 40.568 92.3093 41.144C91.6479 41.72 90.8906 42.1787 90.0373 42.52C89.1839 42.84 88.2879 43 87.3493 43H70.9973C70.0586 43 69.1626 42.84 68.3093 42.52C67.4773 42.1787 66.7306 41.72 66.0693 41.144C65.4079 40.568 64.8639 39.8853 64.4373 39.096C64.0106 38.2853 63.7333 37.4213 63.6053 36.504C63.2426 33.9867 63.2426 31.48 63.6053 28.984C63.7333 28.0453 64.0106 27.1813 64.4373 26.392C64.8639 25.6027 65.4079 24.92 66.0693 24.344C66.7306 23.768 67.4773 23.32 68.3093 23C69.1626 22.6587 70.0586 22.488 70.9973 22.488H87.3493C88.2879 22.488 89.1733 22.6587 90.0053 23C90.8586 23.32 91.6159 23.768 92.2773 24.344C92.9386 24.92 93.4826 25.6027 93.9093 26.392C94.3359 27.1813 94.6133 28.0453 94.7413 28.984ZM86.3893 35.16C86.7093 33.5387 86.7093 31.928 86.3893 30.328C86.2613 29.6667 85.9413 29.1333 85.4293 28.728C84.9173 28.3013 84.3199 28.088 83.6373 28.088H74.6773C74.0159 28.088 73.4293 28.3013 72.9173 28.728C72.4053 29.1333 72.0853 29.6667 71.9573 30.328C71.7866 31.1387 71.7013 31.9493 71.7013 32.76C71.7013 33.5493 71.7866 34.3493 71.9573 35.16C72.0853 35.8213 72.4053 36.3653 72.9173 36.792C73.4293 37.1973 74.0266 37.4 74.7093 37.4H83.6373C84.3199 37.4 84.9173 37.1973 85.4293 36.792C85.9413 36.3653 86.2613 35.8213 86.3893 35.16ZM127.474 28.984C127.559 29.7947 127.559 30.616 127.474 31.448C127.346 32.3653 127.068 33.2293 126.642 34.04C126.215 34.8293 125.671 35.512 125.01 36.088C124.348 36.664 123.591 37.1227 122.738 37.464C121.906 37.8053 121.02 37.976 120.082 37.976H106.898V43H98.8338V22.488H120.082C121.02 22.488 121.906 22.6587 122.738 23C123.591 23.32 124.348 23.768 125.01 24.344C125.671 24.92 126.215 25.6027 126.642 26.392C127.068 27.1813 127.346 28.0453 127.474 28.984ZM117.042 32.376C117.426 32.376 117.788 32.28 118.13 32.088C118.471 31.896 118.738 31.6293 118.93 31.288C119.122 30.968 119.218 30.616 119.218 30.232C119.218 29.848 119.122 29.4853 118.93 29.144C118.738 28.8027 118.471 28.536 118.13 28.344C117.788 28.152 117.426 28.0667 117.042 28.088H106.898V32.376H117.042ZM153.304 27.8V30.232H171.96V35.256H153.304V37.688H171.96V43H145.24V22.488H171.96V27.8H153.304ZM208.558 22.488L195.47 43H187.438L174.35 22.488H184.206L191.438 35.704L198.67 22.488H208.558ZM219.117 27.8V30.232H237.773V35.256H219.117V37.688H237.773V43H211.053V22.488H237.773V27.8H219.117ZM270.978 22.488V43H261.314L250.21 30.776V43H242.146V22.488H251.81L262.914 34.712V22.488H270.978ZM301.251 22.488V28.088H291.619V43H283.555V28.088H273.955V22.488H301.251ZM325.68 30.584C326.619 30.584 327.525 30.7013 328.4 30.936C329.275 31.1493 330.043 31.512 330.704 32.024C331.387 32.5147 331.92 33.1653 332.304 33.976C332.709 34.7867 332.912 35.7787 332.912 36.952C332.912 38.104 332.709 39.0747 332.304 39.864C331.92 40.632 331.387 41.2507 330.704 41.72C330.043 42.1893 329.275 42.52 328.4 42.712C327.547 42.904 326.651 43 325.712 43H311.088C310.149 43 309.253 42.84 308.4 42.52C307.568 42.1787 306.821 41.72 306.16 41.144C305.499 40.568 304.955 39.8853 304.528 39.096C304.101 38.2853 303.824 37.4107 303.696 36.472H311.92C312.155 36.9627 312.496 37.3467 312.944 37.624C313.392 37.9013 313.883 38.04 314.416 38.04H318.928C320.016 38.0613 321.2 38.072 322.48 38.072C322.629 38.072 322.821 38.0613 323.056 38.04C323.291 37.9973 323.525 37.9227 323.76 37.816C323.995 37.688 324.197 37.5173 324.368 37.304C324.539 37.0907 324.624 36.8133 324.624 36.472C324.624 36.1093 324.539 35.832 324.368 35.64C324.197 35.4267 323.995 35.2667 323.76 35.16C323.525 35.032 323.28 34.9573 323.024 34.936C322.789 34.8933 322.608 34.872 322.48 34.872H310.736C309.797 34.872 308.891 34.7653 308.016 34.552C307.141 34.3173 306.363 33.9547 305.68 33.464C305.019 32.952 304.485 32.3013 304.08 31.512C303.696 30.7013 303.504 29.7093 303.504 28.536C303.504 27.3627 303.696 26.392 304.08 25.624C304.485 24.8347 305.019 24.216 305.68 23.768C306.363 23.2987 307.131 22.968 307.984 22.776C308.859 22.584 309.765 22.488 310.704 22.488H325.232C326.171 22.488 327.056 22.6587 327.888 23C328.741 23.32 329.499 23.768 330.16 24.344C330.821 24.92 331.365 25.6027 331.792 26.392C332.219 27.1813 332.496 28.0453 332.624 28.984L324.4 29.016C324.165 28.5253 323.824 28.1413 323.376 27.864C322.928 27.5653 322.437 27.416 321.904 27.416H313.936C313.787 27.416 313.584 27.4373 313.328 27.48C313.093 27.5013 312.859 27.576 312.624 27.704C312.411 27.8107 312.219 27.9707 312.048 28.184C311.877 28.376 311.792 28.6533 311.792 29.016C311.792 29.3573 311.877 29.6347 312.048 29.848C312.219 30.0613 312.421 30.2213 312.656 30.328C312.891 30.4347 313.125 30.5093 313.36 30.552C313.616 30.5733 313.808 30.584 313.936 30.584H325.68Z" fill="white"/>
<path d="M61.032 22.488H62.032V21.488H61.032V22.488ZM61.032 28.088V29.088H62.032V28.088H61.032ZM51.4 28.088V27.088H50.4V28.088H51.4ZM51.4 43V44H52.4V43H51.4ZM43.336 43H42.336V44H43.336V43ZM43.336 28.088H44.336V27.088H43.336V28.088ZM33.736 28.088H32.736V29.088H33.736V28.088ZM33.736 22.488V21.488H32.736V22.488H33.736ZM60.032 22.488V28.088H62.032V22.488H60.032ZM61.032 27.088H51.4V29.088H61.032V27.088ZM50.4 28.088V43H52.4V28.088H50.4ZM51.4 42H43.336V44H51.4V42ZM44.336 43V28.088H42.336V43H44.336ZM43.336 27.088H33.736V29.088H43.336V27.088ZM34.736 28.088V22.488H32.736V28.088H34.736ZM33.736 23.488H61.032V21.488H33.736V23.488ZM94.7413 28.984L93.7504 29.1191L93.7506 29.1206L94.7413 28.984ZM94.7733 36.472L95.7641 36.6071L95.7653 36.5981L94.7733 36.472ZM93.9412 39.096L94.821 39.5715L94.8262 39.5617L93.9412 39.096ZM92.3092 41.144L91.6525 40.3899L92.3092 41.144ZM90.0373 42.52L90.3884 43.4563L90.3986 43.4525L90.4086 43.4485L90.0373 42.52ZM68.3092 42.52L67.9297 43.4452L67.9438 43.451L67.9581 43.4563L68.3092 42.52ZM66.0693 41.144L65.4125 41.8981L66.0693 41.144ZM64.4373 39.096L63.5523 39.5618L63.5575 39.5715L64.4373 39.096ZM63.6052 36.504L64.5957 36.3658L64.595 36.3614L63.6052 36.504ZM63.6052 28.984L64.5949 29.1278L64.5961 29.1191L63.6052 28.984ZM64.4373 26.392L63.5575 25.9165V25.9165L64.4373 26.392ZM66.0693 24.344L66.726 25.0981H66.726L66.0693 24.344ZM68.3092 23L68.6683 23.9334L68.6806 23.9285L68.3092 23ZM90.0052 23L89.6257 23.9252L89.6398 23.931L89.6541 23.9363L90.0052 23ZM92.2773 24.344L91.6205 25.0981L92.2773 24.344ZM93.9093 26.392L94.789 25.9165V25.9165L93.9093 26.392ZM86.3893 35.16L85.4082 34.9664L85.4075 34.97L86.3893 35.16ZM86.3893 30.328L85.4075 30.518L85.4087 30.5241L86.3893 30.328ZM85.4293 28.728L84.7891 29.4962L84.7987 29.5043L84.8085 29.512L85.4293 28.728ZM72.9173 28.728L73.538 29.512L73.5478 29.5043L73.5574 29.4962L72.9173 28.728ZM71.9573 30.328L72.9358 30.534L72.9375 30.526L72.939 30.518L71.9573 30.328ZM71.9573 35.16L72.939 34.97L72.9375 34.962L72.9358 34.954L71.9573 35.16ZM72.9173 36.792L72.2771 37.5602L72.2867 37.5683L72.2965 37.576L72.9173 36.792ZM85.4293 36.792L86.05 37.576L86.0598 37.5683L86.0694 37.5602L85.4293 36.792ZM93.7506 29.1206C94.0798 31.5068 94.0903 33.9144 93.7812 36.3459L95.7653 36.5981C96.0962 33.9949 96.0854 31.4105 95.7319 28.8474L93.7506 29.1206ZM93.7824 36.3369C93.6696 37.164 93.4268 37.9263 93.0563 38.6303L94.8262 39.5617C95.309 38.6444 95.6209 37.6573 95.7641 36.6071L93.7824 36.3369ZM93.0615 38.6205C92.6905 39.3068 92.2213 39.8945 91.6525 40.3899L92.966 41.8981C93.7199 41.2415 94.3386 40.4638 94.821 39.5715L93.0615 38.6205ZM91.6525 40.3899C91.0798 40.8887 90.42 41.2899 89.6659 41.5915L90.4086 43.4485C91.3612 43.0675 92.216 42.5513 92.966 41.8981L91.6525 40.3899ZM89.6861 41.5837C88.9484 41.8603 88.1717 42 87.3493 42V44C88.4042 44 89.4194 43.8197 90.3884 43.4563L89.6861 41.5837ZM87.3493 42H70.9972V44H87.3493V42ZM70.9972 42C70.1748 42 69.3981 41.8603 68.6604 41.5837L67.9581 43.4563C68.9271 43.8197 69.9423 44 70.9972 44V42ZM68.6888 41.5948C67.9553 41.2939 67.3028 40.8923 66.726 40.3899L65.4125 41.8981C66.1583 42.5477 66.9992 43.0634 67.9297 43.4452L68.6888 41.5948ZM66.726 40.3899C66.1572 39.8945 65.688 39.3068 65.317 38.6205L63.5575 39.5715C64.0399 40.4638 64.6586 41.2415 65.4125 41.8981L66.726 40.3899ZM65.3222 38.6303C64.9499 37.923 64.7079 37.17 64.5957 36.3658L62.6148 36.6422C62.7586 37.6727 63.0712 38.6477 63.5523 39.5617L65.3222 38.6303ZM64.595 36.3614C64.2459 33.9382 64.2461 31.528 64.5949 29.1278L62.6156 28.8402C62.2391 31.432 62.2392 34.0351 62.6155 36.6466L64.595 36.3614ZM64.5961 29.1191C64.7087 28.2929 64.9507 27.5452 65.317 26.8675L63.5575 25.9165C63.0705 26.8175 62.7578 27.7977 62.6144 28.8489L64.5961 29.1191ZM65.317 26.8675C65.688 26.1812 66.1572 25.5935 66.726 25.0981L65.4125 23.5899C64.6586 24.2465 64.0399 25.0242 63.5575 25.9165L65.317 26.8675ZM66.726 25.0981C67.2979 24.6 67.9434 24.2121 68.6682 23.9333L67.9503 22.0667C67.0111 22.4279 66.1633 22.936 65.4125 23.5899L66.726 25.0981ZM68.6806 23.9285C69.4133 23.6354 70.183 23.488 70.9972 23.488V21.488C69.9341 21.488 68.9119 21.6819 67.9379 22.0715L68.6806 23.9285ZM70.9972 23.488H87.3493V21.488H70.9972V23.488ZM87.3493 23.488C88.1635 23.488 88.9194 23.6354 89.6257 23.9252L90.3848 22.0748C89.4271 21.6819 88.4123 21.488 87.3493 21.488V23.488ZM89.6541 23.9363C90.3999 24.216 91.0528 24.6037 91.6205 25.0981L92.934 23.5899C92.179 22.9323 91.3172 22.424 90.3564 22.0637L89.6541 23.9363ZM91.6205 25.0981C92.1893 25.5935 92.6585 26.1812 93.0295 26.8675L94.789 25.9165C94.3066 25.0242 93.6879 24.2465 92.934 23.5899L91.6205 25.0981ZM93.0295 26.8675C93.3959 27.5452 93.6378 28.293 93.7504 29.1191L95.7321 28.8489C95.5887 27.7977 95.276 26.8175 94.789 25.9165L93.0295 26.8675ZM87.3703 35.3536C87.7154 33.6053 87.7159 31.8622 87.3698 30.1319L85.4087 30.5241C85.7026 31.9938 85.7031 33.472 85.4082 34.9664L87.3703 35.3536ZM87.371 30.138C87.1991 29.2499 86.7558 28.5028 86.05 27.944L84.8085 29.512C85.1267 29.7639 85.3234 30.0834 85.4075 30.518L87.371 30.138ZM86.0694 27.9598C85.373 27.3794 84.5477 27.088 83.6373 27.088V29.088C84.0922 29.088 84.4615 29.2232 84.7891 29.4962L86.0694 27.9598ZM83.6373 27.088H74.6772V29.088H83.6373V27.088ZM74.6772 27.088C73.78 27.088 72.9673 27.3846 72.2771 27.9598L73.5574 29.4962C73.8913 29.218 74.2518 29.088 74.6772 29.088V27.088ZM72.2965 27.944C71.5907 28.5028 71.1474 29.2499 70.9755 30.138L72.939 30.518C73.0231 30.0834 73.2198 29.7639 73.538 29.512L72.2965 27.944ZM70.9787 30.122C70.7941 30.9989 70.7012 31.8786 70.7012 32.76H72.7012C72.7012 32.0201 72.7791 31.2784 72.9358 30.534L70.9787 30.122ZM70.7012 32.76C70.7012 33.6219 70.7945 34.4909 70.9787 35.366L72.9358 34.954C72.7787 34.2077 72.7012 33.4768 72.7012 32.76H70.7012ZM70.9755 35.35C71.1468 36.2351 71.5859 36.9842 72.2771 37.5602L73.5574 36.0238C73.2246 35.7464 73.0237 35.4076 72.939 34.97L70.9755 35.35ZM72.2965 37.576C72.9937 38.1279 73.8123 38.4 74.7093 38.4V36.4C74.2409 36.4 73.8648 36.2667 73.538 36.008L72.2965 37.576ZM74.7093 38.4H83.6373V36.4H74.7093V38.4ZM83.6373 38.4C84.5342 38.4 85.3528 38.1279 86.05 37.576L84.8085 36.008C84.4817 36.2667 84.1056 36.4 83.6373 36.4V38.4ZM86.0694 37.5602C86.7606 36.9842 87.1997 36.2351 87.371 35.35L85.4075 34.97C85.3228 35.4076 85.1219 35.7464 84.7891 36.0238L86.0694 37.5602ZM127.474 28.984L128.468 28.8793L128.467 28.8641L128.465 28.8489L127.474 28.984ZM127.474 31.448L128.464 31.5862L128.467 31.5682L128.469 31.55L127.474 31.448ZM126.642 34.04L127.522 34.5155L127.527 34.5057L126.642 34.04ZM125.01 36.088L125.667 36.8421L125.01 36.088ZM122.738 37.464L122.366 36.5355L122.358 36.5388L122.738 37.464ZM106.898 37.976V36.976H105.898V37.976H106.898ZM106.898 43V44H107.898V43H106.898ZM98.8337 43H97.8337V44H98.8337V43ZM98.8337 22.488V21.488H97.8337V22.488H98.8337ZM122.738 23L122.358 23.9252L122.372 23.931L122.387 23.9363L122.738 23ZM125.01 24.344L124.353 25.0981L125.01 24.344ZM126.642 26.392L127.521 25.9165V25.9165L126.642 26.392ZM118.13 32.088L118.62 32.9596V32.9596L118.13 32.088ZM118.93 31.288L118.072 30.7735L118.065 30.7855L118.058 30.7977L118.93 31.288ZM118.13 28.344L118.62 27.4724V27.4724L118.13 28.344ZM117.042 28.088V29.088H117.07L117.097 29.0865L117.042 28.088ZM106.898 28.088V27.088H105.898V28.088H106.898ZM106.898 32.376H105.898V33.376H106.898V32.376ZM126.479 29.0887C126.557 29.8289 126.557 30.5809 126.479 31.346L128.469 31.55C128.561 30.6511 128.561 29.7605 128.468 28.8793L126.479 29.0887ZM126.483 31.3098C126.371 32.114 126.129 32.867 125.757 33.5743L127.527 34.5057C128.008 33.5917 128.32 32.6167 128.464 31.5862L126.483 31.3098ZM125.762 33.5645C125.391 34.2508 124.922 34.8385 124.353 35.3339L125.667 36.8421C126.42 36.1855 127.039 35.4078 127.521 34.5155L125.762 33.5645ZM124.353 35.3339C123.78 35.8327 123.12 36.2339 122.366 36.5355L123.109 38.3925C124.062 38.0115 124.917 37.4953 125.667 36.8421L124.353 35.3339ZM122.358 36.5388C121.652 36.8286 120.896 36.976 120.082 36.976V38.976C121.145 38.976 122.16 38.7821 123.117 38.3892L122.358 36.5388ZM120.082 36.976H106.898V38.976H120.082V36.976ZM105.898 37.976V43H107.898V37.976H105.898ZM106.898 42H98.8337V44H106.898V42ZM99.8337 43V22.488H97.8337V43H99.8337ZM98.8337 23.488H120.082V21.488H98.8337V23.488ZM120.082 23.488C120.896 23.488 121.652 23.6354 122.358 23.9252L123.117 22.0748C122.16 21.6819 121.145 21.488 120.082 21.488V23.488ZM122.387 23.9363C123.132 24.216 123.785 24.6037 124.353 25.0981L125.667 23.5899C124.912 22.9323 124.05 22.424 123.089 22.0637L122.387 23.9363ZM124.353 25.0981C124.922 25.5935 125.391 26.1812 125.762 26.8675L127.521 25.9165C127.039 25.0242 126.42 24.2465 125.667 23.5899L124.353 25.0981ZM125.762 26.8675C126.128 27.5452 126.37 28.2929 126.483 29.1191L128.465 28.8489C128.321 27.7977 128.008 26.8175 127.521 25.9165L125.762 26.8675ZM117.042 33.376C117.601 33.376 118.132 33.234 118.62 32.9596L117.639 31.2164C117.445 31.326 117.25 31.376 117.042 31.376V33.376ZM118.62 32.9596C119.121 32.6778 119.52 32.2792 119.801 31.7783L118.058 30.7977C117.956 30.9794 117.821 31.1142 117.639 31.2164L118.62 32.9596ZM119.787 31.8025C120.075 31.3224 120.218 30.7917 120.218 30.232H118.218C118.218 30.4403 118.168 30.6136 118.072 30.7735L119.787 31.8025ZM120.218 30.232C120.218 29.6727 120.076 29.1416 119.801 28.6537L118.058 29.6343C118.168 29.829 118.218 30.0233 118.218 30.232H120.218ZM119.801 28.6537C119.52 28.1528 119.121 27.7542 118.62 27.4724L117.639 29.2156C117.821 29.3178 117.956 29.4526 118.058 29.6343L119.801 28.6537ZM118.62 27.4724C118.116 27.1888 117.564 27.0574 116.986 27.0895L117.097 29.0865C117.287 29.0759 117.461 29.1152 117.639 29.2156L118.62 27.4724ZM117.042 27.088H106.898V29.088H117.042V27.088ZM105.898 28.088V32.376H107.898V28.088H105.898ZM106.898 33.376H117.042V31.376H106.898V33.376ZM153.304 27.8V26.8H152.304V27.8H153.304ZM153.304 30.232H152.304V31.232H153.304V30.232ZM171.96 30.232H172.96V29.232H171.96V30.232ZM171.96 35.256V36.256H172.96V35.256H171.96ZM153.304 35.256V34.256H152.304V35.256H153.304ZM153.304 37.688H152.304V38.688H153.304V37.688ZM171.96 37.688H172.96V36.688H171.96V37.688ZM171.96 43V44H172.96V43H171.96ZM145.24 43H144.24V44H145.24V43ZM145.24 22.488V21.488H144.24V22.488H145.24ZM171.96 22.488H172.96V21.488H171.96V22.488ZM171.96 27.8V28.8H172.96V27.8H171.96ZM152.304 27.8V30.232H154.304V27.8H152.304ZM153.304 31.232H171.96V29.232H153.304V31.232ZM170.96 30.232V35.256H172.96V30.232H170.96ZM171.96 34.256H153.304V36.256H171.96V34.256ZM152.304 35.256V37.688H154.304V35.256H152.304ZM153.304 38.688H171.96V36.688H153.304V38.688ZM170.96 37.688V43H172.96V37.688H170.96ZM171.96 42H145.24V44H171.96V42ZM146.24 43V22.488H144.24V43H146.24ZM145.24 23.488H171.96V21.488H145.24V23.488ZM170.96 22.488V27.8H172.96V22.488H170.96ZM171.96 26.8H153.304V28.8H171.96V26.8ZM208.558 22.488L209.401 23.0259L210.382 21.488H208.558V22.488ZM195.47 43V44H196.018L196.313 43.5379L195.47 43ZM187.438 43L186.595 43.5379L186.89 44H187.438V43ZM174.35 22.488V21.488H172.525L173.507 23.0259L174.35 22.488ZM184.206 22.488L185.083 22.008L184.798 21.488H184.206V22.488ZM191.438 35.704L190.561 36.184L191.438 37.7871L192.315 36.184L191.438 35.704ZM198.67 22.488V21.488H198.077L197.793 22.008L198.67 22.488ZM207.715 21.9501L194.627 42.4621L196.313 43.5379L209.401 23.0259L207.715 21.9501ZM195.47 42H187.438V44H195.47V42ZM188.281 42.4621L175.193 21.9501L173.507 23.0259L186.595 43.5379L188.281 42.4621ZM174.35 23.488H184.206V21.488H174.35V23.488ZM183.329 22.968L190.561 36.184L192.315 35.224L185.083 22.008L183.329 22.968ZM192.315 36.184L199.547 22.968L197.793 22.008L190.561 35.224L192.315 36.184ZM198.67 23.488H208.558V21.488H198.67V23.488ZM219.117 27.8V26.8H218.117V27.8H219.117ZM219.117 30.232H218.117V31.232H219.117V30.232ZM237.773 30.232H238.773V29.232H237.773V30.232ZM237.773 35.256V36.256H238.773V35.256H237.773ZM219.117 35.256V34.256H218.117V35.256H219.117ZM219.117 37.688H218.117V38.688H219.117V37.688ZM237.773 37.688H238.773V36.688H237.773V37.688ZM237.773 43V44H238.773V43H237.773ZM211.053 43H210.053V44H211.053V43ZM211.053 22.488V21.488H210.053V22.488H211.053ZM237.773 22.488H238.773V21.488H237.773V22.488ZM237.773 27.8V28.8H238.773V27.8H237.773ZM218.117 27.8V30.232H220.117V27.8H218.117ZM219.117 31.232H237.773V29.232H219.117V31.232ZM236.773 30.232V35.256H238.773V30.232H236.773ZM237.773 34.256H219.117V36.256H237.773V34.256ZM218.117 35.256V37.688H220.117V35.256H218.117ZM219.117 38.688H237.773V36.688H219.117V38.688ZM236.773 37.688V43H238.773V37.688H236.773ZM237.773 42H211.053V44H237.773V42ZM212.053 43V22.488H210.053V43H212.053ZM211.053 23.488H237.773V21.488H211.053V23.488ZM236.773 22.488V27.8H238.773V22.488H236.773ZM237.773 26.8H219.117V28.8H237.773V26.8ZM270.978 22.488H271.978V21.488H270.978V22.488ZM270.978 43V44H271.978V43H270.978ZM261.314 43L260.574 43.6724L260.872 44H261.314V43ZM250.21 30.776L250.95 30.1036L249.21 28.1879V30.776H250.21ZM250.21 43V44H251.21V43H250.21ZM242.146 43H241.146V44H242.146V43ZM242.146 22.488V21.488H241.146V22.488H242.146ZM251.81 22.488L252.55 21.8156L252.253 21.488H251.81V22.488ZM262.914 34.712L262.174 35.3844L263.914 37.3001V34.712H262.914ZM262.914 22.488V21.488H261.914V22.488H262.914ZM269.978 22.488V43H271.978V22.488H269.978ZM270.978 42H261.314V44H270.978V42ZM262.054 42.3276L250.95 30.1036L249.47 31.4484L260.574 43.6724L262.054 42.3276ZM249.21 30.776V43H251.21V30.776H249.21ZM250.21 42H242.146V44H250.21V42ZM243.146 43V22.488H241.146V43H243.146ZM242.146 23.488H251.81V21.488H242.146V23.488ZM251.07 23.1604L262.174 35.3844L263.654 34.0396L252.55 21.8156L251.07 23.1604ZM263.914 34.712V22.488H261.914V34.712H263.914ZM262.914 23.488H270.978V21.488H262.914V23.488ZM301.251 22.488H302.251V21.488H301.251V22.488ZM301.251 28.088V29.088H302.251V28.088H301.251ZM291.619 28.088V27.088H290.619V28.088H291.619ZM291.619 43V44H292.619V43H291.619ZM283.555 43H282.555V44H283.555V43ZM283.555 28.088H284.555V27.088H283.555V28.088ZM273.955 28.088H272.955V29.088H273.955V28.088ZM273.955 22.488V21.488H272.955V22.488H273.955ZM300.251 22.488V28.088H302.251V22.488H300.251ZM301.251 27.088H291.619V29.088H301.251V27.088ZM290.619 28.088V43H292.619V28.088H290.619ZM291.619 42H283.555V44H291.619V42ZM284.555 43V28.088H282.555V43H284.555ZM283.555 27.088H273.955V29.088H283.555V27.088ZM274.955 28.088V22.488H272.955V28.088H274.955ZM273.955 23.488H301.251V21.488H273.955V23.488ZM328.4 30.936L328.141 31.9018L328.152 31.9048L328.163 31.9075L328.4 30.936ZM330.704 32.024L330.092 32.8147L330.106 32.8256L330.12 32.836L330.704 32.024ZM332.304 33.976L331.4 34.4041L331.405 34.4137L331.41 34.4232L332.304 33.976ZM332.304 39.864L331.414 39.4072L331.41 39.4168L332.304 39.864ZM330.704 41.72L330.137 40.896L330.131 40.9002L330.125 40.9045L330.704 41.72ZM328.4 42.712L328.186 41.7352L328.18 41.7364L328.4 42.712ZM308.4 42.52L308.02 43.4452L308.035 43.451L308.049 43.4563L308.4 42.52ZM306.16 41.144L306.817 40.3899L306.16 41.144ZM304.528 39.096L303.643 39.5618L303.648 39.5715L304.528 39.096ZM303.696 36.472V35.472H302.55L302.705 36.6071L303.696 36.472ZM311.92 36.472L312.822 36.0405L312.55 35.472H311.92V36.472ZM312.944 37.624L313.47 36.7737L312.944 37.624ZM318.928 38.04L318.948 37.0402L318.938 37.04H318.928V38.04ZM323.056 38.04L323.147 39.0359L323.191 39.0319L323.235 39.0239L323.056 38.04ZM323.76 37.816L324.174 38.7264L324.207 38.7113L324.239 38.6939L323.76 37.816ZM324.368 37.304L325.149 37.9287V37.9287L324.368 37.304ZM324.368 35.64L323.587 36.2647L323.603 36.285L323.621 36.3044L324.368 35.64ZM323.76 35.16L323.281 36.0379L323.313 36.0553L323.346 36.0704L323.76 35.16ZM323.024 34.936L322.845 35.9199L322.893 35.9285L322.941 35.9325L323.024 34.936ZM308.016 34.552L307.757 35.5178L307.768 35.5208L307.779 35.5235L308.016 34.552ZM305.68 33.464L305.068 34.2547L305.082 34.2656L305.096 34.276L305.68 33.464ZM304.08 31.512L303.176 31.9401L303.183 31.9546L303.19 31.9688L304.08 31.512ZM304.08 25.624L303.19 25.1672L303.186 25.1768L304.08 25.624ZM305.68 23.768L306.241 24.5959L306.247 24.592L305.68 23.768ZM307.984 22.776L307.77 21.7992L307.764 21.8004L307.984 22.776ZM327.888 23L327.508 23.9252L327.523 23.931L327.537 23.9363L327.888 23ZM330.16 24.344L329.503 25.0981V25.0981L330.16 24.344ZM331.792 26.392L332.672 25.9165L331.792 26.392ZM332.624 28.984L332.628 29.984L333.769 29.9796L333.615 28.8489L332.624 28.984ZM324.4 29.016L323.498 29.4475L323.771 30.0185L324.404 30.016L324.4 29.016ZM323.376 27.864L322.821 28.6961L322.835 28.7054L322.85 28.7143L323.376 27.864ZM313.328 27.48L313.419 28.4759L313.456 28.4725L313.492 28.4664L313.328 27.48ZM312.624 27.704L313.071 28.5984L313.087 28.5904L313.103 28.5819L312.624 27.704ZM312.048 28.184L312.795 28.8484L312.813 28.829L312.829 28.8087L312.048 28.184ZM312.048 29.848L311.267 30.4727V30.4727L312.048 29.848ZM312.656 30.328L312.242 31.2384L312.656 30.328ZM313.36 30.552L313.181 31.5359L313.229 31.5445L313.277 31.5485L313.36 30.552ZM325.68 31.584C326.534 31.584 327.354 31.6907 328.141 31.9018L328.659 29.9702C327.697 29.712 326.703 29.584 325.68 29.584V31.584ZM328.163 31.9075C328.912 32.0902 329.55 32.3951 330.092 32.8147L331.316 31.2333C330.536 30.6289 329.637 30.2085 328.637 29.9645L328.163 31.9075ZM330.12 32.836C330.656 33.2213 331.084 33.7359 331.4 34.4041L333.208 33.5479C332.756 32.5948 332.117 31.8081 331.288 31.212L330.12 32.836ZM331.41 34.4232C331.728 35.0603 331.912 35.8897 331.912 36.952H333.912C333.912 35.6676 333.691 34.513 333.198 33.5288L331.41 34.4232ZM331.912 36.952C331.912 37.9909 331.729 38.795 331.414 39.4072L333.194 40.3208C333.69 39.3544 333.912 38.2171 333.912 36.952H331.912ZM331.41 39.4168C331.098 40.0392 330.676 40.526 330.137 40.896L331.271 42.544C332.098 41.9753 332.742 41.2248 333.198 40.3112L331.41 39.4168ZM330.125 40.9045C329.584 41.2885 328.943 41.569 328.186 41.7353L328.614 43.6887C329.606 43.471 330.501 43.0902 331.283 42.5355L330.125 40.9045ZM328.18 41.7364C327.404 41.911 326.582 42 325.712 42V44C326.719 44 327.689 43.897 328.62 43.6876L328.18 41.7364ZM325.712 42H311.088V44H325.712V42ZM311.088 42C310.266 42 309.489 41.8603 308.751 41.5837L308.049 43.4563C309.018 43.8197 310.033 44 311.088 44V42ZM308.78 41.5948C308.046 41.2939 307.394 40.8923 306.817 40.3899L305.503 41.8981C306.249 42.5477 307.09 43.0634 308.02 43.4452L308.78 41.5948ZM306.817 40.3899C306.248 39.8945 305.779 39.3068 305.408 38.6205L303.648 39.5715C304.131 40.4638 304.749 41.2415 305.503 41.8981L306.817 40.3899ZM305.413 38.6303C305.042 37.9263 304.8 37.164 304.687 36.3369L302.705 36.6071C302.848 37.6573 303.16 38.6444 303.643 39.5617L305.413 38.6303ZM303.696 37.472H311.92V35.472H303.696V37.472ZM311.018 36.9035C311.332 37.5609 311.801 38.0928 312.418 38.4743L313.47 36.7737C313.191 36.6005 312.977 36.3644 312.822 36.0405L311.018 36.9035ZM312.418 38.4743C313.026 38.8507 313.699 39.04 314.416 39.04V37.04C314.066 37.04 313.758 36.9519 313.47 36.7737L312.418 38.4743ZM314.416 39.04H318.928V37.04H314.416V39.04ZM318.908 39.0398C320.004 39.0613 321.195 39.072 322.48 39.072V37.072C321.205 37.072 320.028 37.0614 318.948 37.0402L318.908 39.0398ZM322.48 39.072C322.672 39.072 322.897 39.0586 323.147 39.0359L322.965 37.0441C322.746 37.0641 322.587 37.072 322.48 37.072V39.072ZM323.235 39.0239C323.557 38.9653 323.87 38.8644 324.174 38.7264L323.346 36.9056C323.181 36.9809 323.025 37.0293 322.877 37.0561L323.235 39.0239ZM324.239 38.6939C324.593 38.5009 324.897 38.2433 325.149 37.9287L323.587 36.6793C323.497 36.7914 323.397 36.8751 323.281 36.9381L324.239 38.6939ZM325.149 37.9287C325.494 37.4975 325.624 36.9824 325.624 36.472H323.624C323.624 36.5601 323.613 36.6136 323.604 36.6419C323.596 36.6679 323.589 36.6768 323.587 36.6793L325.149 37.9287ZM325.624 36.472C325.624 35.9647 325.505 35.4139 325.115 34.9756L323.621 36.3044C323.599 36.2802 323.598 36.2666 323.604 36.2861C323.611 36.3092 323.624 36.3666 323.624 36.472H325.624ZM325.149 35.0153C324.886 34.6868 324.56 34.4252 324.174 34.2496L323.346 36.0704C323.429 36.1081 323.509 36.1666 323.587 36.2647L325.149 35.0153ZM324.239 34.2821C323.887 34.0902 323.507 33.9728 323.107 33.9395L322.941 35.9325C323.053 35.9418 323.164 35.9738 323.281 36.0379L324.239 34.2821ZM323.203 33.9521C322.95 33.9062 322.699 33.872 322.48 33.872V35.872C322.517 35.872 322.628 35.8804 322.845 35.9199L323.203 33.9521ZM322.48 33.872H310.736V35.872H322.48V33.872ZM310.736 33.872C309.874 33.872 309.047 33.7741 308.253 33.5805L307.779 35.5235C308.735 35.7566 309.721 35.872 310.736 35.872V33.872ZM308.275 33.5862C307.508 33.3803 306.841 33.0669 306.264 32.652L305.096 34.276C305.884 34.8424 306.775 35.2543 307.757 35.5178L308.275 33.5862ZM306.292 32.6733C305.754 32.2563 305.312 31.7224 304.97 31.0552L303.19 31.9688C303.659 32.8803 304.284 33.6477 305.068 34.2547L306.292 32.6733ZM304.984 31.0839C304.68 30.4416 304.504 29.605 304.504 28.536H302.504C302.504 29.8137 302.712 30.961 303.176 31.9401L304.984 31.0839ZM304.504 28.536C304.504 27.464 304.681 26.6591 304.974 26.0712L303.186 25.1768C302.711 26.1249 302.504 27.2613 302.504 28.536H304.504ZM304.97 26.0808C305.307 25.4239 305.733 24.9397 306.241 24.5959L305.119 22.9401C304.304 23.4923 303.664 24.2454 303.19 25.1672L304.97 26.0808ZM306.247 24.592C306.818 24.1988 307.467 23.9172 308.204 23.7516L307.764 21.8004C306.794 22.0188 305.907 22.3985 305.113 22.944L306.247 24.592ZM308.198 23.7527C308.999 23.5769 309.834 23.488 310.704 23.488V21.488C309.697 21.488 308.718 21.5911 307.77 21.7993L308.198 23.7527ZM310.704 23.488H325.232V21.488H310.704V23.488ZM325.232 23.488C326.046 23.488 326.802 23.6354 327.508 23.9252L328.268 22.0748C327.31 21.6819 326.295 21.488 325.232 21.488V23.488ZM327.537 23.9363C328.283 24.216 328.936 24.6037 329.503 25.0981L330.817 23.5899C330.062 22.9323 329.2 22.424 328.239 22.0637L327.537 23.9363ZM329.503 25.0981C330.072 25.5935 330.541 26.1812 330.912 26.8675L332.672 25.9165C332.189 25.0242 331.571 24.2465 330.817 23.5899L329.503 25.0981ZM330.912 26.8675C331.279 27.5452 331.521 28.2929 331.633 29.1191L333.615 28.8489C333.471 27.7977 333.159 26.8175 332.672 25.9165L330.912 26.8675ZM332.62 27.984L324.396 28.016L324.404 30.016L332.628 29.984L332.62 27.984ZM325.302 28.5845C324.988 27.9271 324.519 27.3952 323.902 27.0137L322.85 28.7143C323.129 28.8875 323.343 29.1236 323.498 29.4475L325.302 28.5845ZM323.931 27.0319C323.32 26.6249 322.637 26.416 321.904 26.416V28.416C322.238 28.416 322.536 28.5058 322.821 28.6961L323.931 27.0319ZM321.904 26.416H313.936V28.416H321.904V26.416ZM313.936 26.416C313.706 26.416 313.441 26.4474 313.164 26.4936L313.492 28.4664C313.727 28.4272 313.868 28.416 313.936 28.416V26.416ZM313.237 26.4841C312.85 26.5194 312.484 26.6414 312.145 26.8261L313.103 28.5819C313.234 28.5106 313.337 28.4833 313.419 28.4759L313.237 26.4841ZM312.177 26.8096C311.816 26.9897 311.515 27.2494 311.267 27.5593L312.829 28.8087C312.922 28.6919 313.005 28.6316 313.071 28.5984L312.177 26.8096ZM311.301 27.5196C310.911 27.9579 310.792 28.5087 310.792 29.016H312.792C312.792 28.9106 312.805 28.8532 312.812 28.8301C312.818 28.8106 312.817 28.8242 312.795 28.8484L311.301 27.5196ZM310.792 29.016C310.792 29.5265 310.922 30.0415 311.267 30.4727L312.829 29.2233C312.827 29.2208 312.82 29.2119 312.812 29.1859C312.803 29.1576 312.792 29.1041 312.792 29.016H310.792ZM311.267 30.4727C311.53 30.8012 311.856 31.0628 312.242 31.2384L313.07 29.4176C312.987 29.3799 312.907 29.3214 312.829 29.2233L311.267 30.4727ZM312.242 31.2384C312.546 31.3764 312.859 31.4773 313.181 31.5359L313.539 29.5681C313.391 29.5413 313.236 29.4929 313.07 29.4176L312.242 31.2384ZM313.277 31.5485C313.539 31.5704 313.765 31.584 313.936 31.584V29.584C313.851 29.584 313.693 29.5763 313.443 29.5555L313.277 31.5485ZM313.936 31.584H325.68V29.584H313.936V31.584Z" fill="black" mask="url(#path-2-outside-1_26_136)"/>
</g>
<path d="M0 11.2C0 7.27963 0 5.31945 0.762954 3.82207C1.43407 2.50493 2.50493 1.43407 3.82207 0.762954C5.31945 0 7.27963 0 11.2 0H12V62H11.2C7.27963 62 5.31945 62 3.82207 61.237C2.50493 60.5659 1.43407 59.4951 0.762954 58.1779C0 56.6805 0 54.7204 0 50.8V11.2Z" fill="url(#paint1_linear_26_136)"/>
</g>
<defs>
<filter id="filter0_d_26_136" x="-4" y="0" width="713" height="70" filterUnits="userSpaceOnUse" color-interpolation-filters="sRGB">
<feFlood flood-opacity="0" result="BackgroundImageFix"/>
<feColorMatrix in="SourceAlpha" type="matrix" values="0 0 0 0 0 0 0 0 0 0 0 0 0 0 0 0 0 0 127 0" result="hardAlpha"/>
<feOffset dy="4"/>
<feGaussianBlur stdDeviation="2"/>
<feComposite in2="hardAlpha" operator="out"/>
<feColorMatrix type="matrix" values="0 0 0 0 0 0 0 0 0 0 0 0 0 0 0 0 0 0 0.7 0"/>
<feBlend mode="normal" in2="BackgroundImageFix" result="effect1_dropShadow_26_136"/>
<feBlend mode="normal" in="SourceGraphic" in2="effect1_dropShadow_26_136" result="shape"/>
</filter>
<filter id="filter1_d_26_136" x="29.736" y="22.488" width="307.176" height="28.512" filterUnits="userSpaceOnUse" color-interpolation-filters="sRGB">
<feFlood flood-opacity="0" result="BackgroundImageFix"/>
<feColorMatrix in="SourceAlpha" type="matrix" values="0 0 0 0 0 0 0 0 0 0 0 0 0 0 0 0 0 0 127 0" result="hardAlpha"/>
<feOffset dy="4"/>
<feGaussianBlur stdDeviation="2"/>
<feComposite in2="hardAlpha" operator="out"/>
<feColorMatrix type="matrix" values="0 0 0 0 0 0 0 0 0 0 0 0 0 0 0 0 0 0 0.7 0"/>
<feBlend mode="normal" in2="BackgroundImageFix" result="effect1_dropShadow_26_136"/>
<feBlend mode="normal" in="SourceGraphic" in2="effect1_dropShadow_26_136" result="shape"/>
</filter>
<linearGradient id="paint0_linear_26_136" x1="12" y1="62" x2="605.388" y2="62" gradientUnits="userSpaceOnUse">
<stop/>
<stop offset="0.563452" stop-color="#4E4E4E" stop-opacity="0.0115625"/>
<stop offset="1" stop-color="#929292" stop-opacity="0"/>
</linearGradient>
<linearGradient id="paint1_linear_26_136" x1="6" y1="0" x2="6" y2="62" gradientUnits="userSpaceOnUse">
<stop stop-color="#0D687B"/>
<stop offset="0.515625" stop-color="#32F8BA"/>
<stop offset="1" stop-color="#FEFEFB"/>
</linearGradient>
</defs>
</svg>
