<svg width="331" height="204" viewBox="0 0 331 204" fill="none" xmlns="http://www.w3.org/2000/svg">
<g filter="url(#filter0_i_26_314)">
<path d="M0 11.2C0 7.27963 0 5.31945 0.762954 3.82207C1.43407 2.50493 2.50493 1.43407 3.82207 0.762954C5.31945 0 7.27963 0 11.2 0H319.8C323.72 0 325.681 0 327.178 0.762954C328.495 1.43407 329.566 2.50493 330.237 3.82207C331 5.31945 331 7.27963 331 11.2V192.8C331 196.72 331 198.681 330.237 200.178C329.566 201.495 328.495 202.566 327.178 203.237C325.681 204 323.72 204 319.8 204H11.2C7.27964 204 5.31945 204 3.82207 203.237C2.50493 202.566 1.43407 201.495 0.762954 200.178C0 198.681 0 196.72 0 192.8V11.2Z" fill="#08101D"/>
</g>
<g filter="url(#filter1_d_26_314)">
<path d="M163.386 121.462L156.024 133H151.506L144.144 121.462H149.688L153.756 128.896L157.824 121.462H163.386ZM176.017 125.962C176.545 125.962 177.049 126.028 177.529 126.16C178.021 126.292 178.453 126.502 178.825 126.79C179.209 127.078 179.509 127.456 179.725 127.924C179.953 128.38 180.067 128.938 180.067 129.598C180.067 130.246 179.953 130.792 179.725 131.236C179.509 131.668 179.209 132.016 178.825 132.28C178.453 132.544 178.021 132.73 177.529 132.838C177.049 132.946 176.545 133 176.017 133H167.881C167.353 133 166.849 132.91 166.369 132.73C165.901 132.538 165.481 132.28 165.109 131.956C164.737 131.632 164.431 131.248 164.191 130.804C163.951 130.348 163.795 129.856 163.723 129.328H168.349C168.481 129.592 168.673 129.802 168.925 129.958C169.177 130.102 169.453 130.168 169.753 130.156L174.199 130.174C174.283 130.174 174.391 130.168 174.523 130.156C174.667 130.144 174.799 130.108 174.919 130.048C175.051 129.988 175.165 129.904 175.261 129.796C175.357 129.676 175.405 129.52 175.405 129.328C175.405 129.124 175.357 128.968 175.261 128.86C175.165 128.752 175.051 128.668 174.919 128.608C174.787 128.548 174.655 128.512 174.523 128.5C174.391 128.488 174.283 128.482 174.199 128.482H168.025C167.497 128.482 166.987 128.416 166.495 128.284C166.003 128.152 165.565 127.942 165.181 127.654C164.809 127.366 164.509 126.994 164.281 126.538C164.065 126.082 163.957 125.524 163.957 124.864C163.957 124.216 164.065 123.676 164.281 123.244C164.509 122.8 164.809 122.446 165.181 122.182C165.565 121.918 165.997 121.732 166.477 121.624C166.969 121.516 167.479 121.462 168.007 121.462H175.747C176.275 121.462 176.779 121.558 177.259 121.75C177.739 121.93 178.165 122.182 178.537 122.506C178.909 122.83 179.215 123.214 179.455 123.658C179.695 124.102 179.851 124.588 179.923 125.116L175.297 125.134C175.165 124.858 174.967 124.648 174.703 124.504C174.451 124.348 174.175 124.276 173.875 124.288H169.825C169.741 124.288 169.627 124.294 169.483 124.306C169.351 124.318 169.219 124.354 169.087 124.414C168.967 124.474 168.859 124.558 168.763 124.666C168.667 124.774 168.619 124.93 168.619 125.134C168.619 125.326 168.667 125.482 168.763 125.602C168.859 125.71 168.973 125.794 169.105 125.854C169.237 125.902 169.369 125.932 169.501 125.944C169.645 125.956 169.753 125.962 169.825 125.962H176.017Z" fill="white"/>
</g>
<g filter="url(#filter2_d_26_314)">
<path d="M157.81 101.284V99.178H166.198V101.284H157.81Z" fill="white"/>
</g>
<g filter="url(#filter3_d_26_314)">
<path d="M135.67 103.21L146.776 103.192V105.982L131.134 106V103.84C131.122 103.264 131.218 102.718 131.422 102.202C131.626 101.686 131.908 101.236 132.268 100.852C132.64 100.456 133.078 100.138 133.582 99.898C134.086 99.658 134.626 99.52 135.202 99.484L141.016 99.016C141.088 99.004 141.19 98.992 141.322 98.98C141.454 98.956 141.586 98.914 141.718 98.854C141.85 98.794 141.964 98.71 142.06 98.602C142.168 98.482 142.222 98.326 142.222 98.134C142.222 97.93 142.174 97.774 142.078 97.666C141.982 97.546 141.868 97.456 141.736 97.396C141.616 97.324 141.484 97.282 141.34 97.27C141.208 97.246 141.1 97.234 141.016 97.234H137.38C137.08 97.234 136.798 97.318 136.534 97.486C136.282 97.642 136.09 97.858 135.958 98.134L131.35 98.116C131.422 97.588 131.578 97.102 131.818 96.658C132.058 96.214 132.364 95.83 132.736 95.506C133.108 95.182 133.528 94.93 133.996 94.75C134.476 94.558 134.98 94.462 135.508 94.462H142.834C143.362 94.462 143.866 94.528 144.346 94.66C144.838 94.792 145.27 95.002 145.642 95.29C146.026 95.578 146.326 95.95 146.542 96.406C146.77 96.862 146.884 97.42 146.884 98.08C146.884 98.74 146.77 99.28 146.542 99.7C146.326 100.108 146.026 100.438 145.642 100.69C145.27 100.942 144.838 101.128 144.346 101.248C143.866 101.356 143.362 101.434 142.834 101.482L136.876 102.004C136.804 102.004 136.702 102.022 136.57 102.058C136.438 102.094 136.3 102.148 136.156 102.22C136.024 102.292 135.91 102.394 135.814 102.526C135.718 102.646 135.67 102.808 135.67 103.012V103.21Z" fill="white"/>
</g>
<g filter="url(#filter4_d_26_314)">
<path d="M193.864 100.744V103.894H191.848V106H187.312V103.894H176.026V100.636L184.414 94.462H190.84L182.29 100.744H187.312V98.134H191.848V100.744H193.864Z" fill="white"/>
</g>
<g filter="url(#filter5_d_26_314)">
<path d="M103.901 27.936C104.307 27.936 104.659 27.8853 104.957 27.784C105.261 27.6827 105.509 27.544 105.701 27.368C105.899 27.1867 106.045 26.9733 106.141 26.728C106.237 26.4827 106.285 26.2133 106.285 25.92C106.285 25.3333 106.091 24.8827 105.701 24.568C105.317 24.2533 104.728 24.096 103.933 24.096H102.557V27.936H103.901ZM109.437 34H107.493C107.125 34 106.859 33.856 106.693 33.568L104.261 29.864C104.171 29.7253 104.069 29.6267 103.957 29.568C103.851 29.5093 103.691 29.48 103.477 29.48H102.557V34H100.405V22.432H103.933C104.717 22.432 105.389 22.5147 105.949 22.68C106.515 22.84 106.976 23.0667 107.333 23.36C107.696 23.6533 107.963 24.0053 108.133 24.416C108.304 24.8213 108.389 25.2693 108.389 25.76C108.389 26.1493 108.331 26.5173 108.213 26.864C108.101 27.2107 107.936 27.5253 107.717 27.808C107.504 28.0907 107.237 28.3387 106.917 28.552C106.603 28.7653 106.243 28.9333 105.837 29.056C105.976 29.136 106.104 29.232 106.221 29.344C106.339 29.4507 106.445 29.5787 106.541 29.728L109.437 34ZM121.562 28.216C121.562 29.064 121.421 29.8507 121.138 30.576C120.861 31.296 120.466 31.92 119.954 32.448C119.442 32.976 118.826 33.3893 118.106 33.688C117.386 33.9813 116.586 34.128 115.706 34.128C114.832 34.128 114.034 33.9813 113.314 33.688C112.594 33.3893 111.976 32.976 111.458 32.448C110.946 31.92 110.549 31.296 110.266 30.576C109.984 29.8507 109.842 29.064 109.842 28.216C109.842 27.368 109.984 26.584 110.266 25.864C110.549 25.1387 110.946 24.512 111.458 23.984C111.976 23.456 112.594 23.0453 113.314 22.752C114.034 22.4533 114.832 22.304 115.706 22.304C116.293 22.304 116.845 22.3733 117.362 22.512C117.88 22.6453 118.354 22.8373 118.786 23.088C119.218 23.3333 119.605 23.6347 119.946 23.992C120.293 24.344 120.586 24.7387 120.826 25.176C121.066 25.6133 121.248 26.088 121.37 26.6C121.498 27.112 121.562 27.6507 121.562 28.216ZM119.362 28.216C119.362 27.5813 119.277 27.0133 119.106 26.512C118.936 26.0053 118.693 25.576 118.378 25.224C118.064 24.872 117.68 24.6027 117.226 24.416C116.778 24.2293 116.272 24.136 115.706 24.136C115.141 24.136 114.632 24.2293 114.178 24.416C113.73 24.6027 113.346 24.872 113.026 25.224C112.712 25.576 112.469 26.0053 112.298 26.512C112.128 27.0133 112.042 27.5813 112.042 28.216C112.042 28.8507 112.128 29.4213 112.298 29.928C112.469 30.4293 112.712 30.856 113.026 31.208C113.346 31.5547 113.73 31.8213 114.178 32.008C114.632 32.1947 115.141 32.288 115.706 32.288C116.272 32.288 116.778 32.1947 117.226 32.008C117.68 31.8213 118.064 31.5547 118.378 31.208C118.693 30.856 118.936 30.4293 119.106 29.928C119.277 29.4213 119.362 28.8507 119.362 28.216ZM131.396 31.272C131.513 31.272 131.617 31.3173 131.708 31.408L132.556 32.328C132.087 32.9093 131.508 33.3547 130.82 33.664C130.137 33.9733 129.316 34.128 128.356 34.128C127.497 34.128 126.724 33.9813 126.036 33.688C125.353 33.3947 124.769 32.9867 124.284 32.464C123.799 31.9413 123.425 31.3173 123.164 30.592C122.908 29.8667 122.78 29.0747 122.78 28.216C122.78 27.3467 122.919 26.552 123.196 25.832C123.473 25.1067 123.863 24.4827 124.364 23.96C124.871 23.4373 125.473 23.032 126.172 22.744C126.871 22.4507 127.644 22.304 128.492 22.304C129.335 22.304 130.081 22.4427 130.732 22.72C131.388 22.9973 131.945 23.36 132.404 23.808L131.684 24.808C131.641 24.872 131.585 24.928 131.516 24.976C131.452 25.024 131.361 25.048 131.244 25.048C131.164 25.048 131.081 25.0267 130.996 24.984C130.911 24.936 130.817 24.88 130.716 24.816C130.615 24.7467 130.497 24.672 130.364 24.592C130.231 24.512 130.076 24.44 129.9 24.376C129.724 24.3067 129.519 24.2507 129.284 24.208C129.055 24.16 128.788 24.136 128.484 24.136C127.967 24.136 127.492 24.2293 127.06 24.416C126.633 24.5973 126.265 24.864 125.956 25.216C125.647 25.5627 125.407 25.9893 125.236 26.496C125.065 26.9973 124.98 27.5707 124.98 28.216C124.98 28.8667 125.071 29.4453 125.252 29.952C125.439 30.4587 125.689 30.8853 126.004 31.232C126.319 31.5787 126.689 31.8453 127.116 32.032C127.543 32.2133 128.001 32.304 128.492 32.304C128.785 32.304 129.049 32.288 129.284 32.256C129.524 32.224 129.743 32.1733 129.94 32.104C130.143 32.0347 130.332 31.9467 130.508 31.84C130.689 31.728 130.868 31.592 131.044 31.432C131.097 31.384 131.153 31.3467 131.212 31.32C131.271 31.288 131.332 31.272 131.396 31.272ZM136.182 27.28H136.686C136.889 27.28 137.057 27.2533 137.19 27.2C137.324 27.1413 137.438 27.0507 137.534 26.928L140.726 22.888C140.86 22.7173 140.998 22.6 141.142 22.536C141.292 22.4667 141.478 22.432 141.702 22.432H143.558L139.662 27.24C139.433 27.5333 139.196 27.7413 138.95 27.864C139.126 27.928 139.284 28.0187 139.422 28.136C139.566 28.248 139.702 28.3973 139.83 28.584L143.846 34H141.95C141.694 34 141.502 33.9653 141.374 33.896C141.252 33.8213 141.148 33.7147 141.062 33.576L137.79 29.304C137.689 29.16 137.572 29.0587 137.438 29C137.305 28.9413 137.113 28.912 136.862 28.912H136.182V34H134.03V22.432H136.182V27.28ZM147.159 24.144V27.352H151.207V29.008H147.159V32.28H152.295V34H144.999V22.432H152.295V24.144H147.159ZM162.282 24.2H158.794V34H156.642V24.2H153.154V22.432H162.282V24.2ZM173.978 32.224V34H167.202V22.432H169.354V32.224H173.978ZM177.675 24.144V27.352H181.723V29.008H177.675V32.28H182.811V34H175.515V22.432H182.811V24.144H177.675ZM190.83 29.632L189.422 25.784C189.352 25.6133 189.28 25.4107 189.206 25.176C189.131 24.9413 189.056 24.688 188.982 24.416C188.912 24.688 188.84 24.944 188.766 25.184C188.691 25.4187 188.619 25.624 188.55 25.8L187.15 29.632H190.83ZM194.63 34H192.966C192.779 34 192.627 33.9547 192.51 33.864C192.392 33.768 192.304 33.6507 192.246 33.512L191.382 31.152H186.59L185.726 33.512C185.683 33.6347 185.6 33.7467 185.478 33.848C185.355 33.9493 185.203 34 185.022 34H183.342L187.894 22.432H190.086L194.63 34ZM205.019 28.2V32.88C204.433 33.312 203.806 33.6293 203.139 33.832C202.478 34.0293 201.769 34.128 201.011 34.128C200.067 34.128 199.211 33.9813 198.443 33.688C197.681 33.3947 197.027 32.9867 196.483 32.464C195.945 31.9413 195.529 31.3173 195.235 30.592C194.942 29.8667 194.795 29.0747 194.795 28.216C194.795 27.3467 194.937 26.5493 195.219 25.824C195.502 25.0987 195.902 24.4747 196.419 23.952C196.942 23.4293 197.574 23.024 198.315 22.736C199.057 22.448 199.889 22.304 200.811 22.304C201.281 22.304 201.718 22.3413 202.123 22.416C202.534 22.4907 202.913 22.5947 203.259 22.728C203.611 22.856 203.931 23.0133 204.219 23.2C204.507 23.3867 204.771 23.592 205.011 23.816L204.395 24.792C204.299 24.9467 204.174 25.0427 204.019 25.08C203.865 25.112 203.697 25.072 203.515 24.96C203.339 24.8587 203.163 24.7573 202.987 24.656C202.811 24.5547 202.614 24.4667 202.395 24.392C202.182 24.3173 201.939 24.256 201.667 24.208C201.401 24.16 201.091 24.136 200.739 24.136C200.169 24.136 199.651 24.232 199.187 24.424C198.729 24.616 198.337 24.8907 198.011 25.248C197.686 25.6053 197.435 26.0347 197.259 26.536C197.083 27.0373 196.995 27.5973 196.995 28.216C196.995 28.8773 197.089 29.4693 197.275 29.992C197.467 30.5093 197.734 30.9493 198.075 31.312C198.422 31.6693 198.838 31.944 199.323 32.136C199.809 32.3227 200.35 32.416 200.947 32.416C201.374 32.416 201.755 32.3707 202.091 32.28C202.427 32.1893 202.755 32.0667 203.075 31.912V29.816H201.619C201.481 29.816 201.371 29.7787 201.291 29.704C201.217 29.624 201.179 29.528 201.179 29.416V28.2H205.019ZM211.749 32.264C212.165 32.264 212.535 32.1947 212.861 32.056C213.191 31.9173 213.469 31.7227 213.693 31.472C213.917 31.2213 214.087 30.9173 214.205 30.56C214.327 30.2027 214.389 29.8027 214.389 29.36V22.432H216.541V29.36C216.541 30.048 216.429 30.6853 216.205 31.272C215.986 31.8533 215.669 32.3573 215.253 32.784C214.842 33.2053 214.341 33.536 213.749 33.776C213.157 34.0107 212.49 34.128 211.749 34.128C211.002 34.128 210.333 34.0107 209.741 33.776C209.149 33.536 208.645 33.2053 208.229 32.784C207.818 32.3573 207.501 31.8533 207.277 31.272C207.058 30.6853 206.949 30.048 206.949 29.36V22.432H209.101V29.352C209.101 29.7947 209.159 30.1947 209.277 30.552C209.399 30.9093 209.573 31.216 209.797 31.472C210.026 31.7227 210.303 31.9173 210.629 32.056C210.959 32.1947 211.333 32.264 211.749 32.264ZM221.128 24.144V27.352H225.176V29.008H221.128V32.28H226.264V34H218.968V22.432H226.264V24.144H221.128Z" fill="white"/>
</g>
<g filter="url(#filter6_d_26_314)">
<path d="M94.0222 44.21C94.2756 44.21 94.4956 44.1783 94.6822 44.115C94.8722 44.0517 95.0272 43.965 95.1472 43.855C95.2706 43.7417 95.3622 43.6083 95.4222 43.455C95.4822 43.3017 95.5122 43.1333 95.5122 42.95C95.5122 42.5833 95.3906 42.3017 95.1472 42.105C94.9072 41.9083 94.5389 41.81 94.0422 41.81H93.1822V44.21H94.0222ZM97.4822 48H96.2672C96.0372 48 95.8706 47.91 95.7672 47.73L94.2472 45.415C94.1906 45.3283 94.1272 45.2667 94.0572 45.23C93.9906 45.1933 93.8906 45.175 93.7572 45.175H93.1822V48H91.8372V40.77H94.0422C94.5322 40.77 94.9522 40.8217 95.3022 40.925C95.6556 41.025 95.9439 41.1667 96.1672 41.35C96.3939 41.5333 96.5606 41.7533 96.6672 42.01C96.7739 42.2633 96.8272 42.5433 96.8272 42.85C96.8272 43.0933 96.7906 43.3233 96.7172 43.54C96.6472 43.7567 96.5439 43.9533 96.4072 44.13C96.2739 44.3067 96.1072 44.4617 95.9072 44.595C95.7106 44.7283 95.4856 44.8333 95.2322 44.91C95.3189 44.96 95.3989 45.02 95.4722 45.09C95.5456 45.1567 95.6122 45.2367 95.6722 45.33L97.4822 48ZM102.498 46.89V48H98.263V40.77H99.608V46.89H102.498ZM108.169 46.295C108.243 46.295 108.308 46.3233 108.364 46.38L108.894 46.955C108.601 47.3183 108.239 47.5967 107.809 47.79C107.383 47.9833 106.869 48.08 106.269 48.08C105.733 48.08 105.249 47.9883 104.819 47.805C104.393 47.6217 104.028 47.3667 103.724 47.04C103.421 46.7133 103.188 46.3233 103.024 45.87C102.864 45.4167 102.784 44.9217 102.784 44.385C102.784 43.8417 102.871 43.345 103.044 42.895C103.218 42.4417 103.461 42.0517 103.774 41.725C104.091 41.3983 104.468 41.145 104.904 40.965C105.341 40.7817 105.824 40.69 106.354 40.69C106.881 40.69 107.348 40.7767 107.754 40.95C108.164 41.1233 108.513 41.35 108.799 41.63L108.349 42.255C108.323 42.295 108.288 42.33 108.244 42.36C108.204 42.39 108.148 42.405 108.074 42.405C108.024 42.405 107.973 42.3917 107.919 42.365C107.866 42.335 107.808 42.3 107.744 42.26C107.681 42.2167 107.608 42.17 107.524 42.12C107.441 42.07 107.344 42.025 107.234 41.985C107.124 41.9417 106.996 41.9067 106.849 41.88C106.706 41.85 106.539 41.835 106.349 41.835C106.026 41.835 105.729 41.8933 105.459 42.01C105.193 42.1233 104.963 42.29 104.769 42.51C104.576 42.7267 104.426 42.9933 104.319 43.31C104.213 43.6233 104.159 43.9817 104.159 44.385C104.159 44.7917 104.216 45.1533 104.329 45.47C104.446 45.7867 104.603 46.0533 104.799 46.27C104.996 46.4867 105.228 46.6533 105.494 46.77C105.761 46.8833 106.048 46.94 106.354 46.94C106.538 46.94 106.703 46.93 106.849 46.91C106.999 46.89 107.136 46.8583 107.259 46.815C107.386 46.7717 107.504 46.7167 107.614 46.65C107.728 46.58 107.839 46.495 107.949 46.395C107.983 46.365 108.018 46.3417 108.054 46.325C108.091 46.305 108.129 46.295 108.169 46.295ZM113.666 42.085C113.626 42.155 113.582 42.2067 113.536 42.24C113.492 42.27 113.437 42.285 113.371 42.285C113.301 42.285 113.224 42.26 113.141 42.21C113.061 42.1567 112.964 42.0983 112.851 42.035C112.737 41.9717 112.604 41.915 112.451 41.865C112.301 41.8117 112.122 41.785 111.916 41.785C111.729 41.785 111.566 41.8083 111.426 41.855C111.286 41.8983 111.167 41.96 111.071 42.04C110.977 42.12 110.907 42.2167 110.861 42.33C110.814 42.44 110.791 42.5617 110.791 42.695C110.791 42.865 110.837 43.0067 110.931 43.12C111.027 43.2333 111.154 43.33 111.311 43.41C111.467 43.49 111.646 43.5617 111.846 43.625C112.046 43.6883 112.251 43.7567 112.461 43.83C112.671 43.9 112.876 43.9833 113.076 44.08C113.276 44.1733 113.454 44.2933 113.611 44.44C113.767 44.5833 113.892 44.76 113.986 44.97C114.082 45.18 114.131 45.435 114.131 45.735C114.131 46.0617 114.074 46.3683 113.961 46.655C113.851 46.9383 113.687 47.1867 113.471 47.4C113.257 47.61 112.996 47.7767 112.686 47.9C112.376 48.02 112.021 48.08 111.621 48.08C111.391 48.08 111.164 48.0567 110.941 48.01C110.717 47.9667 110.502 47.9033 110.296 47.82C110.092 47.7367 109.901 47.6367 109.721 47.52C109.541 47.4033 109.381 47.2733 109.241 47.13L109.636 46.485C109.669 46.4383 109.712 46.4 109.766 46.37C109.819 46.3367 109.876 46.32 109.936 46.32C110.019 46.32 110.109 46.355 110.206 46.425C110.302 46.4917 110.417 46.5667 110.551 46.65C110.684 46.7333 110.839 46.81 111.016 46.88C111.196 46.9467 111.411 46.98 111.661 46.98C112.044 46.98 112.341 46.89 112.551 46.71C112.761 46.5267 112.866 46.265 112.866 45.925C112.866 45.735 112.817 45.58 112.721 45.46C112.627 45.34 112.502 45.24 112.346 45.16C112.189 45.0767 112.011 45.0067 111.811 44.95C111.611 44.8933 111.407 44.8317 111.201 44.765C110.994 44.6983 110.791 44.6183 110.591 44.525C110.391 44.4317 110.212 44.31 110.056 44.16C109.899 44.01 109.772 43.8233 109.676 43.6C109.582 43.3733 109.536 43.095 109.536 42.765C109.536 42.5017 109.587 42.245 109.691 41.995C109.797 41.745 109.951 41.5233 110.151 41.33C110.351 41.1367 110.597 40.9817 110.891 40.865C111.184 40.7483 111.521 40.69 111.901 40.69C112.327 40.69 112.721 40.7567 113.081 40.89C113.441 41.0233 113.747 41.21 114.001 41.45L113.666 42.085ZM127.287 40.77L125.042 48H123.827L122.247 43.06C122.204 42.94 122.164 42.7933 122.127 42.62C122.107 42.7033 122.087 42.7817 122.067 42.855C122.047 42.9283 122.026 42.9967 122.002 43.06L120.407 48H119.187L116.947 40.77H118.072C118.189 40.77 118.286 40.7983 118.362 40.855C118.442 40.9083 118.496 40.9817 118.522 41.075L119.752 45.4C119.779 45.5067 119.804 45.6233 119.827 45.75C119.854 45.8733 119.881 46.0033 119.907 46.14C119.934 46 119.962 45.8683 119.992 45.745C120.026 45.6217 120.061 45.5067 120.097 45.4L121.517 41.075C121.544 40.9983 121.596 40.9283 121.672 40.865C121.752 40.8017 121.849 40.77 121.962 40.77H122.357C122.474 40.77 122.569 40.7983 122.642 40.855C122.716 40.9117 122.771 40.985 122.807 41.075L124.222 45.4C124.292 45.6067 124.356 45.845 124.412 46.115C124.456 45.8517 124.504 45.6133 124.557 45.4L125.787 41.075C125.807 40.9917 125.857 40.92 125.937 40.86C126.021 40.8 126.119 40.77 126.232 40.77H127.287ZM134.924 44.385C134.924 44.915 134.835 45.4067 134.659 45.86C134.485 46.31 134.239 46.7 133.919 47.03C133.599 47.36 133.214 47.6183 132.764 47.805C132.314 47.9883 131.814 48.08 131.264 48.08C130.717 48.08 130.219 47.9883 129.769 47.805C129.319 47.6183 128.932 47.36 128.609 47.03C128.289 46.7 128.04 46.31 127.864 45.86C127.687 45.4067 127.599 44.915 127.599 44.385C127.599 43.855 127.687 43.365 127.864 42.915C128.04 42.4617 128.289 42.07 128.609 41.74C128.932 41.41 129.319 41.1533 129.769 40.97C130.219 40.7833 130.717 40.69 131.264 40.69C131.63 40.69 131.975 40.7333 132.299 40.82C132.622 40.9033 132.919 41.0233 133.189 41.18C133.459 41.3333 133.7 41.5217 133.914 41.745C134.13 41.965 134.314 42.2117 134.464 42.485C134.614 42.7583 134.727 43.055 134.804 43.375C134.884 43.695 134.924 44.0317 134.924 44.385ZM133.549 44.385C133.549 43.9883 133.495 43.6333 133.389 43.32C133.282 43.0033 133.13 42.735 132.934 42.515C132.737 42.295 132.497 42.1267 132.214 42.01C131.934 41.8933 131.617 41.835 131.264 41.835C130.91 41.835 130.592 41.8933 130.309 42.01C130.029 42.1267 129.789 42.295 129.589 42.515C129.392 42.735 129.24 43.0033 129.134 43.32C129.027 43.6333 128.974 43.9883 128.974 44.385C128.974 44.7817 129.027 45.1383 129.134 45.455C129.24 45.7683 129.392 46.035 129.589 46.255C129.789 46.4717 130.029 46.6383 130.309 46.755C130.592 46.8717 130.91 46.93 131.264 46.93C131.617 46.93 131.934 46.8717 132.214 46.755C132.497 46.6383 132.737 46.4717 132.934 46.255C133.13 46.035 133.282 45.7683 133.389 45.455C133.495 45.1383 133.549 44.7817 133.549 44.385ZM138.29 44.21C138.543 44.21 138.763 44.1783 138.95 44.115C139.14 44.0517 139.295 43.965 139.415 43.855C139.538 43.7417 139.63 43.6083 139.69 43.455C139.75 43.3017 139.78 43.1333 139.78 42.95C139.78 42.5833 139.658 42.3017 139.415 42.105C139.175 41.9083 138.806 41.81 138.31 41.81H137.45V44.21H138.29ZM141.75 48H140.535C140.305 48 140.138 47.91 140.035 47.73L138.515 45.415C138.458 45.3283 138.395 45.2667 138.325 45.23C138.258 45.1933 138.158 45.175 138.025 45.175H137.45V48H136.105V40.77H138.31C138.8 40.77 139.22 40.8217 139.57 40.925C139.923 41.025 140.211 41.1667 140.435 41.35C140.661 41.5333 140.828 41.7533 140.935 42.01C141.041 42.2633 141.095 42.5433 141.095 42.85C141.095 43.0933 141.058 43.3233 140.985 43.54C140.915 43.7567 140.811 43.9533 140.675 44.13C140.541 44.3067 140.375 44.4617 140.175 44.595C139.978 44.7283 139.753 44.8333 139.5 44.91C139.586 44.96 139.666 45.02 139.74 45.09C139.813 45.1567 139.88 45.2367 139.94 45.33L141.75 48ZM146.766 46.89V48H142.531V40.77H143.876V46.89H146.766ZM154.146 44.385C154.146 44.915 154.058 45.4017 153.881 45.845C153.704 46.2883 153.456 46.67 153.136 46.99C152.816 47.31 152.431 47.5583 151.981 47.735C151.531 47.9117 151.031 48 150.481 48H147.726V40.77H150.481C151.031 40.77 151.531 40.86 151.981 41.04C152.431 41.2167 152.816 41.465 153.136 41.785C153.456 42.1017 153.704 42.4817 153.881 42.925C154.058 43.3683 154.146 43.855 154.146 44.385ZM152.766 44.385C152.766 43.9883 152.713 43.6333 152.606 43.32C152.503 43.0033 152.351 42.7367 152.151 42.52C151.954 42.3 151.714 42.1317 151.431 42.015C151.151 41.8983 150.834 41.84 150.481 41.84H149.076V46.93H150.481C150.834 46.93 151.151 46.8717 151.431 46.755C151.714 46.6383 151.954 46.4717 152.151 46.255C152.351 46.035 152.503 45.7683 152.606 45.455C152.713 45.1383 152.766 44.7817 152.766 44.385ZM162.73 46.295C162.803 46.295 162.868 46.3233 162.925 46.38L163.455 46.955C163.162 47.3183 162.8 47.5967 162.37 47.79C161.943 47.9833 161.43 48.08 160.83 48.08C160.293 48.08 159.81 47.9883 159.38 47.805C158.953 47.6217 158.588 47.3667 158.285 47.04C157.982 46.7133 157.748 46.3233 157.585 45.87C157.425 45.4167 157.345 44.9217 157.345 44.385C157.345 43.8417 157.432 43.345 157.605 42.895C157.778 42.4417 158.022 42.0517 158.335 41.725C158.652 41.3983 159.028 41.145 159.465 40.965C159.902 40.7817 160.385 40.69 160.915 40.69C161.442 40.69 161.908 40.7767 162.315 40.95C162.725 41.1233 163.073 41.35 163.36 41.63L162.91 42.255C162.883 42.295 162.848 42.33 162.805 42.36C162.765 42.39 162.708 42.405 162.635 42.405C162.585 42.405 162.533 42.3917 162.48 42.365C162.427 42.335 162.368 42.3 162.305 42.26C162.242 42.2167 162.168 42.17 162.085 42.12C162.002 42.07 161.905 42.025 161.795 41.985C161.685 41.9417 161.557 41.9067 161.41 41.88C161.267 41.85 161.1 41.835 160.91 41.835C160.587 41.835 160.29 41.8933 160.02 42.01C159.753 42.1233 159.523 42.29 159.33 42.51C159.137 42.7267 158.987 42.9933 158.88 43.31C158.773 43.6233 158.72 43.9817 158.72 44.385C158.72 44.7917 158.777 45.1533 158.89 45.47C159.007 45.7867 159.163 46.0533 159.36 46.27C159.557 46.4867 159.788 46.6533 160.055 46.77C160.322 46.8833 160.608 46.94 160.915 46.94C161.098 46.94 161.263 46.93 161.41 46.91C161.56 46.89 161.697 46.8583 161.82 46.815C161.947 46.7717 162.065 46.7167 162.175 46.65C162.288 46.58 162.4 46.495 162.51 46.395C162.543 46.365 162.578 46.3417 162.615 46.325C162.652 46.305 162.69 46.295 162.73 46.295ZM170.471 40.77V48H169.121V44.84H165.726V48H164.376V40.77H165.726V43.88H169.121V40.77H170.471ZM175.901 45.27L175.021 42.865C174.978 42.7583 174.933 42.6317 174.886 42.485C174.84 42.3383 174.793 42.18 174.746 42.01C174.703 42.18 174.658 42.34 174.611 42.49C174.565 42.6367 174.52 42.765 174.476 42.875L173.601 45.27H175.901ZM178.276 48H177.236C177.12 48 177.025 47.9717 176.951 47.915C176.878 47.855 176.823 47.7817 176.786 47.695L176.246 46.22H173.251L172.711 47.695C172.685 47.7717 172.633 47.8417 172.556 47.905C172.48 47.9683 172.385 48 172.271 48H171.221L174.066 40.77H175.436L178.276 48ZM186.865 40.77V48H185.68V43.33C185.68 43.1433 185.69 42.9417 185.71 42.725L183.525 46.83C183.421 47.0267 183.263 47.125 183.05 47.125H182.86C182.646 47.125 182.488 47.0267 182.385 46.83L180.175 42.71C180.185 42.82 180.193 42.9283 180.2 43.035C180.206 43.1417 180.21 43.24 180.21 43.33V48H179.025V40.77H180.04C180.1 40.77 180.151 40.7717 180.195 40.775C180.238 40.7783 180.276 40.7867 180.31 40.8C180.346 40.8133 180.378 40.835 180.405 40.865C180.435 40.895 180.463 40.935 180.49 40.985L182.655 45C182.711 45.1067 182.763 45.2167 182.81 45.33C182.86 45.4433 182.908 45.56 182.955 45.68C183.001 45.5567 183.05 45.4383 183.1 45.325C183.15 45.2083 183.203 45.0967 183.26 44.99L185.395 40.985C185.421 40.935 185.45 40.895 185.48 40.865C185.51 40.835 185.541 40.8133 185.575 40.8C185.611 40.7867 185.651 40.7783 185.695 40.775C185.738 40.7717 185.79 40.77 185.85 40.77H186.865ZM190.828 44.405C191.075 44.405 191.29 44.375 191.473 44.315C191.656 44.2517 191.808 44.1633 191.928 44.05C192.051 43.9333 192.143 43.7933 192.203 43.63C192.263 43.4633 192.293 43.2783 192.293 43.075C192.293 42.8817 192.263 42.7067 192.203 42.55C192.143 42.3933 192.053 42.26 191.933 42.15C191.813 42.04 191.661 41.9567 191.478 41.9C191.295 41.84 191.078 41.81 190.828 41.81H189.823V44.405H190.828ZM190.828 40.77C191.311 40.77 191.73 40.8267 192.083 40.94C192.436 41.0533 192.728 41.2117 192.958 41.415C193.188 41.6183 193.358 41.8617 193.468 42.145C193.581 42.4283 193.638 42.7383 193.638 43.075C193.638 43.425 193.58 43.7467 193.463 44.04C193.346 44.33 193.171 44.58 192.938 44.79C192.705 45 192.411 45.1633 192.058 45.28C191.708 45.3967 191.298 45.455 190.828 45.455H189.823V48H188.478V40.77H190.828ZM196.019 48H194.669V40.77H196.019V48ZM204.533 44.385C204.533 44.915 204.445 45.4067 204.268 45.86C204.095 46.31 203.848 46.7 203.528 47.03C203.208 47.36 202.823 47.6183 202.373 47.805C201.923 47.9883 201.423 48.08 200.873 48.08C200.326 48.08 199.828 47.9883 199.378 47.805C198.928 47.6183 198.541 47.36 198.218 47.03C197.898 46.7 197.65 46.31 197.473 45.86C197.296 45.4067 197.208 44.915 197.208 44.385C197.208 43.855 197.296 43.365 197.473 42.915C197.65 42.4617 197.898 42.07 198.218 41.74C198.541 41.41 198.928 41.1533 199.378 40.97C199.828 40.7833 200.326 40.69 200.873 40.69C201.24 40.69 201.585 40.7333 201.908 40.82C202.231 40.9033 202.528 41.0233 202.798 41.18C203.068 41.3333 203.31 41.5217 203.523 41.745C203.74 41.965 203.923 42.2117 204.073 42.485C204.223 42.7583 204.336 43.055 204.413 43.375C204.493 43.695 204.533 44.0317 204.533 44.385ZM203.158 44.385C203.158 43.9883 203.105 43.6333 202.998 43.32C202.891 43.0033 202.74 42.735 202.543 42.515C202.346 42.295 202.106 42.1267 201.823 42.01C201.543 41.8933 201.226 41.835 200.873 41.835C200.52 41.835 200.201 41.8933 199.918 42.01C199.638 42.1267 199.398 42.295 199.198 42.515C199.001 42.735 198.85 43.0033 198.743 43.32C198.636 43.6333 198.583 43.9883 198.583 44.385C198.583 44.7817 198.636 45.1383 198.743 45.455C198.85 45.7683 199.001 46.035 199.198 46.255C199.398 46.4717 199.638 46.6383 199.918 46.755C200.201 46.8717 200.52 46.93 200.873 46.93C201.226 46.93 201.543 46.8717 201.823 46.755C202.106 46.6383 202.346 46.4717 202.543 46.255C202.74 46.035 202.891 45.7683 202.998 45.455C203.105 45.1383 203.158 44.7817 203.158 44.385ZM211.809 40.77V48H211.119C211.013 48 210.923 47.9833 210.849 47.95C210.779 47.9133 210.711 47.8533 210.644 47.77L206.869 42.95C206.889 43.17 206.899 43.3733 206.899 43.56V48H205.714V40.77H206.419C206.476 40.77 206.524 40.7733 206.564 40.78C206.608 40.7833 206.644 40.7933 206.674 40.81C206.708 40.8233 206.739 40.845 206.769 40.875C206.799 40.9017 206.833 40.9383 206.869 40.985L210.659 45.825C210.649 45.7083 210.641 45.5933 210.634 45.48C210.628 45.3667 210.624 45.2617 210.624 45.165V40.77H211.809ZM217.269 42.085C217.229 42.155 217.186 42.2067 217.139 42.24C217.096 42.27 217.041 42.285 216.974 42.285C216.904 42.285 216.828 42.26 216.744 42.21C216.664 42.1567 216.568 42.0983 216.454 42.035C216.341 41.9717 216.208 41.915 216.054 41.865C215.904 41.8117 215.726 41.785 215.519 41.785C215.333 41.785 215.169 41.8083 215.029 41.855C214.889 41.8983 214.771 41.96 214.674 42.04C214.581 42.12 214.511 42.2167 214.464 42.33C214.418 42.44 214.394 42.5617 214.394 42.695C214.394 42.865 214.441 43.0067 214.534 43.12C214.631 43.2333 214.758 43.33 214.914 43.41C215.071 43.49 215.249 43.5617 215.449 43.625C215.649 43.6883 215.854 43.7567 216.064 43.83C216.274 43.9 216.479 43.9833 216.679 44.08C216.879 44.1733 217.058 44.2933 217.214 44.44C217.371 44.5833 217.496 44.76 217.589 44.97C217.686 45.18 217.734 45.435 217.734 45.735C217.734 46.0617 217.678 46.3683 217.564 46.655C217.454 46.9383 217.291 47.1867 217.074 47.4C216.861 47.61 216.599 47.7767 216.289 47.9C215.979 48.02 215.624 48.08 215.224 48.08C214.994 48.08 214.768 48.0567 214.544 48.01C214.321 47.9667 214.106 47.9033 213.899 47.82C213.696 47.7367 213.504 47.6367 213.324 47.52C213.144 47.4033 212.984 47.2733 212.844 47.13L213.239 46.485C213.273 46.4383 213.316 46.4 213.369 46.37C213.423 46.3367 213.479 46.32 213.539 46.32C213.623 46.32 213.713 46.355 213.809 46.425C213.906 46.4917 214.021 46.5667 214.154 46.65C214.288 46.7333 214.443 46.81 214.619 46.88C214.799 46.9467 215.014 46.98 215.264 46.98C215.648 46.98 215.944 46.89 216.154 46.71C216.364 46.5267 216.469 46.265 216.469 45.925C216.469 45.735 216.421 45.58 216.324 45.46C216.231 45.34 216.106 45.24 215.949 45.16C215.793 45.0767 215.614 45.0067 215.414 44.95C215.214 44.8933 215.011 44.8317 214.804 44.765C214.598 44.6983 214.394 44.6183 214.194 44.525C213.994 44.4317 213.816 44.31 213.659 44.16C213.503 44.01 213.376 43.8233 213.279 43.6C213.186 43.3733 213.139 43.095 213.139 42.765C213.139 42.5017 213.191 42.245 213.294 41.995C213.401 41.745 213.554 41.5233 213.754 41.33C213.954 41.1367 214.201 40.9817 214.494 40.865C214.788 40.7483 215.124 40.69 215.504 40.69C215.931 40.69 216.324 40.7567 216.684 40.89C217.044 41.0233 217.351 41.21 217.604 41.45L217.269 42.085ZM225.003 40.77V48H223.653V44.84H220.258V48H218.908V40.77H220.258V43.88H223.653V40.77H225.003ZM227.963 48H226.613V40.77H227.963V48ZM231.931 44.405C232.178 44.405 232.393 44.375 232.576 44.315C232.76 44.2517 232.911 44.1633 233.031 44.05C233.155 43.9333 233.246 43.7933 233.306 43.63C233.366 43.4633 233.396 43.2783 233.396 43.075C233.396 42.8817 233.366 42.7067 233.306 42.55C233.246 42.3933 233.156 42.26 233.036 42.15C232.916 42.04 232.765 41.9567 232.581 41.9C232.398 41.84 232.181 41.81 231.931 41.81H230.926V44.405H231.931ZM231.931 40.77C232.415 40.77 232.833 40.8267 233.186 40.94C233.54 41.0533 233.831 41.2117 234.061 41.415C234.291 41.6183 234.461 41.8617 234.571 42.145C234.685 42.4283 234.741 42.7383 234.741 43.075C234.741 43.425 234.683 43.7467 234.566 44.04C234.45 44.33 234.275 44.58 234.041 44.79C233.808 45 233.515 45.1633 233.161 45.28C232.811 45.3967 232.401 45.455 231.931 45.455H230.926V48H229.581V40.77H231.931Z" fill="white"/>
</g>
<defs>
<filter id="filter0_i_26_314" x="0" y="0" width="334" height="207" filterUnits="userSpaceOnUse" color-interpolation-filters="sRGB">
<feFlood flood-opacity="0" result="BackgroundImageFix"/>
<feBlend mode="normal" in="SourceGraphic" in2="BackgroundImageFix" result="shape"/>
<feColorMatrix in="SourceAlpha" type="matrix" values="0 0 0 0 0 0 0 0 0 0 0 0 0 0 0 0 0 0 127 0" result="hardAlpha"/>
<feOffset dx="8" dy="4"/>
<feGaussianBlur stdDeviation="1.5"/>
<feComposite in2="hardAlpha" operator="arithmetic" k2="-1" k3="1"/>
<feColorMatrix type="matrix" values="0 0 0 0 0 0 0 0 0 0 0 0 0 0 0 0 0 0 0.25 0"/>
<feBlend mode="normal" in2="shape" result="effect1_innerShadow_26_314"/>
</filter>
<filter id="filter1_d_26_314" x="140.144" y="121.462" width="43.9232" height="19.538" filterUnits="userSpaceOnUse" color-interpolation-filters="sRGB">
<feFlood flood-opacity="0" result="BackgroundImageFix"/>
<feColorMatrix in="SourceAlpha" type="matrix" values="0 0 0 0 0 0 0 0 0 0 0 0 0 0 0 0 0 0 127 0" result="hardAlpha"/>
<feOffset dy="4"/>
<feGaussianBlur stdDeviation="2"/>
<feComposite in2="hardAlpha" operator="out"/>
<feColorMatrix type="matrix" values="0 0 0 0 0 0 0 0 0 0 0 0 0 0 0 0 0 0 0.7 0"/>
<feBlend mode="normal" in2="BackgroundImageFix" result="effect1_dropShadow_26_314"/>
<feBlend mode="normal" in="SourceGraphic" in2="effect1_dropShadow_26_314" result="shape"/>
</filter>
<filter id="filter2_d_26_314" x="153.81" y="99.178" width="16.388" height="10.1061" filterUnits="userSpaceOnUse" color-interpolation-filters="sRGB">
<feFlood flood-opacity="0" result="BackgroundImageFix"/>
<feColorMatrix in="SourceAlpha" type="matrix" values="0 0 0 0 0 0 0 0 0 0 0 0 0 0 0 0 0 0 127 0" result="hardAlpha"/>
<feOffset dy="4"/>
<feGaussianBlur stdDeviation="2"/>
<feComposite in2="hardAlpha" operator="out"/>
<feColorMatrix type="matrix" values="0 0 0 0 0 0 0 0 0 0 0 0 0 0 0 0 0 0 0.7 0"/>
<feBlend mode="normal" in2="BackgroundImageFix" result="effect1_dropShadow_26_314"/>
<feBlend mode="normal" in="SourceGraphic" in2="effect1_dropShadow_26_314" result="shape"/>
</filter>
<filter id="filter3_d_26_314" x="127.116" y="94.462" width="23.7679" height="19.538" filterUnits="userSpaceOnUse" color-interpolation-filters="sRGB">
<feFlood flood-opacity="0" result="BackgroundImageFix"/>
<feColorMatrix in="SourceAlpha" type="matrix" values="0 0 0 0 0 0 0 0 0 0 0 0 0 0 0 0 0 0 127 0" result="hardAlpha"/>
<feOffset dy="4"/>
<feGaussianBlur stdDeviation="2"/>
<feComposite in2="hardAlpha" operator="out"/>
<feColorMatrix type="matrix" values="0 0 0 0 0 0 0 0 0 0 0 0 0 0 0 0 0 0 0.7 0"/>
<feBlend mode="normal" in2="BackgroundImageFix" result="effect1_dropShadow_26_314"/>
<feBlend mode="normal" in="SourceGraphic" in2="effect1_dropShadow_26_314" result="shape"/>
</filter>
<filter id="filter4_d_26_314" x="172.026" y="94.462" width="25.838" height="19.538" filterUnits="userSpaceOnUse" color-interpolation-filters="sRGB">
<feFlood flood-opacity="0" result="BackgroundImageFix"/>
<feColorMatrix in="SourceAlpha" type="matrix" values="0 0 0 0 0 0 0 0 0 0 0 0 0 0 0 0 0 0 127 0" result="hardAlpha"/>
<feOffset dy="4"/>
<feGaussianBlur stdDeviation="2"/>
<feComposite in2="hardAlpha" operator="out"/>
<feColorMatrix type="matrix" values="0 0 0 0 0 0 0 0 0 0 0 0 0 0 0 0 0 0 0.7 0"/>
<feBlend mode="normal" in2="BackgroundImageFix" result="effect1_dropShadow_26_314"/>
<feBlend mode="normal" in="SourceGraphic" in2="effect1_dropShadow_26_314" result="shape"/>
</filter>
<filter id="filter5_d_26_314" x="96.4052" y="22.304" width="133.858" height="19.8241" filterUnits="userSpaceOnUse" color-interpolation-filters="sRGB">
<feFlood flood-opacity="0" result="BackgroundImageFix"/>
<feColorMatrix in="SourceAlpha" type="matrix" values="0 0 0 0 0 0 0 0 0 0 0 0 0 0 0 0 0 0 127 0" result="hardAlpha"/>
<feOffset dy="4"/>
<feGaussianBlur stdDeviation="2"/>
<feComposite in2="hardAlpha" operator="out"/>
<feColorMatrix type="matrix" values="0 0 0 0 0 0 0 0 0 0 0 0 0 0 0 0 0 0 0.7 0"/>
<feBlend mode="normal" in2="BackgroundImageFix" result="effect1_dropShadow_26_314"/>
<feBlend mode="normal" in="SourceGraphic" in2="effect1_dropShadow_26_314" result="shape"/>
</filter>
<filter id="filter6_d_26_314" x="87.8372" y="40.6899" width="150.904" height="15.39" filterUnits="userSpaceOnUse" color-interpolation-filters="sRGB">
<feFlood flood-opacity="0" result="BackgroundImageFix"/>
<feColorMatrix in="SourceAlpha" type="matrix" values="0 0 0 0 0 0 0 0 0 0 0 0 0 0 0 0 0 0 127 0" result="hardAlpha"/>
<feOffset dy="4"/>
<feGaussianBlur stdDeviation="2"/>
<feComposite in2="hardAlpha" operator="out"/>
<feColorMatrix type="matrix" values="0 0 0 0 0 0 0 0 0 0 0 0 0 0 0 0 0 0 0.7 0"/>
<feBlend mode="normal" in2="BackgroundImageFix" result="effect1_dropShadow_26_314"/>
<feBlend mode="normal" in="SourceGraphic" in2="effect1_dropShadow_26_314" result="shape"/>
</filter>
</defs>
</svg>
