<svg width="27" height="22" viewBox="0 0 27 22" fill="none" xmlns="http://www.w3.org/2000/svg">
<path d="M21.1873 17.6C19.7455 17.6 18.5894 18.579 18.5894 19.8C18.5894 20.3835 18.8631 20.9431 19.3503 21.3556C19.8375 21.7682 20.4983 22 21.1873 22C21.8763 22 22.5371 21.7682 23.0242 21.3556C23.5114 20.9431 23.7851 20.3835 23.7851 19.8C23.7851 19.2165 23.5114 18.6569 23.0242 18.2444C22.5371 17.8318 21.8763 17.6 21.1873 17.6ZM0.404297 0V2.2H3.00217L7.67834 10.549L5.91179 13.244C5.71695 13.552 5.60004 13.915 5.60004 14.3C5.60004 14.8835 5.87374 15.4431 6.36094 15.8556C6.84814 16.2682 7.50891 16.5 8.19791 16.5H23.7851V14.3H8.74347C8.65734 14.3 8.57474 14.271 8.51385 14.2195C8.45295 14.1679 8.41873 14.0979 8.41873 14.025C8.41873 13.97 8.43172 13.926 8.4577 13.893L9.62674 12.1H19.3038C20.278 12.1 21.1353 11.638 21.577 10.967L26.2271 3.85C26.3181 3.674 26.383 3.487 26.383 3.3C26.383 3.00826 26.2462 2.72847 26.0026 2.52218C25.759 2.31589 25.4286 2.2 25.0841 2.2H5.87282L4.65182 0M8.19791 17.6C6.75609 17.6 5.60004 18.579 5.60004 19.8C5.60004 20.3835 5.87374 20.9431 6.36094 21.3556C6.84814 21.7682 7.50891 22 8.19791 22C8.88691 22 9.54769 21.7682 10.0349 21.3556C10.5221 20.9431 10.7958 20.3835 10.7958 19.8C10.7958 19.2165 10.5221 18.6569 10.0349 18.2444C9.54769 17.8318 8.88691 17.6 8.19791 17.6Z" fill="white"/>
</svg>
