<svg width="20" height="20" viewBox="0 0 20 20" fill="none" xmlns="http://www.w3.org/2000/svg">
<path d="M4.6875 8.125C4.60462 8.125 4.52513 8.15792 4.46653 8.21653C4.40792 8.27513 4.375 8.35462 4.375 8.4375V16.5625C4.375 16.735 4.515 16.875 4.6875 16.875H15.3125C15.3954 16.875 15.4749 16.8421 15.5335 16.7835C15.5921 16.7249 15.625 16.6454 15.625 16.5625V8.4375C15.625 8.35462 15.5921 8.27513 15.5335 8.21653C15.4749 8.15792 15.3954 8.125 15.3125 8.125H14.0625C13.8139 8.125 13.5754 8.02623 13.3996 7.85041C13.2238 7.6746 13.125 7.43614 13.125 7.1875C13.125 6.93886 13.2238 6.7004 13.3996 6.52459C13.5754 6.34877 13.8139 6.25 14.0625 6.25H15.3125C16.52 6.25 17.5 7.23 17.5 8.4375V16.5625C17.5 17.1427 17.2695 17.6991 16.8593 18.1093C16.4491 18.5195 15.8927 18.75 15.3125 18.75H4.6875C4.10734 18.75 3.55094 18.5195 3.1407 18.1093C2.73047 17.6991 2.5 17.1427 2.5 16.5625V8.4375C2.5 7.23 3.48 6.25 4.6875 6.25H5.9375C6.18614 6.25 6.4246 6.34877 6.60041 6.52459C6.77623 6.7004 6.875 6.93886 6.875 7.1875C6.875 7.43614 6.77623 7.6746 6.60041 7.85041C6.4246 8.02623 6.18614 8.125 5.9375 8.125H4.6875ZM9.77875 0.221249C9.80778 0.192147 9.84226 0.169058 9.88023 0.153304C9.91819 0.13755 9.9589 0.12944 10 0.12944C10.0411 0.12944 10.0818 0.13755 10.1198 0.153304C10.1577 0.169058 10.1922 0.192147 10.2213 0.221249L13.8412 3.84125C13.8851 3.88495 13.9149 3.94069 13.927 4.00138C13.9391 4.06207 13.9329 4.12499 13.9092 4.18216C13.8855 4.23933 13.8454 4.28818 13.7939 4.32251C13.7424 4.35684 13.6819 4.37511 13.62 4.375H10.9375V11.5625C10.9375 11.8111 10.8387 12.0496 10.6629 12.2254C10.4871 12.4012 10.2486 12.5 10 12.5C9.75136 12.5 9.5129 12.4012 9.33709 12.2254C9.16127 12.0496 9.0625 11.8111 9.0625 11.5625V4.375H6.38C6.31811 4.37511 6.25758 4.35684 6.20609 4.32251C6.1546 4.28818 6.11446 4.23933 6.09076 4.18216C6.06706 4.12499 6.06087 4.06207 6.07298 4.00138C6.08508 3.94069 6.11493 3.88495 6.15875 3.84125L9.77875 0.221249Z" fill="black"/>
</svg>
