<svg width="34" height="24" viewBox="0 0 34 24" fill="none" xmlns="http://www.w3.org/2000/svg">
<path d="M17.0985 12.5C15.8446 12.5 14.642 12.8687 13.7554 13.5251C12.8687 14.1815 12.3706 15.0717 12.3706 16C12.3706 16.9283 12.8687 17.8185 13.7554 18.4749C14.642 19.1313 15.8446 19.5 17.0985 19.5C18.3524 19.5 19.5549 19.1313 20.4416 18.4749C21.3282 17.8185 21.8264 16.9283 21.8264 16C21.8264 15.0717 21.3282 14.1815 20.4416 13.5251C19.5549 12.8687 18.3524 12.5 17.0985 12.5ZM15.0722 16C15.0722 15.6022 15.2857 15.2206 15.6657 14.9393C16.0457 14.658 16.5611 14.5 17.0985 14.5C17.6359 14.5 18.1513 14.658 18.5312 14.9393C18.9112 15.2206 19.1247 15.6022 19.1247 16C19.1247 16.3978 18.9112 16.7794 18.5312 17.0607C18.1513 17.342 17.6359 17.5 17.0985 17.5C16.5611 17.5 16.0457 17.342 15.6657 17.0607C15.2857 16.7794 15.0722 16.3978 15.0722 16Z" fill="white"/>
<path d="M24.5633 5.116L20.2691 0.658997L4.47929 9.997L3.60396 9.99V10H2.91504V22H31.2823V10H29.9828L27.3973 4.401L24.5633 5.116ZM27.1285 10H13.5825L23.6718 7.454L25.7277 6.967L27.1285 10ZM21.8941 5.79L11.4793 8.418L19.7274 3.54L21.8941 5.79ZM5.61668 18.169V13.829C6.18659 13.6795 6.70424 13.4377 7.13189 13.1213C7.55955 12.8049 7.88642 12.4218 8.08869 12H26.1087C26.3108 12.422 26.6377 12.8052 27.0653 13.1218C27.493 13.4384 28.0107 13.6803 28.5807 13.83V18.17C28.0107 18.3197 27.493 18.5616 27.0653 18.8782C26.6377 19.1948 26.3108 19.578 26.1087 20H8.09139C7.88901 19.5777 7.56182 19.1941 7.13368 18.8774C6.70555 18.5606 6.18727 18.3186 5.61668 18.169Z" fill="white"/>
</svg>
