<svg width="65" height="46" viewBox="0 0 65 46" fill="none" xmlns="http://www.w3.org/2000/svg">
<g clip-path="url(#clip0_307_446)" filter="url(#filter0_d_307_446)">
<path d="M4.44678 5.21085C4.44678 2.63022 6.53879 0.538208 9.11942 0.538208H55.8459C58.4265 0.538208 60.5185 2.63022 60.5185 5.21085V33.2467C60.5185 35.8273 58.4265 37.9194 55.8459 37.9194H9.11942C6.53879 37.9194 4.44678 35.8273 4.44678 33.2467V5.21085Z" fill="#18191B"/>
<path d="M31.2176 20.4847V25.886H29.4922V12.5472H34.0684C34.6147 12.5358 35.1577 12.632 35.6663 12.8302C36.175 13.0284 36.639 13.3247 37.0317 13.7019C37.4284 14.0563 37.7441 14.4908 37.9576 14.9763C38.1711 15.4619 38.2774 15.9872 38.2695 16.517C38.2809 17.0496 38.1762 17.5783 37.9625 18.067C37.7488 18.5556 37.4313 18.9926 37.0317 19.348C36.2315 20.1058 35.2437 20.4843 34.0684 20.4836H31.2176V20.4847ZM31.2176 14.1894V18.8457H34.1113C34.4285 18.855 34.7442 18.7985 35.0382 18.6797C35.3322 18.561 35.5979 18.3826 35.8185 18.156C36.038 17.9441 36.2124 17.6907 36.3315 17.4108C36.4506 17.1308 36.512 16.83 36.512 16.526C36.512 16.2221 36.4506 15.9213 36.3315 15.6413C36.2124 15.3613 36.038 15.1079 35.8185 14.8961C35.6007 14.6647 35.3358 14.4819 35.0415 14.3599C34.7472 14.2379 34.4301 14.1794 34.1113 14.1883H31.2176V14.1894Z" fill="#E4E5E7"/>
<path d="M42.246 16.4615C43.5213 16.4615 44.528 16.8 45.2661 17.4769C46.0041 18.1538 46.3728 19.0818 46.3721 20.2611V25.8859H44.7216V24.6194H44.6466C43.9321 25.6624 42.9819 26.1839 41.7959 26.1839C40.7834 26.1839 39.9364 25.8859 39.2548 25.2899C38.9277 25.0163 38.6662 24.6738 38.4893 24.2871C38.3124 23.9005 38.2247 23.4795 38.2324 23.0549C38.2324 22.1105 38.5918 21.3594 39.3105 20.8018C40.0293 20.2441 40.9889 19.9645 42.1892 19.9631C43.2137 19.9631 44.0575 20.1493 44.7206 20.5218V20.1302C44.7225 19.8407 44.6596 19.5544 44.5363 19.2921C44.413 19.0298 44.2325 18.798 44.0079 18.6136C43.5516 18.2047 42.9569 17.9817 42.3424 17.9888C41.3786 17.9888 40.6159 18.3925 40.0543 19.2L38.5346 18.2496C39.3706 17.0576 40.6077 16.4615 42.246 16.4615ZM40.0136 23.0921C40.0124 23.3102 40.0638 23.5254 40.1633 23.7198C40.2629 23.9142 40.4077 24.0821 40.5859 24.2096C40.9675 24.5077 41.4412 24.6657 41.9266 24.6566C42.6547 24.6554 43.3527 24.3676 43.8675 23.8563C44.4391 23.322 44.7249 22.6951 44.7249 21.9757C44.1869 21.55 43.4367 21.3371 42.4743 21.3371C41.7734 21.3371 41.1889 21.5049 40.7209 21.8405C40.2483 22.1811 40.0136 22.5951 40.0136 23.0921Z" fill="#E4E5E7"/>
<path d="M55.8455 16.7596L50.084 29.909H48.3028L50.4409 25.3081L46.6523 16.7596H48.5278L51.2661 23.3157H51.3036L53.9668 16.7596H55.8455Z" fill="#E4E5E7"/>
<path d="M24.2453 19.3203C24.2459 18.7981 24.2015 18.2769 24.1124 17.7622H16.8354V20.7135H21.0033C20.9181 21.1849 20.7375 21.6342 20.4727 22.0344C20.2078 22.4346 19.8641 22.7774 19.4622 23.0422V24.9579H21.9497C23.4061 23.6244 24.2453 21.6522 24.2453 19.3203Z" fill="#4285F4"/>
<path d="M16.8348 26.8088C18.9171 26.8088 20.6704 26.1297 21.949 24.959L19.4615 23.0433C18.7692 23.5094 17.8776 23.7755 16.8348 23.7755C14.8221 23.7755 13.1138 22.4281 12.5029 20.6124H9.94043V22.5867C10.5827 23.8559 11.5675 24.9228 12.7849 25.6683C14.0023 26.4139 15.4045 26.8087 16.8348 26.8088Z" fill="#34A853"/>
<path d="M12.5033 20.6124C12.1803 19.661 12.1803 18.6307 12.5033 17.6792V15.705H9.94079C9.40052 16.7726 9.11914 17.9509 9.11914 19.1458C9.11914 20.3407 9.40052 21.5191 9.94079 22.5867L12.5033 20.6124Z" fill="#FBBC04"/>
<path d="M16.8348 14.5161C17.9352 14.4982 18.9985 14.9111 19.7948 15.6655L21.9972 13.4784C20.6007 12.1757 18.7506 11.4606 16.8348 11.4828C15.4045 11.4829 14.0023 11.8777 12.7849 12.6233C11.5675 13.3688 10.5827 14.4357 9.94043 15.7049L12.5029 17.6791C13.1138 15.8635 14.8221 14.5161 16.8348 14.5161Z" fill="#EA4335"/>
</g>
<defs>
<filter id="filter0_d_307_446" x="0.446777" y="0.538208" width="64.0718" height="45.3811" filterUnits="userSpaceOnUse" color-interpolation-filters="sRGB">
<feFlood flood-opacity="0" result="BackgroundImageFix"/>
<feColorMatrix in="SourceAlpha" type="matrix" values="0 0 0 0 0 0 0 0 0 0 0 0 0 0 0 0 0 0 127 0" result="hardAlpha"/>
<feOffset dy="4"/>
<feGaussianBlur stdDeviation="2"/>
<feComposite in2="hardAlpha" operator="out"/>
<feColorMatrix type="matrix" values="0 0 0 0 0 0 0 0 0 0 0 0 0 0 0 0 0 0 0.7 0"/>
<feBlend mode="normal" in2="BackgroundImageFix" result="effect1_dropShadow_307_446"/>
<feBlend mode="normal" in="SourceGraphic" in2="effect1_dropShadow_307_446" result="shape"/>
</filter>
<clipPath id="clip0_307_446">
<rect width="56.0717" height="37.3811" fill="white" transform="translate(4.44678 0.538208)"/>
</clipPath>
</defs>
</svg>
