<svg width="66" height="47" viewBox="0 0 66 47" fill="none" xmlns="http://www.w3.org/2000/svg">
<g clip-path="url(#clip0_307_440)" filter="url(#filter0_d_307_440)">
<path d="M4.33496 5.31952C4.33496 2.67887 6.47563 0.538208 9.11627 0.538208H56.9294C59.57 0.538208 61.7107 2.67887 61.7107 5.31952V34.0074C61.7107 36.648 59.57 38.7887 56.9294 38.7887H9.11627C6.47563 38.7887 4.33496 36.648 4.33496 34.0074V5.31952Z" fill="#07202C"/>
<path d="M42.8918 12.5298C42.8918 12.6832 42.8918 12.8366 42.7384 12.99C41.5111 19.1265 37.5225 21.1208 32.3065 21.1208H29.6985C29.0848 21.1208 28.4712 21.581 28.4712 22.1947L27.0905 30.7857L26.7837 33.2403C26.7837 33.7005 27.0905 34.0073 27.3973 34.0073H32.1531C32.7667 34.0073 33.227 33.5471 33.227 33.0869V32.78L34.1474 27.2572V26.9504C34.3008 26.3368 34.7611 26.03 35.2213 26.03H35.9884C40.5907 26.03 44.1191 24.189 45.0396 18.8196C45.4998 16.5185 45.193 14.6775 44.1191 13.4503C43.8123 13.1434 43.3521 12.8366 42.8918 12.5298Z" fill="#2199D6"/>
<path d="M41.664 12.0696C41.5106 12.0696 41.3572 11.9162 41.0504 11.9162C40.897 11.9162 40.5902 11.7628 40.4367 11.7628C39.6697 11.6094 38.9026 11.6094 38.1356 11.6094H31.0787C30.9253 11.6094 30.7719 11.6094 30.6184 11.7628C30.3116 11.9162 30.0048 12.223 30.0048 12.5298L28.4707 22.0413V22.3481C28.6241 21.7345 29.0843 21.2743 29.698 21.2743H32.306C37.522 21.2743 41.5106 19.1265 42.7379 13.1435C42.7379 12.9901 42.7379 12.8367 42.8913 12.6833C42.5845 12.5298 42.2777 12.3764 41.9709 12.223C41.8174 12.0696 41.664 12.0696 41.664 12.0696Z" fill="#252C5E"/>
<path d="M30.0045 12.5298C30.0045 12.2229 30.3113 11.9161 30.6181 11.7627C30.7715 11.7627 30.9249 11.6093 31.0783 11.6093H38.1352C38.9023 11.6093 39.8228 11.6093 40.4364 11.7627C40.5898 11.7627 40.8966 11.7627 41.0501 11.9161C41.2035 11.9161 41.3569 12.0695 41.6637 12.0695C41.8171 12.0695 41.8171 12.0695 41.9705 12.223C42.2773 12.3764 42.5842 12.5298 42.891 12.6832C43.1978 10.382 42.891 8.84791 41.6637 7.46721C40.283 5.9331 37.8284 5.31946 34.7602 5.31946H25.709C25.0953 5.31946 24.4817 5.77969 24.4817 6.39333L20.7998 30.0186C20.7998 30.4789 21.1066 30.9391 21.5669 30.9391H27.0896L28.4704 22.0413L30.0045 12.5298Z" fill="#2C3E8B"/>
</g>
<defs>
<filter id="filter0_d_307_440" x="0.334961" y="0.538208" width="65.3755" height="46.2505" filterUnits="userSpaceOnUse" color-interpolation-filters="sRGB">
<feFlood flood-opacity="0" result="BackgroundImageFix"/>
<feColorMatrix in="SourceAlpha" type="matrix" values="0 0 0 0 0 0 0 0 0 0 0 0 0 0 0 0 0 0 127 0" result="hardAlpha"/>
<feOffset dy="4"/>
<feGaussianBlur stdDeviation="2"/>
<feComposite in2="hardAlpha" operator="out"/>
<feColorMatrix type="matrix" values="0 0 0 0 0 0 0 0 0 0 0 0 0 0 0 0 0 0 0.7 0"/>
<feBlend mode="normal" in2="BackgroundImageFix" result="effect1_dropShadow_307_440"/>
<feBlend mode="normal" in="SourceGraphic" in2="effect1_dropShadow_307_440" result="shape"/>
</filter>
<clipPath id="clip0_307_440">
<rect width="57.3757" height="38.2505" fill="white" transform="translate(4.33496 0.538208)"/>
</clipPath>
</defs>
</svg>
