<svg width="66" height="47" viewBox="0 0 66 47" fill="none" xmlns="http://www.w3.org/2000/svg">
<g clip-path="url(#clip0_307_419)" filter="url(#filter0_d_307_419)">
<path d="M4 5.31952C4 2.67887 6.14067 0.538208 8.78131 0.538208H56.5944C59.2351 0.538208 61.3757 2.67887 61.3757 5.31952V34.0074C61.3757 36.648 59.2351 38.7887 56.5944 38.7887H8.78131C6.14066 38.7887 4 36.648 4 34.0074V5.31952Z" fill="#0C1727"/>
<path d="M53.3787 12.5333H50.3729C49.4642 12.5333 48.7652 12.8129 48.3457 13.7217L42.6138 26.7934H46.6681C46.6681 26.7934 47.3671 25.0458 47.5069 24.6264C47.9263 24.6264 51.9108 24.6264 52.47 24.6264C52.6098 25.1157 52.9593 26.7235 52.9593 26.7235H56.5942L53.3787 12.5333ZM48.6254 21.6905C48.9749 20.8517 50.1632 17.7061 50.1632 17.7061C50.1632 17.776 50.5127 16.8673 50.6525 16.3779L50.9321 17.6362C50.9321 17.6362 51.701 21.0614 51.8409 21.7604H48.6254V21.6905Z" fill="#3362AB"/>
<path d="M42.8942 22.1099C42.8942 25.0458 40.2379 27.0031 36.1137 27.0031C34.3662 27.0031 32.6885 26.6536 31.7798 26.2341L32.339 23.0186L32.8283 23.2283C34.0866 23.7876 34.9254 23.9973 36.4632 23.9973C37.5817 23.9973 38.77 23.5779 38.77 22.5992C38.77 21.9701 38.2807 21.5507 36.7428 20.8517C35.2749 20.1527 33.3176 19.0342 33.3176 17.0071C33.3176 14.211 36.0438 12.3236 39.8884 12.3236C41.3564 12.3236 42.6146 12.6032 43.3835 12.9527L42.8243 16.0284L42.5447 15.7488C41.8457 15.4692 40.937 15.1896 39.6088 15.1896C38.1409 15.2595 37.4419 15.8886 37.4419 16.4478C37.4419 17.077 38.2807 17.5663 39.6088 18.1954C41.8457 19.2439 42.8942 20.4323 42.8942 22.1099Z" fill="#3362AB"/>
<path d="M8.78174 12.6732L8.85164 12.3936H14.8632C15.7021 12.3936 16.3312 12.6732 16.5409 13.5819L17.869 19.8731C16.5409 16.5178 13.4652 13.7916 8.78174 12.6732Z" fill="#F9B50B"/>
<path d="M26.3273 12.5333L20.2458 26.7234H16.1216L12.6265 14.8401C15.1429 16.4478 17.24 18.9643 18.0089 20.7118L18.4283 22.1798L22.2031 12.4634H26.3273V12.5333Z" fill="#3362AB"/>
<path d="M27.9344 12.4634H31.779L29.3324 26.7234H25.4878L27.9344 12.4634Z" fill="#3362AB"/>
</g>
<defs>
<filter id="filter0_d_307_419" x="0" y="0.538208" width="65.3755" height="46.2505" filterUnits="userSpaceOnUse" color-interpolation-filters="sRGB">
<feFlood flood-opacity="0" result="BackgroundImageFix"/>
<feColorMatrix in="SourceAlpha" type="matrix" values="0 0 0 0 0 0 0 0 0 0 0 0 0 0 0 0 0 0 127 0" result="hardAlpha"/>
<feOffset dy="4"/>
<feGaussianBlur stdDeviation="2"/>
<feComposite in2="hardAlpha" operator="out"/>
<feColorMatrix type="matrix" values="0 0 0 0 0 0 0 0 0 0 0 0 0 0 0 0 0 0 0.7 0"/>
<feBlend mode="normal" in2="BackgroundImageFix" result="effect1_dropShadow_307_419"/>
<feBlend mode="normal" in="SourceGraphic" in2="effect1_dropShadow_307_419" result="shape"/>
</filter>
<clipPath id="clip0_307_419">
<rect width="57.3757" height="38.2505" fill="white" transform="translate(4 0.538208)"/>
</clipPath>
</defs>
</svg>
