<svg width="61" height="61" viewBox="0 0 61 61" fill="none" xmlns="http://www.w3.org/2000/svg">
<g clip-path="url(#clip0_62_136)">
<path d="M59.3746 21.8901C59.646 22.5004 59.5755 23.0645 59.163 23.5824L34.8623 53.1011C34.5541 53.4713 34.1431 53.6593 33.6294 53.6651C33.3654 53.6639 33.113 53.5938 32.872 53.4547C32.716 53.3646 32.5664 53.231 32.423 53.0537L25.0616 43.5585L16.2941 46.8604C15.8507 47.0391 15.4092 47.0016 14.9698 46.7479C14.7855 46.6415 14.6459 46.5231 14.5511 46.3927C14.339 46.138 14.219 45.8466 14.191 45.5186C14.1631 45.1906 14.2309 44.8848 14.3946 44.6013L18.6792 37.1801L50.0524 25.2687L15.9652 31.814L9.55472 23.5199C9.14479 23.0186 9.08635 22.4651 9.37939 21.8593C9.67841 21.2759 10.1467 20.9887 10.7842 20.9976L57.9532 21.0127C58.2395 21.0079 58.5031 21.075 58.7441 21.2142C59.0277 21.3779 59.2378 21.6032 59.3746 21.8901Z" fill="#111111"/>
</g>
<defs>
<clipPath id="clip0_62_136">
<rect width="44" height="44" fill="white" transform="translate(22) rotate(30)"/>
</clipPath>
</defs>
</svg>
