<svg width="51" height="21" viewBox="0 0 51 21" fill="none" xmlns="http://www.w3.org/2000/svg">
<g filter="url(#filter0_d_51_160)">
<path d="M9.46667 3.29442H10.2611V5.67219H9.46667M11.65 3.29442H12.4445V5.67219H11.65M6.8889 1.11108L4.90556 3.09442V10.2389H7.28334V12.2222L9.27223 10.2389H10.8556L14.4278 6.66664V1.11108M13.6333 6.27219L12.05 7.85553H10.4611L9.07223 9.24442V7.85553H7.28334V1.90553H13.6333V6.27219Z" fill="white"/>
</g>
<g filter="url(#filter1_d_51_160)">
<path d="M24.6673 4.99997C24.2031 4.99997 23.758 5.17557 23.4298 5.48813C23.1016 5.80069 22.9173 6.22461 22.9173 6.66664C22.9173 7.10867 23.1016 7.53259 23.4298 7.84515C23.758 8.15771 24.2031 8.33331 24.6673 8.33331C25.1314 8.33331 25.5765 8.15771 25.9047 7.84515C26.2329 7.53259 26.4173 7.10867 26.4173 6.66664C26.4173 6.22461 26.2329 5.80069 25.9047 5.48813C25.5765 5.17557 25.1314 4.99997 24.6673 4.99997ZM24.6673 3.88886C25.4408 3.88886 26.1827 4.18152 26.7297 4.70245C27.2766 5.22339 27.5839 5.92993 27.5839 6.66664C27.5839 7.40335 27.2766 8.10989 26.7297 8.63082C26.1827 9.15176 25.4408 9.44442 24.6673 9.44442C23.8937 9.44442 23.1518 9.15176 22.6049 8.63082C22.0579 8.10989 21.7506 7.40335 21.7506 6.66664C21.7506 5.92993 22.0579 5.22339 22.6049 4.70245C23.1518 4.18152 23.8937 3.88886 24.6673 3.88886ZM28.4589 3.74997C28.4589 3.93415 28.3821 4.11079 28.2454 4.24102C28.1086 4.37125 27.9231 4.44442 27.7298 4.44442C27.5364 4.44442 27.3509 4.37125 27.2142 4.24102C27.0774 4.11079 27.0006 3.93415 27.0006 3.74997C27.0006 3.56579 27.0774 3.38916 27.2142 3.25893C27.3509 3.12869 27.5364 3.05553 27.7298 3.05553C27.9231 3.05553 28.1086 3.12869 28.2454 3.25893C28.3821 3.38916 28.4589 3.56579 28.4589 3.74997ZM24.6673 2.2222C23.2241 2.2222 22.9884 2.22608 22.317 2.25442C21.8597 2.27497 21.5528 2.33331 21.2682 2.43886C21.0299 2.52216 20.8146 2.65567 20.6382 2.82942C20.4556 2.99742 20.3152 3.20252 20.2275 3.42942C20.1167 3.70164 20.0554 3.99331 20.0344 4.42831C20.0041 5.04164 20 5.25608 20 6.66664C20 8.04164 20.0041 8.26553 20.0338 8.90497C20.0554 9.33997 20.1167 9.63275 20.2269 9.90331C20.3261 10.145 20.4428 10.3189 20.6364 10.5033C20.833 10.69 21.0156 10.8016 21.2664 10.8939C21.5546 11 21.8614 11.0589 22.3164 11.0789C22.9604 11.1077 23.1856 11.1111 24.6667 11.1111C26.1104 11.1111 26.3455 11.1072 27.0169 11.0789C27.4731 11.0583 27.7799 11 28.0652 10.895C28.3032 10.8113 28.5185 10.6778 28.6952 10.5044C28.8918 10.3178 29.009 10.1439 29.1058 9.90442C29.2167 9.63108 29.2785 9.33886 29.2995 8.90442C29.3298 8.29164 29.3333 8.07664 29.3333 6.66664C29.3333 5.29219 29.3293 5.06775 29.2995 4.42831C29.2779 3.99386 29.2161 3.70053 29.1058 3.42942C29.0179 3.20276 28.8778 2.99774 28.6958 2.82942C28.5194 2.65544 28.3041 2.52173 28.0658 2.43831C27.7799 2.33275 27.4731 2.27442 27.0169 2.25442C26.3735 2.22553 26.1489 2.2222 24.6673 2.2222ZM24.6673 1.11108C26.2522 1.11108 26.4499 1.11664 27.0723 1.14442C27.693 1.1722 28.1165 1.26497 28.4881 1.40275C28.8731 1.54386 29.1974 1.73497 29.5218 2.04331C29.8184 2.32103 30.0479 2.65697 30.1943 3.02775C30.3384 3.38164 30.4364 3.78497 30.4656 4.37664C30.493 4.96886 30.5006 5.15719 30.5006 6.66664C30.5006 8.17608 30.4948 8.36442 30.4656 8.95664C30.4364 9.54831 30.3384 9.95108 30.1943 10.3055C30.0483 10.6765 29.8187 11.0125 29.5218 11.29C29.2301 11.5724 28.8774 11.7909 28.4881 11.9305C28.1165 12.0677 27.693 12.1611 27.0723 12.1889C26.4499 12.215 26.2522 12.2222 24.6673 12.2222C23.0823 12.2222 22.8846 12.2166 22.2622 12.1889C21.6415 12.1611 21.2186 12.0677 20.8464 11.9305C20.4569 11.7913 20.1041 11.5727 19.8128 11.29C19.5161 11.0123 19.2866 10.6763 19.1402 10.3055C18.9955 9.95164 18.8981 9.54831 18.8689 8.95664C18.8409 8.36442 18.8339 8.17608 18.8339 6.66664C18.8339 5.15719 18.8398 4.96886 18.8689 4.37664C18.8981 3.78442 18.9955 3.38219 19.1402 3.02775C19.2861 2.65674 19.5157 2.32071 19.8128 2.04331C20.1042 1.76066 20.457 1.54204 20.8464 1.40275C21.218 1.26497 21.6409 1.1722 22.2622 1.14442C22.8846 1.11831 23.0823 1.11108 24.6673 1.11108Z" fill="white"/>
</g>
<g filter="url(#filter2_d_51_160)">
<path d="M44.0667 3.23317C43.611 2.79963 43.3598 2.24286 43.36 1.6665H41.3V8.55539C41.2841 8.92818 41.0953 9.28129 40.7732 9.54036C40.4511 9.79942 40.021 9.94423 39.5733 9.94428C38.6267 9.94428 37.84 9.29984 37.84 8.49984C37.84 7.54428 38.9467 6.82762 40.0867 7.12206V5.3665C37.7867 5.11095 35.7733 6.59984 35.7733 8.49984C35.7733 10.3498 37.6133 11.6665 39.5667 11.6665C41.66 11.6665 43.36 10.2498 43.36 8.49984V5.00539C44.1953 5.50531 45.1983 5.77353 46.2267 5.77206V4.05539C46.2267 4.05539 44.9733 4.10539 44.0667 3.23317Z" fill="white"/>
</g>
<defs>
<filter id="filter0_d_51_160" x="-1" y="0" width="21.3333" height="21.3333" filterUnits="userSpaceOnUse" color-interpolation-filters="sRGB">
<feFlood flood-opacity="0" result="BackgroundImageFix"/>
<feColorMatrix in="SourceAlpha" type="matrix" values="0 0 0 0 0 0 0 0 0 0 0 0 0 0 0 0 0 0 127 0" result="hardAlpha"/>
<feOffset dy="4"/>
<feGaussianBlur stdDeviation="2"/>
<feComposite in2="hardAlpha" operator="out"/>
<feColorMatrix type="matrix" values="0 0 0 0 0 0 0 0 0 0 0 0 0 0 0 0 0 0 0.7 0"/>
<feBlend mode="normal" in2="BackgroundImageFix" result="effect1_dropShadow_51_160"/>
<feBlend mode="normal" in="SourceGraphic" in2="effect1_dropShadow_51_160" result="shape"/>
</filter>
<filter id="filter1_d_51_160" x="13.6667" y="0" width="22" height="21.3333" filterUnits="userSpaceOnUse" color-interpolation-filters="sRGB">
<feFlood flood-opacity="0" result="BackgroundImageFix"/>
<feColorMatrix in="SourceAlpha" type="matrix" values="0 0 0 0 0 0 0 0 0 0 0 0 0 0 0 0 0 0 127 0" result="hardAlpha"/>
<feOffset dy="4"/>
<feGaussianBlur stdDeviation="2"/>
<feComposite in2="hardAlpha" operator="out"/>
<feColorMatrix type="matrix" values="0 0 0 0 0 0 0 0 0 0 0 0 0 0 0 0 0 0 0.7 0"/>
<feBlend mode="normal" in2="BackgroundImageFix" result="effect1_dropShadow_51_160"/>
<feBlend mode="normal" in="SourceGraphic" in2="effect1_dropShadow_51_160" result="shape"/>
</filter>
<filter id="filter2_d_51_160" x="29" y="0" width="24" height="21.3333" filterUnits="userSpaceOnUse" color-interpolation-filters="sRGB">
<feFlood flood-opacity="0" result="BackgroundImageFix"/>
<feColorMatrix in="SourceAlpha" type="matrix" values="0 0 0 0 0 0 0 0 0 0 0 0 0 0 0 0 0 0 127 0" result="hardAlpha"/>
<feOffset dy="4"/>
<feGaussianBlur stdDeviation="2"/>
<feComposite in2="hardAlpha" operator="out"/>
<feColorMatrix type="matrix" values="0 0 0 0 0 0 0 0 0 0 0 0 0 0 0 0 0 0 0.7 0"/>
<feBlend mode="normal" in2="BackgroundImageFix" result="effect1_dropShadow_51_160"/>
<feBlend mode="normal" in="SourceGraphic" in2="effect1_dropShadow_51_160" result="shape"/>
</filter>
</defs>
</svg>
