<svg width="682" height="70" viewBox="0 0 682 70" fill="none" xmlns="http://www.w3.org/2000/svg">
<g filter="url(#filter0_d_26_132)">
<rect x="11" width="693" height="62" fill="url(#paint0_linear_26_132)"/>
<g filter="url(#filter1_d_26_132)">
<mask id="path-2-outside-1_26_132" maskUnits="userSpaceOnUse" x="33" y="21" width="413" height="23" fill="black">
<rect fill="white" x="33" y="21" width="413" height="23"/>
<path d="M67.168 22.488V43H59.104V32.056L53.248 41.144H48.16L42.304 32.056V43H34.24V22.488H43.488L50.688 34.04L57.92 22.488H67.168ZM103.902 43H94.0143L92.1263 39.512H81.4703L79.5503 43H69.6943L82.7823 22.488H90.8143L103.902 43ZM89.5663 34.872L86.7823 29.784L84.0303 34.872H89.5663ZM126.263 30.488C127.202 30.488 128.098 30.6053 128.951 30.84C129.826 31.0747 130.594 31.448 131.255 31.96C131.938 32.472 132.471 33.144 132.855 33.976C133.261 34.7867 133.463 35.7787 133.463 36.952C133.463 38.104 133.261 39.0747 132.855 39.864C132.471 40.632 131.938 41.2507 131.255 41.72C130.594 42.1893 129.826 42.52 128.951 42.712C128.098 42.904 127.202 43 126.263 43H111.799C110.861 43 109.965 42.84 109.111 42.52C108.279 42.1787 107.533 41.72 106.871 41.144C106.21 40.568 105.666 39.8853 105.239 39.096C104.813 38.2853 104.535 37.4107 104.407 36.472H112.631C112.866 36.9413 113.207 37.3147 113.655 37.592C114.103 37.848 114.594 37.9653 115.127 37.944L123.031 37.976C123.181 37.976 123.373 37.9653 123.607 37.944C123.863 37.9227 124.098 37.8587 124.311 37.752C124.546 37.6453 124.749 37.496 124.919 37.304C125.09 37.0907 125.175 36.8133 125.175 36.472C125.175 36.1093 125.09 35.832 124.919 35.64C124.749 35.448 124.546 35.2987 124.311 35.192C124.077 35.0853 123.842 35.0213 123.607 35C123.373 34.9787 123.181 34.968 123.031 34.968H112.055C111.117 34.968 110.21 34.8507 109.335 34.616C108.461 34.3813 107.682 34.008 106.999 33.496C106.338 32.984 105.805 32.3227 105.399 31.512C105.015 30.7013 104.823 29.7093 104.823 28.536C104.823 27.384 105.015 26.424 105.399 25.656C105.805 24.8667 106.338 24.2373 106.999 23.768C107.682 23.2987 108.45 22.968 109.303 22.776C110.178 22.584 111.085 22.488 112.023 22.488H125.783C126.722 22.488 127.618 22.6587 128.471 23C129.325 23.32 130.082 23.768 130.743 24.344C131.405 24.92 131.949 25.6027 132.375 26.392C132.802 27.1813 133.079 28.0453 133.207 28.984L124.983 29.016C124.749 28.5253 124.397 28.152 123.927 27.896C123.479 27.6187 122.989 27.4907 122.455 27.512H115.255C115.106 27.512 114.903 27.5227 114.647 27.544C114.413 27.5653 114.178 27.6293 113.943 27.736C113.73 27.8427 113.538 27.992 113.367 28.184C113.197 28.376 113.111 28.6533 113.111 29.016C113.111 29.3573 113.197 29.6347 113.367 29.848C113.538 30.04 113.741 30.1893 113.975 30.296C114.21 30.3813 114.445 30.4347 114.679 30.456C114.935 30.4773 115.127 30.488 115.255 30.488H126.263ZM181.505 35.064C181.483 35.2987 181.462 35.5333 181.441 35.768C181.441 36.0027 181.419 36.2373 181.377 36.472C181.249 37.4107 180.971 38.2853 180.545 39.096C180.118 39.8853 179.574 40.568 178.913 41.144C178.251 41.72 177.494 42.1787 176.641 42.52C175.787 42.84 174.891 43 173.953 43H158.529C157.59 43 156.694 42.84 155.841 42.52C155.009 42.1787 154.262 41.72 153.601 41.144C152.939 40.568 152.395 39.8853 151.969 39.096C151.542 38.2853 151.265 37.4213 151.137 36.504C150.774 33.9867 150.774 31.48 151.137 28.984C151.265 28.0453 151.542 27.1813 151.969 26.392C152.395 25.6027 152.939 24.92 153.601 24.344C154.262 23.768 155.009 23.32 155.841 23C156.694 22.6587 157.59 22.488 158.529 22.488H173.953C174.891 22.488 175.777 22.6587 176.609 23C177.462 23.32 178.219 23.768 178.881 24.344C179.542 24.92 180.086 25.6027 180.513 26.392C180.939 27.1813 181.217 28.0453 181.345 28.984C181.387 29.2187 181.419 29.4533 181.441 29.688C181.462 29.9227 181.483 30.1573 181.505 30.392H172.065V30.328C171.937 29.6667 171.617 29.1333 171.105 28.728C170.593 28.3013 169.995 28.088 169.312 28.088H162.209C161.547 28.088 160.961 28.3013 160.449 28.728C159.937 29.1333 159.617 29.6667 159.489 30.328C159.318 31.1387 159.233 31.9493 159.233 32.76C159.233 33.5493 159.318 34.3493 159.489 35.16C159.617 35.8213 159.937 36.3653 160.449 36.792C160.961 37.1973 161.558 37.4 162.241 37.4H169.312C169.995 37.4 170.593 37.1973 171.105 36.792C171.617 36.3653 171.937 35.8213 172.065 35.16V35.064H181.505ZM214.458 43H205.53L201.658 37.976H193.242V43H185.178V22.488H206.042C206.98 22.488 207.866 22.6587 208.698 23C209.551 23.32 210.308 23.768 210.97 24.344C211.631 24.92 212.175 25.6027 212.602 26.392C213.028 27.1813 213.306 28.0453 213.434 28.984C213.54 29.816 213.54 30.6373 213.434 31.448C213.284 32.664 212.868 33.7733 212.186 34.776C211.503 35.7573 210.628 36.5253 209.562 37.08L214.458 43ZM203.002 32.376C203.386 32.376 203.748 32.28 204.09 32.088C204.431 31.896 204.698 31.6293 204.89 31.288C205.103 30.968 205.21 30.616 205.21 30.232C205.21 29.848 205.103 29.4853 204.89 29.144C204.698 28.8027 204.431 28.536 204.09 28.344C203.748 28.152 203.386 28.0667 203.002 28.088H193.242V32.376H203.002ZM225.71 27.8V30.232H244.366V35.256H225.71V37.688H244.366V43H217.646V22.488H244.366V27.8H225.71ZM280.996 43H271.108L269.22 39.512H258.564L256.644 43H246.788L259.876 22.488H267.908L280.996 43ZM266.66 34.872L263.876 29.784L261.124 34.872H266.66ZM313.665 28.984C313.985 31.5013 313.985 33.9973 313.665 36.472C313.537 37.4107 313.26 38.2853 312.833 39.096C312.407 39.8853 311.863 40.568 311.201 41.144C310.54 41.72 309.783 42.1787 308.929 42.52C308.076 42.84 307.18 43 306.241 43H283.521V22.488H306.241C307.18 22.488 308.076 22.6587 308.929 23C309.783 23.32 310.54 23.768 311.201 24.344C311.863 24.92 312.407 25.6027 312.833 26.392C313.26 27.1813 313.537 28.0453 313.665 28.984ZM305.281 35.16C305.644 33.5387 305.644 31.928 305.281 30.328C305.153 29.6667 304.833 29.1333 304.321 28.728C303.809 28.3013 303.223 28.088 302.561 28.088H291.585V37.4H302.561C303.223 37.4 303.809 37.1973 304.321 36.792C304.833 36.3653 305.153 35.8213 305.281 35.16ZM348.46 28.984C348.801 31.4587 348.812 33.9547 348.492 36.472C348.364 37.4107 348.087 38.2853 347.66 39.096C347.233 39.8853 346.689 40.568 346.028 41.144C345.367 41.72 344.609 42.1787 343.756 42.52C342.903 42.84 342.007 43 341.068 43H324.716C323.777 43 322.881 42.84 322.028 42.52C321.196 42.1787 320.449 41.72 319.788 41.144C319.127 40.568 318.583 39.8853 318.156 39.096C317.729 38.2853 317.452 37.4213 317.324 36.504C316.961 33.9867 316.961 31.48 317.324 28.984C317.452 28.0453 317.729 27.1813 318.156 26.392C318.583 25.6027 319.127 24.92 319.788 24.344C320.449 23.768 321.196 23.32 322.028 23C322.881 22.6587 323.777 22.488 324.716 22.488H341.068C342.007 22.488 342.892 22.6587 343.724 23C344.577 23.32 345.335 23.768 345.996 24.344C346.657 24.92 347.201 25.6027 347.628 26.392C348.055 27.1813 348.332 28.0453 348.46 28.984ZM340.108 35.16C340.428 33.5387 340.428 31.928 340.108 30.328C339.98 29.6667 339.66 29.1333 339.148 28.728C338.636 28.3013 338.039 28.088 337.356 28.088H328.396C327.735 28.088 327.148 28.3013 326.636 28.728C326.124 29.1333 325.804 29.6667 325.676 30.328C325.505 31.1387 325.42 31.9493 325.42 32.76C325.42 33.5493 325.505 34.3493 325.676 35.16C325.804 35.8213 326.124 36.3653 326.636 36.792C327.148 37.1973 327.745 37.4 328.428 37.4H337.356C338.039 37.4 338.636 37.1973 339.148 36.792C339.66 36.3653 339.98 35.8213 340.108 35.16ZM381.833 43H372.905L369.033 37.976H360.617V43H352.553V22.488H373.417C374.355 22.488 375.241 22.6587 376.073 23C376.926 23.32 377.683 23.768 378.345 24.344C379.006 24.92 379.55 25.6027 379.977 26.392C380.403 27.1813 380.681 28.0453 380.809 28.984C380.915 29.816 380.915 30.6373 380.809 31.448C380.659 32.664 380.243 33.7733 379.561 34.776C378.878 35.7573 378.003 36.5253 376.937 37.08L381.833 43ZM370.377 32.376C370.761 32.376 371.123 32.28 371.465 32.088C371.806 31.896 372.073 31.6293 372.265 31.288C372.478 30.968 372.585 30.616 372.585 30.232C372.585 29.848 372.478 29.4853 372.265 29.144C372.073 28.8027 371.806 28.536 371.465 28.344C371.123 28.152 370.761 28.0667 370.377 28.088H360.617V32.376H370.377ZM393.085 27.8V30.232H411.741V35.256H393.085V37.688H411.741V43H385.021V22.488H411.741V27.8H393.085ZM436.951 30.488C437.889 30.488 438.785 30.6053 439.639 30.84C440.513 31.0747 441.281 31.448 441.943 31.96C442.625 32.472 443.159 33.144 443.543 33.976C443.948 34.7867 444.151 35.7787 444.151 36.952C444.151 38.104 443.948 39.0747 443.543 39.864C443.159 40.632 442.625 41.2507 441.943 41.72C441.281 42.1893 440.513 42.52 439.639 42.712C438.785 42.904 437.889 43 436.951 43H422.487C421.548 43 420.652 42.84 419.799 42.52C418.967 42.1787 418.22 41.72 417.559 41.144C416.897 40.568 416.353 39.8853 415.927 39.096C415.5 38.2853 415.223 37.4107 415.095 36.472H423.319C423.553 36.9413 423.895 37.3147 424.343 37.592C424.791 37.848 425.281 37.9653 425.815 37.944L433.719 37.976C433.868 37.976 434.06 37.9653 434.295 37.944C434.551 37.9227 434.785 37.8587 434.999 37.752C435.233 37.6453 435.436 37.496 435.607 37.304C435.777 37.0907 435.863 36.8133 435.863 36.472C435.863 36.1093 435.777 35.832 435.607 35.64C435.436 35.448 435.233 35.2987 434.999 35.192C434.764 35.0853 434.529 35.0213 434.295 35C434.06 34.9787 433.868 34.968 433.719 34.968H422.743C421.804 34.968 420.897 34.8507 420.023 34.616C419.148 34.3813 418.369 34.008 417.687 33.496C417.025 32.984 416.492 32.3227 416.087 31.512C415.703 30.7013 415.511 29.7093 415.511 28.536C415.511 27.384 415.703 26.424 416.087 25.656C416.492 24.8667 417.025 24.2373 417.687 23.768C418.369 23.2987 419.137 22.968 419.991 22.776C420.865 22.584 421.772 22.488 422.711 22.488H436.471C437.409 22.488 438.305 22.6587 439.159 23C440.012 23.32 440.769 23.768 441.431 24.344C442.092 24.92 442.636 25.6027 443.063 26.392C443.489 27.1813 443.767 28.0453 443.895 28.984L435.671 29.016C435.436 28.5253 435.084 28.152 434.615 27.896C434.167 27.6187 433.676 27.4907 433.143 27.512H425.943C425.793 27.512 425.591 27.5227 425.335 27.544C425.1 27.5653 424.865 27.6293 424.631 27.736C424.417 27.8427 424.225 27.992 424.055 28.184C423.884 28.376 423.799 28.6533 423.799 29.016C423.799 29.3573 423.884 29.6347 424.055 29.848C424.225 30.04 424.428 30.1893 424.663 30.296C424.897 30.3813 425.132 30.4347 425.367 30.456C425.623 30.4773 425.815 30.488 425.943 30.488H436.951Z"/>
</mask>
<path d="M67.168 22.488V43H59.104V32.056L53.248 41.144H48.16L42.304 32.056V43H34.24V22.488H43.488L50.688 34.04L57.92 22.488H67.168ZM103.902 43H94.0143L92.1263 39.512H81.4703L79.5503 43H69.6943L82.7823 22.488H90.8143L103.902 43ZM89.5663 34.872L86.7823 29.784L84.0303 34.872H89.5663ZM126.263 30.488C127.202 30.488 128.098 30.6053 128.951 30.84C129.826 31.0747 130.594 31.448 131.255 31.96C131.938 32.472 132.471 33.144 132.855 33.976C133.261 34.7867 133.463 35.7787 133.463 36.952C133.463 38.104 133.261 39.0747 132.855 39.864C132.471 40.632 131.938 41.2507 131.255 41.72C130.594 42.1893 129.826 42.52 128.951 42.712C128.098 42.904 127.202 43 126.263 43H111.799C110.861 43 109.965 42.84 109.111 42.52C108.279 42.1787 107.533 41.72 106.871 41.144C106.21 40.568 105.666 39.8853 105.239 39.096C104.813 38.2853 104.535 37.4107 104.407 36.472H112.631C112.866 36.9413 113.207 37.3147 113.655 37.592C114.103 37.848 114.594 37.9653 115.127 37.944L123.031 37.976C123.181 37.976 123.373 37.9653 123.607 37.944C123.863 37.9227 124.098 37.8587 124.311 37.752C124.546 37.6453 124.749 37.496 124.919 37.304C125.09 37.0907 125.175 36.8133 125.175 36.472C125.175 36.1093 125.09 35.832 124.919 35.64C124.749 35.448 124.546 35.2987 124.311 35.192C124.077 35.0853 123.842 35.0213 123.607 35C123.373 34.9787 123.181 34.968 123.031 34.968H112.055C111.117 34.968 110.21 34.8507 109.335 34.616C108.461 34.3813 107.682 34.008 106.999 33.496C106.338 32.984 105.805 32.3227 105.399 31.512C105.015 30.7013 104.823 29.7093 104.823 28.536C104.823 27.384 105.015 26.424 105.399 25.656C105.805 24.8667 106.338 24.2373 106.999 23.768C107.682 23.2987 108.45 22.968 109.303 22.776C110.178 22.584 111.085 22.488 112.023 22.488H125.783C126.722 22.488 127.618 22.6587 128.471 23C129.325 23.32 130.082 23.768 130.743 24.344C131.405 24.92 131.949 25.6027 132.375 26.392C132.802 27.1813 133.079 28.0453 133.207 28.984L124.983 29.016C124.749 28.5253 124.397 28.152 123.927 27.896C123.479 27.6187 122.989 27.4907 122.455 27.512H115.255C115.106 27.512 114.903 27.5227 114.647 27.544C114.413 27.5653 114.178 27.6293 113.943 27.736C113.73 27.8427 113.538 27.992 113.367 28.184C113.197 28.376 113.111 28.6533 113.111 29.016C113.111 29.3573 113.197 29.6347 113.367 29.848C113.538 30.04 113.741 30.1893 113.975 30.296C114.21 30.3813 114.445 30.4347 114.679 30.456C114.935 30.4773 115.127 30.488 115.255 30.488H126.263ZM181.505 35.064C181.483 35.2987 181.462 35.5333 181.441 35.768C181.441 36.0027 181.419 36.2373 181.377 36.472C181.249 37.4107 180.971 38.2853 180.545 39.096C180.118 39.8853 179.574 40.568 178.913 41.144C178.251 41.72 177.494 42.1787 176.641 42.52C175.787 42.84 174.891 43 173.953 43H158.529C157.59 43 156.694 42.84 155.841 42.52C155.009 42.1787 154.262 41.72 153.601 41.144C152.939 40.568 152.395 39.8853 151.969 39.096C151.542 38.2853 151.265 37.4213 151.137 36.504C150.774 33.9867 150.774 31.48 151.137 28.984C151.265 28.0453 151.542 27.1813 151.969 26.392C152.395 25.6027 152.939 24.92 153.601 24.344C154.262 23.768 155.009 23.32 155.841 23C156.694 22.6587 157.59 22.488 158.529 22.488H173.953C174.891 22.488 175.777 22.6587 176.609 23C177.462 23.32 178.219 23.768 178.881 24.344C179.542 24.92 180.086 25.6027 180.513 26.392C180.939 27.1813 181.217 28.0453 181.345 28.984C181.387 29.2187 181.419 29.4533 181.441 29.688C181.462 29.9227 181.483 30.1573 181.505 30.392H172.065V30.328C171.937 29.6667 171.617 29.1333 171.105 28.728C170.593 28.3013 169.995 28.088 169.312 28.088H162.209C161.547 28.088 160.961 28.3013 160.449 28.728C159.937 29.1333 159.617 29.6667 159.489 30.328C159.318 31.1387 159.233 31.9493 159.233 32.76C159.233 33.5493 159.318 34.3493 159.489 35.16C159.617 35.8213 159.937 36.3653 160.449 36.792C160.961 37.1973 161.558 37.4 162.241 37.4H169.312C169.995 37.4 170.593 37.1973 171.105 36.792C171.617 36.3653 171.937 35.8213 172.065 35.16V35.064H181.505ZM214.458 43H205.53L201.658 37.976H193.242V43H185.178V22.488H206.042C206.98 22.488 207.866 22.6587 208.698 23C209.551 23.32 210.308 23.768 210.97 24.344C211.631 24.92 212.175 25.6027 212.602 26.392C213.028 27.1813 213.306 28.0453 213.434 28.984C213.54 29.816 213.54 30.6373 213.434 31.448C213.284 32.664 212.868 33.7733 212.186 34.776C211.503 35.7573 210.628 36.5253 209.562 37.08L214.458 43ZM203.002 32.376C203.386 32.376 203.748 32.28 204.09 32.088C204.431 31.896 204.698 31.6293 204.89 31.288C205.103 30.968 205.21 30.616 205.21 30.232C205.21 29.848 205.103 29.4853 204.89 29.144C204.698 28.8027 204.431 28.536 204.09 28.344C203.748 28.152 203.386 28.0667 203.002 28.088H193.242V32.376H203.002ZM225.71 27.8V30.232H244.366V35.256H225.71V37.688H244.366V43H217.646V22.488H244.366V27.8H225.71ZM280.996 43H271.108L269.22 39.512H258.564L256.644 43H246.788L259.876 22.488H267.908L280.996 43ZM266.66 34.872L263.876 29.784L261.124 34.872H266.66ZM313.665 28.984C313.985 31.5013 313.985 33.9973 313.665 36.472C313.537 37.4107 313.26 38.2853 312.833 39.096C312.407 39.8853 311.863 40.568 311.201 41.144C310.54 41.72 309.783 42.1787 308.929 42.52C308.076 42.84 307.18 43 306.241 43H283.521V22.488H306.241C307.18 22.488 308.076 22.6587 308.929 23C309.783 23.32 310.54 23.768 311.201 24.344C311.863 24.92 312.407 25.6027 312.833 26.392C313.26 27.1813 313.537 28.0453 313.665 28.984ZM305.281 35.16C305.644 33.5387 305.644 31.928 305.281 30.328C305.153 29.6667 304.833 29.1333 304.321 28.728C303.809 28.3013 303.223 28.088 302.561 28.088H291.585V37.4H302.561C303.223 37.4 303.809 37.1973 304.321 36.792C304.833 36.3653 305.153 35.8213 305.281 35.16ZM348.46 28.984C348.801 31.4587 348.812 33.9547 348.492 36.472C348.364 37.4107 348.087 38.2853 347.66 39.096C347.233 39.8853 346.689 40.568 346.028 41.144C345.367 41.72 344.609 42.1787 343.756 42.52C342.903 42.84 342.007 43 341.068 43H324.716C323.777 43 322.881 42.84 322.028 42.52C321.196 42.1787 320.449 41.72 319.788 41.144C319.127 40.568 318.583 39.8853 318.156 39.096C317.729 38.2853 317.452 37.4213 317.324 36.504C316.961 33.9867 316.961 31.48 317.324 28.984C317.452 28.0453 317.729 27.1813 318.156 26.392C318.583 25.6027 319.127 24.92 319.788 24.344C320.449 23.768 321.196 23.32 322.028 23C322.881 22.6587 323.777 22.488 324.716 22.488H341.068C342.007 22.488 342.892 22.6587 343.724 23C344.577 23.32 345.335 23.768 345.996 24.344C346.657 24.92 347.201 25.6027 347.628 26.392C348.055 27.1813 348.332 28.0453 348.46 28.984ZM340.108 35.16C340.428 33.5387 340.428 31.928 340.108 30.328C339.98 29.6667 339.66 29.1333 339.148 28.728C338.636 28.3013 338.039 28.088 337.356 28.088H328.396C327.735 28.088 327.148 28.3013 326.636 28.728C326.124 29.1333 325.804 29.6667 325.676 30.328C325.505 31.1387 325.42 31.9493 325.42 32.76C325.42 33.5493 325.505 34.3493 325.676 35.16C325.804 35.8213 326.124 36.3653 326.636 36.792C327.148 37.1973 327.745 37.4 328.428 37.4H337.356C338.039 37.4 338.636 37.1973 339.148 36.792C339.66 36.3653 339.98 35.8213 340.108 35.16ZM381.833 43H372.905L369.033 37.976H360.617V43H352.553V22.488H373.417C374.355 22.488 375.241 22.6587 376.073 23C376.926 23.32 377.683 23.768 378.345 24.344C379.006 24.92 379.55 25.6027 379.977 26.392C380.403 27.1813 380.681 28.0453 380.809 28.984C380.915 29.816 380.915 30.6373 380.809 31.448C380.659 32.664 380.243 33.7733 379.561 34.776C378.878 35.7573 378.003 36.5253 376.937 37.08L381.833 43ZM370.377 32.376C370.761 32.376 371.123 32.28 371.465 32.088C371.806 31.896 372.073 31.6293 372.265 31.288C372.478 30.968 372.585 30.616 372.585 30.232C372.585 29.848 372.478 29.4853 372.265 29.144C372.073 28.8027 371.806 28.536 371.465 28.344C371.123 28.152 370.761 28.0667 370.377 28.088H360.617V32.376H370.377ZM393.085 27.8V30.232H411.741V35.256H393.085V37.688H411.741V43H385.021V22.488H411.741V27.8H393.085ZM436.951 30.488C437.889 30.488 438.785 30.6053 439.639 30.84C440.513 31.0747 441.281 31.448 441.943 31.96C442.625 32.472 443.159 33.144 443.543 33.976C443.948 34.7867 444.151 35.7787 444.151 36.952C444.151 38.104 443.948 39.0747 443.543 39.864C443.159 40.632 442.625 41.2507 441.943 41.72C441.281 42.1893 440.513 42.52 439.639 42.712C438.785 42.904 437.889 43 436.951 43H422.487C421.548 43 420.652 42.84 419.799 42.52C418.967 42.1787 418.22 41.72 417.559 41.144C416.897 40.568 416.353 39.8853 415.927 39.096C415.5 38.2853 415.223 37.4107 415.095 36.472H423.319C423.553 36.9413 423.895 37.3147 424.343 37.592C424.791 37.848 425.281 37.9653 425.815 37.944L433.719 37.976C433.868 37.976 434.06 37.9653 434.295 37.944C434.551 37.9227 434.785 37.8587 434.999 37.752C435.233 37.6453 435.436 37.496 435.607 37.304C435.777 37.0907 435.863 36.8133 435.863 36.472C435.863 36.1093 435.777 35.832 435.607 35.64C435.436 35.448 435.233 35.2987 434.999 35.192C434.764 35.0853 434.529 35.0213 434.295 35C434.06 34.9787 433.868 34.968 433.719 34.968H422.743C421.804 34.968 420.897 34.8507 420.023 34.616C419.148 34.3813 418.369 34.008 417.687 33.496C417.025 32.984 416.492 32.3227 416.087 31.512C415.703 30.7013 415.511 29.7093 415.511 28.536C415.511 27.384 415.703 26.424 416.087 25.656C416.492 24.8667 417.025 24.2373 417.687 23.768C418.369 23.2987 419.137 22.968 419.991 22.776C420.865 22.584 421.772 22.488 422.711 22.488H436.471C437.409 22.488 438.305 22.6587 439.159 23C440.012 23.32 440.769 23.768 441.431 24.344C442.092 24.92 442.636 25.6027 443.063 26.392C443.489 27.1813 443.767 28.0453 443.895 28.984L435.671 29.016C435.436 28.5253 435.084 28.152 434.615 27.896C434.167 27.6187 433.676 27.4907 433.143 27.512H425.943C425.793 27.512 425.591 27.5227 425.335 27.544C425.1 27.5653 424.865 27.6293 424.631 27.736C424.417 27.8427 424.225 27.992 424.055 28.184C423.884 28.376 423.799 28.6533 423.799 29.016C423.799 29.3573 423.884 29.6347 424.055 29.848C424.225 30.04 424.428 30.1893 424.663 30.296C424.897 30.3813 425.132 30.4347 425.367 30.456C425.623 30.4773 425.815 30.488 425.943 30.488H436.951Z" fill="white"/>
<path d="M67.168 22.488H68.168V21.488H67.168V22.488ZM67.168 43V44H68.168V43H67.168ZM59.104 43H58.104V44H59.104V43ZM59.104 32.056H60.104V28.6579L58.2634 31.5143L59.104 32.056ZM53.248 41.144V42.144H53.7933L54.0886 41.6857L53.248 41.144ZM48.16 41.144L47.3194 41.6857L47.6147 42.144H48.16V41.144ZM42.304 32.056L43.1446 31.5143L41.304 28.6579V32.056H42.304ZM42.304 43V44H43.304V43H42.304ZM34.24 43H33.24V44H34.24V43ZM34.24 22.488V21.488H33.24V22.488H34.24ZM43.488 22.488L44.3367 21.9591L44.0431 21.488H43.488V22.488ZM50.688 34.04L49.8393 34.5689L50.6861 35.9275L51.5356 34.5706L50.688 34.04ZM57.92 22.488V21.488H57.3662L57.0724 21.9574L57.92 22.488ZM66.168 22.488V43H68.168V22.488H66.168ZM67.168 42H59.104V44H67.168V42ZM60.104 43V32.056H58.104V43H60.104ZM58.2634 31.5143L52.4074 40.6023L54.0886 41.6857L59.9446 32.5977L58.2634 31.5143ZM53.248 40.144H48.16V42.144H53.248V40.144ZM49.0006 40.6023L43.1446 31.5143L41.4634 32.5977L47.3194 41.6857L49.0006 40.6023ZM41.304 32.056V43H43.304V32.056H41.304ZM42.304 42H34.24V44H42.304V42ZM35.24 43V22.488H33.24V43H35.24ZM34.24 23.488H43.488V21.488H34.24V23.488ZM42.6393 23.0169L49.8393 34.5689L51.5367 33.5111L44.3367 21.9591L42.6393 23.0169ZM51.5356 34.5706L58.7676 23.0186L57.0724 21.9574L49.8404 33.5094L51.5356 34.5706ZM57.92 23.488H67.168V21.488H57.92V23.488ZM103.902 43V44H105.727L104.745 42.4621L103.902 43ZM94.0143 43L93.1348 43.476L93.4184 44H94.0143V43ZM92.1263 39.512L93.0057 39.036L92.7221 38.512H92.1263V39.512ZM81.4702 39.512V38.512H80.8792L80.5942 39.0298L81.4702 39.512ZM79.5503 43V44H80.1413L80.4263 43.4822L79.5503 43ZM69.6942 43L68.8512 42.4621L67.87 44H69.6942V43ZM82.7822 22.488V21.488H82.2341L81.9392 21.9501L82.7822 22.488ZM90.8143 22.488L91.6573 21.9501L91.3624 21.488H90.8143V22.488ZM89.5663 34.872V35.872H91.2533L90.4435 34.392L89.5663 34.872ZM86.7822 29.784L87.6595 29.304L86.7772 27.6914L85.9027 29.3083L86.7822 29.784ZM84.0303 34.872L83.1507 34.3963L82.3525 35.872H84.0303V34.872ZM103.902 42H94.0143V44H103.902V42ZM94.8937 42.524L93.0057 39.036L91.2468 39.988L93.1348 43.476L94.8937 42.524ZM92.1263 38.512H81.4702V40.512H92.1263V38.512ZM80.5942 39.0298L78.6742 42.5178L80.4263 43.4822L82.3463 39.9942L80.5942 39.0298ZM79.5503 42H69.6942V44H79.5503V42ZM70.5373 43.5379L83.6253 23.0259L81.9392 21.9501L68.8512 42.4621L70.5373 43.5379ZM82.7822 23.488H90.8143V21.488H82.7822V23.488ZM89.9712 23.0259L103.059 43.5379L104.745 42.4621L91.6573 21.9501L89.9712 23.0259ZM90.4435 34.392L87.6595 29.304L85.905 30.264L88.689 35.352L90.4435 34.392ZM85.9027 29.3083L83.1507 34.3963L84.9098 35.3477L87.6618 30.2597L85.9027 29.3083ZM84.0303 35.872H89.5663V33.872H84.0303V35.872ZM128.951 30.84L128.686 31.8042L128.692 31.8058L128.951 30.84ZM131.255 31.96L130.643 32.7507L130.649 32.7554L130.655 32.76L131.255 31.96ZM132.855 33.976L131.947 34.3951L131.954 34.4092L131.961 34.4232L132.855 33.976ZM132.855 39.864L131.966 39.4072L131.961 39.4168L132.855 39.864ZM131.255 41.72L130.689 40.896L130.683 40.9002L130.677 40.9045L131.255 41.72ZM128.951 42.712L128.737 41.7352L128.732 41.7364L128.951 42.712ZM109.111 42.52L108.732 43.4452L108.746 43.451L108.76 43.4563L109.111 42.52ZM106.871 41.144L107.528 40.3899L106.871 41.144ZM105.239 39.096L104.354 39.5618L104.36 39.5715L105.239 39.096ZM104.407 36.472V35.472H103.262L103.416 36.6071L104.407 36.472ZM112.631 36.472L113.526 36.0248L113.249 35.472H112.631V36.472ZM113.655 37.592L113.129 38.4423L113.144 38.4515L113.159 38.4602L113.655 37.592ZM115.127 37.944L115.131 36.944L115.109 36.9439L115.087 36.9448L115.127 37.944ZM123.031 37.976L123.027 38.976H123.031V37.976ZM123.607 37.944L123.524 36.9474L123.517 36.9481L123.607 37.944ZM124.311 37.752L123.897 36.8416L123.881 36.8493L123.864 36.8576L124.311 37.752ZM124.919 37.304L125.667 37.9684L125.684 37.949L125.7 37.9287L124.919 37.304ZM124.919 35.64L124.172 36.3044L124.172 36.3044L124.919 35.64ZM124.311 35.192L123.897 36.1024L124.311 35.192ZM123.607 35L123.517 35.9959L123.607 35ZM109.335 34.616L109.594 33.6502L109.335 34.616ZM106.999 33.496L106.387 34.2867L106.393 34.2914L106.399 34.296L106.999 33.496ZM105.399 31.512L104.496 31.9401L104.5 31.9497L104.505 31.9592L105.399 31.512ZM105.399 25.656L104.51 25.1992L104.505 25.2088L105.399 25.656ZM106.999 23.768L106.433 22.944L106.427 22.9482L106.421 22.9525L106.999 23.768ZM109.303 22.776L109.089 21.7992L109.084 21.8004L109.303 22.776ZM128.471 23L128.1 23.9285L128.11 23.9325L128.12 23.9363L128.471 23ZM130.743 24.344L130.086 25.0981L130.743 24.344ZM132.375 26.392L133.255 25.9165V25.9165L132.375 26.392ZM133.207 28.984L133.211 29.984L134.352 29.9796L134.198 28.8489L133.207 28.984ZM124.983 29.016L124.081 29.4475L124.354 30.0185L124.987 30.016L124.983 29.016ZM123.927 27.896L123.401 28.7463L123.424 28.7607L123.448 28.7739L123.927 27.896ZM122.455 27.512V28.512H122.475L122.495 28.5112L122.455 27.512ZM114.647 27.544L114.564 26.5474L114.557 26.5481L114.647 27.544ZM113.943 27.736L113.529 26.8256L113.513 26.8333L113.496 26.8416L113.943 27.736ZM113.367 28.184L112.62 27.5196V27.5196L113.367 28.184ZM113.367 29.848L112.586 30.4727L112.603 30.493L112.62 30.5124L113.367 29.848ZM113.975 30.296L113.561 31.2064L113.597 31.2225L113.634 31.2358L113.975 30.296ZM114.679 30.456L114.589 31.4519L114.596 31.4525L114.679 30.456ZM126.263 31.488C127.118 31.488 127.924 31.5947 128.686 31.8042L129.216 29.8758C128.272 29.616 127.286 29.488 126.263 29.488V31.488ZM128.692 31.8058C129.449 32.009 130.095 32.3265 130.643 32.7507L131.867 31.1693C131.093 30.5695 130.202 30.1403 129.21 29.8742L128.692 31.8058ZM130.655 32.76C131.196 33.1652 131.628 33.7022 131.947 34.3951L133.763 33.5569C133.315 32.5858 132.68 31.7788 131.855 31.16L130.655 32.76ZM131.961 34.4232C132.279 35.0603 132.463 35.8897 132.463 36.952H134.463C134.463 35.6676 134.242 34.513 133.75 33.5288L131.961 34.4232ZM132.463 36.952C132.463 37.9909 132.28 38.795 131.966 39.4072L133.745 40.3208C134.241 39.3544 134.463 38.2171 134.463 36.952H132.463ZM131.961 39.4168C131.65 40.0392 131.227 40.526 130.689 40.896L131.822 42.544C132.649 41.9753 133.293 41.2248 133.75 40.3112L131.961 39.4168ZM130.677 40.9045C130.135 41.2885 129.494 41.569 128.737 41.7353L129.166 43.6887C130.158 43.471 131.052 43.0902 131.834 42.5355L130.677 40.9045ZM128.732 41.7364C127.955 41.911 127.133 42 126.263 42V44C127.27 44 128.24 43.897 129.171 43.6876L128.732 41.7364ZM126.263 42H111.799V44H126.263V42ZM111.799 42C110.977 42 110.2 41.8603 109.462 41.5837L108.76 43.4563C109.729 43.8197 110.744 44 111.799 44V42ZM109.491 41.5948C108.757 41.2939 108.105 40.8923 107.528 40.3899L106.214 41.8981C106.96 42.5477 107.801 43.0634 108.732 43.4452L109.491 41.5948ZM107.528 40.3899C106.959 39.8945 106.49 39.3068 106.119 38.6205L104.36 39.5715C104.842 40.4638 105.461 41.2415 106.214 41.8981L107.528 40.3899ZM106.124 38.6303C105.754 37.9263 105.511 37.164 105.398 36.3369L103.416 36.6071C103.56 37.6573 103.872 38.6444 104.354 39.5617L106.124 38.6303ZM104.407 37.472H112.631V35.472H104.407V37.472ZM111.737 36.9192C112.055 37.5552 112.524 38.0677 113.129 38.4423L114.182 36.7417C113.891 36.5616 113.677 36.3275 113.526 36.0248L111.737 36.9192ZM113.159 38.4602C113.776 38.8126 114.453 38.9718 115.167 38.9432L115.087 36.9448C114.735 36.9589 114.431 36.8834 114.151 36.7238L113.159 38.4602ZM115.123 38.944L123.027 38.976L123.035 36.976L115.131 36.944L115.123 38.944ZM123.031 38.976C123.223 38.976 123.448 38.9626 123.698 38.9399L123.517 36.9481C123.297 36.9681 123.138 36.976 123.031 36.976V38.976ZM123.69 38.9405C124.063 38.9095 124.423 38.8142 124.758 38.6464L123.864 36.8576C123.773 36.9031 123.663 36.9359 123.524 36.9475L123.69 38.9405ZM124.725 38.6624C125.086 38.4981 125.403 38.2651 125.667 37.9684L124.172 36.6396C124.094 36.7269 124.005 36.7926 123.897 36.8416L124.725 38.6624ZM125.7 37.9287C126.045 37.4975 126.175 36.9825 126.175 36.472H124.175C124.175 36.5601 124.164 36.6136 124.155 36.6419C124.147 36.6679 124.14 36.6768 124.138 36.6793L125.7 37.9287ZM126.175 36.472C126.175 35.9647 126.056 35.4139 125.667 34.9756L124.172 36.3044C124.15 36.2802 124.149 36.2666 124.155 36.2861C124.163 36.3092 124.175 36.3666 124.175 36.472H126.175ZM125.667 34.9756C125.403 34.6789 125.086 34.4459 124.725 34.2816L123.897 36.1024C124.005 36.1514 124.094 36.2171 124.172 36.3044L125.667 34.9756ZM124.725 34.2816C124.398 34.1329 124.054 34.0365 123.698 34.0041L123.517 35.9959C123.63 36.0062 123.755 36.0378 123.897 36.1024L124.725 34.2816ZM123.698 34.0041C123.448 33.9814 123.223 33.968 123.031 33.968V35.968C123.138 35.968 123.297 35.9759 123.517 35.9959L123.698 34.0041ZM123.031 33.968H112.055V35.968H123.031V33.968ZM112.055 33.968C111.201 33.968 110.381 33.8613 109.594 33.6502L109.076 35.5818C110.038 35.84 111.032 35.968 112.055 35.968V33.968ZM109.594 33.6502C108.835 33.4465 108.174 33.1269 107.599 32.696L106.399 34.296C107.19 34.8891 108.086 35.3162 109.076 35.5818L109.594 33.6502ZM107.611 32.7053C107.078 32.2927 106.638 31.7526 106.294 31.0648L104.505 31.9592C104.972 32.8927 105.597 33.6753 106.387 34.2867L107.611 32.7053ZM106.303 31.0839C105.999 30.4416 105.823 29.605 105.823 28.536H103.823C103.823 29.8137 104.032 30.961 104.496 31.9401L106.303 31.0839ZM105.823 28.536C105.823 27.4886 105.999 26.6933 106.294 26.1032L104.505 25.2088C104.032 26.1547 103.823 27.2793 103.823 28.536H105.823ZM106.289 26.1128C106.628 25.4525 107.06 24.9514 107.578 24.5835L106.421 22.9525C105.616 23.5232 104.981 24.2808 104.51 25.1992L106.289 26.1128ZM107.566 24.592C108.138 24.1988 108.787 23.9172 109.523 23.7516L109.084 21.8004C108.113 22.0188 107.226 22.3985 106.433 22.944L107.566 24.592ZM109.518 23.7527C110.319 23.5769 111.153 23.488 112.023 23.488V21.488C111.016 21.488 110.037 21.5911 109.089 21.7993L109.518 23.7527ZM112.023 23.488H125.783V21.488H112.023V23.488ZM125.783 23.488C126.597 23.488 127.367 23.6354 128.1 23.9285L128.843 22.0715C127.869 21.6819 126.846 21.488 125.783 21.488V23.488ZM128.12 23.9363C128.866 24.216 129.519 24.6037 130.086 25.0981L131.4 23.5899C130.645 22.9323 129.783 22.424 128.822 22.0637L128.12 23.9363ZM130.086 25.0981C130.655 25.5935 131.125 26.1812 131.496 26.8675L133.255 25.9165C132.773 25.0242 132.154 24.2465 131.4 23.5899L130.086 25.0981ZM131.496 26.8675C131.862 27.5452 132.104 28.2929 132.216 29.1191L134.198 28.8489C134.055 27.7977 133.742 26.8175 133.255 25.9165L131.496 26.8675ZM133.203 27.984L124.979 28.016L124.987 30.016L133.211 29.984L133.203 27.984ZM125.885 28.5845C125.562 27.9078 125.063 27.3766 124.406 27.0181L123.448 28.7739C123.73 28.9274 123.935 29.1429 124.081 29.4475L125.885 28.5845ZM124.454 27.0457C123.834 26.6619 123.145 26.4836 122.415 26.5128L122.495 28.5112C122.832 28.4977 123.125 28.5754 123.401 28.7463L124.454 27.0457ZM122.455 26.512H115.255V28.512H122.455V26.512ZM115.255 26.512C115.065 26.512 114.831 26.5252 114.564 26.5475L114.73 28.5405C114.975 28.5201 115.146 28.512 115.255 28.512V26.512ZM114.557 26.5481C114.2 26.5805 113.857 26.6769 113.529 26.8256L114.357 28.6464C114.499 28.5818 114.625 28.5502 114.738 28.5399L114.557 26.5481ZM113.496 26.8416C113.16 27.0094 112.868 27.2399 112.62 27.5196L114.115 28.8484C114.207 28.7441 114.299 28.6759 114.39 28.6304L113.496 26.8416ZM112.62 27.5196C112.23 27.9579 112.111 28.5087 112.111 29.016H114.111C114.111 28.9106 114.124 28.8532 114.131 28.8301C114.137 28.8106 114.136 28.8242 114.115 28.8484L112.62 27.5196ZM112.111 29.016C112.111 29.5265 112.241 30.0415 112.586 30.4727L114.148 29.2233C114.146 29.2208 114.139 29.2119 114.131 29.1859C114.122 29.1576 114.111 29.1041 114.111 29.016H112.111ZM112.62 30.5124C112.884 30.8091 113.2 31.0421 113.561 31.2064L114.389 29.3856C114.281 29.3366 114.192 29.2709 114.115 29.1836L112.62 30.5124ZM113.634 31.2358C113.944 31.3488 114.263 31.4223 114.589 31.4519L114.77 29.4601C114.626 29.447 114.476 29.4138 114.317 29.3562L113.634 31.2358ZM114.596 31.4525C114.858 31.4744 115.084 31.488 115.255 31.488V29.488C115.17 29.488 115.012 29.4803 114.762 29.4595L114.596 31.4525ZM115.255 31.488H126.263V29.488H115.255V31.488ZM181.505 35.064L182.5 35.1545L182.6 34.064H181.505V35.064ZM181.441 35.768L180.445 35.6775L180.441 35.7226V35.768H181.441ZM181.376 36.472L180.393 36.2931L180.389 36.3149L180.386 36.3369L181.376 36.472ZM180.544 39.096L181.424 39.5715L181.429 39.5617L180.544 39.096ZM178.913 41.144L179.569 41.8981L178.913 41.144ZM176.641 42.52L176.992 43.4563L177.002 43.4525L177.012 43.4485L176.641 42.52ZM155.84 42.52L155.461 43.4452L155.475 43.451L155.489 43.4563L155.84 42.52ZM153.601 41.144L152.944 41.8981L153.601 41.144ZM151.968 39.096L151.084 39.5618L151.089 39.5715L151.968 39.096ZM151.136 36.504L152.127 36.3658L152.126 36.3614L151.136 36.504ZM151.136 28.984L152.126 29.1278L152.127 29.1191L151.136 28.984ZM151.968 26.392L151.089 25.9165V25.9165L151.968 26.392ZM153.601 24.344L154.257 25.0981L153.601 24.344ZM155.84 23L156.2 23.9334L156.212 23.9285L155.84 23ZM176.609 23L176.229 23.9252L176.243 23.931L176.257 23.9363L176.609 23ZM178.88 24.344L178.224 25.0981V25.0981L178.88 24.344ZM180.512 26.392L179.633 26.8675V26.8675L180.512 26.392ZM181.344 28.984L180.354 29.1191L180.357 29.1411L180.361 29.1629L181.344 28.984ZM181.441 29.688L182.436 29.5975V29.5975L181.441 29.688ZM181.505 30.392V31.392H182.6L182.5 30.3015L181.505 30.392ZM172.064 30.392H171.064V31.392H172.064V30.392ZM172.064 30.328H173.064V30.2321L173.046 30.138L172.064 30.328ZM171.105 28.728L170.464 29.4962L170.474 29.5043L170.484 29.512L171.105 28.728ZM160.449 28.728L161.069 29.512L161.079 29.5043L161.089 29.4962L160.449 28.728ZM159.489 30.328L160.467 30.534L160.469 30.526L160.47 30.518L159.489 30.328ZM159.489 35.16L160.47 34.97L160.469 34.962L160.467 34.954L159.489 35.16ZM160.449 36.792L159.808 37.5602L159.818 37.5683L159.828 37.576L160.449 36.792ZM171.105 36.792L171.725 37.576L171.735 37.5683L171.745 37.5602L171.105 36.792ZM172.064 35.16L173.046 35.35L173.064 35.2559V35.16H172.064ZM172.064 35.064V34.064H171.064V35.064H172.064ZM180.509 34.9735C180.487 35.2081 180.466 35.4428 180.445 35.6775L182.436 35.8585C182.458 35.6239 182.479 35.3892 182.5 35.1545L180.509 34.9735ZM180.441 35.768C180.441 35.9417 180.425 36.1165 180.393 36.2931L182.36 36.6509C182.414 36.3582 182.441 36.0636 182.441 35.768H180.441ZM180.386 36.3369C180.273 37.164 180.03 37.9263 179.66 38.6303L181.429 39.5617C181.912 38.6444 182.224 37.6573 182.367 36.6071L180.386 36.3369ZM179.665 38.6205C179.294 39.3068 178.825 39.8945 178.256 40.3899L179.569 41.8981C180.323 41.2415 180.942 40.4638 181.424 39.5715L179.665 38.6205ZM178.256 40.3899C177.683 40.8887 177.023 41.2899 176.269 41.5915L177.012 43.4485C177.964 43.0675 178.819 42.5513 179.569 41.8981L178.256 40.3899ZM176.289 41.5837C175.552 41.8603 174.775 42 173.952 42V44C175.007 44 176.023 43.8197 176.992 43.4563L176.289 41.5837ZM173.952 42H158.529V44H173.952V42ZM158.529 42C157.706 42 156.929 41.8603 156.192 41.5837L155.489 43.4563C156.458 43.8197 157.474 44 158.529 44V42ZM156.22 41.5948C155.487 41.2939 154.834 40.8923 154.257 40.3899L152.944 41.8981C153.69 42.5477 154.53 43.0634 155.461 43.4452L156.22 41.5948ZM154.257 40.3899C153.688 39.8945 153.219 39.3068 152.848 38.6205L151.089 39.5715C151.571 40.4638 152.19 41.2415 152.944 41.8981L154.257 40.3899ZM152.853 38.6303C152.481 37.923 152.239 37.17 152.127 36.3658L150.146 36.6422C150.29 37.6727 150.602 38.6477 151.084 39.5617L152.853 38.6303ZM152.126 36.3614C151.777 33.9382 151.777 31.528 152.126 29.1278L150.147 28.8402C149.77 31.432 149.77 34.0351 150.147 36.6466L152.126 36.3614ZM152.127 29.1191C152.24 28.2929 152.482 27.5452 152.848 26.8675L151.089 25.9165C150.602 26.8175 150.289 27.7977 150.146 28.8489L152.127 29.1191ZM152.848 26.8675C153.219 26.1812 153.688 25.5935 154.257 25.0981L152.944 23.5899C152.19 24.2465 151.571 25.0242 151.089 25.9165L152.848 26.8675ZM154.257 25.0981C154.829 24.6 155.475 24.2121 156.199 23.9333L155.482 22.0667C154.542 22.4279 153.695 22.936 152.944 23.5899L154.257 25.0981ZM156.212 23.9285C156.945 23.6354 157.714 23.488 158.529 23.488V21.488C157.465 21.488 156.443 21.6819 155.469 22.0715L156.212 23.9285ZM158.529 23.488H173.952V21.488H158.529V23.488ZM173.952 23.488C174.767 23.488 175.523 23.6354 176.229 23.9252L176.988 22.0748C176.03 21.6819 175.016 21.488 173.952 21.488V23.488ZM176.257 23.9363C177.003 24.216 177.656 24.6037 178.224 25.0981L179.537 23.5899C178.782 22.9323 177.92 22.424 176.96 22.0637L176.257 23.9363ZM178.224 25.0981C178.793 25.5935 179.262 26.1812 179.633 26.8675L181.392 25.9165C180.91 25.0242 180.291 24.2465 179.537 23.5899L178.224 25.0981ZM179.633 26.8675C179.999 27.5452 180.241 28.2929 180.354 29.1191L182.335 28.8489C182.192 27.7977 181.879 26.8175 181.392 25.9165L179.633 26.8675ZM180.361 29.1629C180.398 29.3687 180.426 29.5738 180.445 29.7785L182.436 29.5975C182.412 29.3328 182.376 29.0687 182.328 28.8051L180.361 29.1629ZM180.445 29.7785C180.466 30.0132 180.487 30.2479 180.509 30.4825L182.5 30.3015C182.479 30.0668 182.458 29.8321 182.436 29.5975L180.445 29.7785ZM181.505 29.392H172.064V31.392H181.505V29.392ZM173.064 30.392V30.328H171.064V30.392H173.064ZM173.046 30.138C172.874 29.2499 172.431 28.5028 171.725 27.944L170.484 29.512C170.802 29.7639 170.999 30.0834 171.083 30.518L173.046 30.138ZM171.745 27.9598C171.048 27.3794 170.223 27.088 169.312 27.088V29.088C169.767 29.088 170.137 29.2232 170.464 29.4962L171.745 27.9598ZM169.312 27.088H162.208V29.088H169.312V27.088ZM162.208 27.088C161.311 27.088 160.499 27.3846 159.808 27.9598L161.089 29.4962C161.423 29.218 161.783 29.088 162.208 29.088V27.088ZM159.828 27.944C159.122 28.5028 158.679 29.2499 158.507 30.138L160.47 30.518C160.554 30.0834 160.751 29.7639 161.069 29.512L159.828 27.944ZM158.51 30.122C158.325 30.9989 158.232 31.8786 158.232 32.76H160.232C160.232 32.0201 160.31 31.2784 160.467 30.534L158.51 30.122ZM158.232 32.76C158.232 33.6219 158.326 34.4909 158.51 35.366L160.467 34.954C160.31 34.2077 160.232 33.4768 160.232 32.76H158.232ZM158.507 35.35C158.678 36.2351 159.117 36.9842 159.808 37.5602L161.089 36.0238C160.756 35.7464 160.555 35.4076 160.47 34.97L158.507 35.35ZM159.828 37.576C160.525 38.1279 161.344 38.4 162.24 38.4V36.4C161.772 36.4 161.396 36.2667 161.069 36.008L159.828 37.576ZM162.24 38.4H169.312V36.4H162.24V38.4ZM169.312 38.4C170.209 38.4 171.028 38.1279 171.725 37.576L170.484 36.008C170.157 36.2667 169.781 36.4 169.312 36.4V38.4ZM171.745 37.5602C172.436 36.9842 172.875 36.2351 173.046 35.35L171.083 34.97C170.998 35.4076 170.797 35.7464 170.464 36.0238L171.745 37.5602ZM173.064 35.16V35.064H171.064V35.16H173.064ZM172.064 36.064H181.505V34.064H172.064V36.064ZM214.458 43V44H216.582L215.228 42.3627L214.458 43ZM205.529 43L204.737 43.6104L205.038 44H205.529V43ZM201.658 37.976L202.45 37.3656L202.149 36.976H201.658V37.976ZM193.242 37.976V36.976H192.242V37.976H193.242ZM193.242 43V44H194.242V43H193.242ZM185.178 43H184.178V44H185.178V43ZM185.178 22.488V21.488H184.178V22.488H185.178ZM208.698 23L208.318 23.9252L208.332 23.931L208.346 23.9363L208.698 23ZM210.969 24.344L210.313 25.0981L210.313 25.0981L210.969 24.344ZM212.602 26.392L213.481 25.9165L212.602 26.392ZM213.434 28.984L214.425 28.8568L214.424 28.8489L213.434 28.984ZM213.434 31.448L212.442 31.3175L212.441 31.3261L213.434 31.448ZM212.186 34.776L213.006 35.3471L213.012 35.3388L212.186 34.776ZM209.561 37.08L209.1 36.1928L208.002 36.7637L208.791 37.7173L209.561 37.08ZM204.09 32.088L203.599 31.2164V31.2164L204.09 32.088ZM204.889 31.288L204.057 30.7333L204.036 30.7648L204.018 30.7977L204.889 31.288ZM204.889 29.144L204.018 29.6343L204.029 29.6544L204.042 29.674L204.889 29.144ZM204.09 28.344L203.599 29.2156L204.09 28.344ZM203.001 28.088V29.088H203.029L203.057 29.0865L203.001 28.088ZM193.242 28.088V27.088H192.242V28.088H193.242ZM193.242 32.376H192.242V33.376H193.242V32.376ZM214.458 42H205.529V44H214.458V42ZM206.322 42.3896L202.45 37.3656L200.865 38.5864L204.737 43.6104L206.322 42.3896ZM201.658 36.976H193.242V38.976H201.658V36.976ZM192.242 37.976V43H194.242V37.976H192.242ZM193.242 42H185.178V44H193.242V42ZM186.178 43V22.488H184.178V43H186.178ZM185.178 23.488H206.042V21.488H185.178V23.488ZM206.042 23.488C206.856 23.488 207.612 23.6354 208.318 23.9252L209.077 22.0748C208.119 21.6819 207.105 21.488 206.042 21.488V23.488ZM208.346 23.9363C209.092 24.216 209.745 24.6037 210.313 25.0981L211.626 23.5899C210.871 22.9323 210.009 22.424 209.049 22.0637L208.346 23.9363ZM210.313 25.0981C210.882 25.5935 211.351 26.1812 211.722 26.8675L213.481 25.9165C212.999 25.0242 212.38 24.2465 211.626 23.5899L210.313 25.0981ZM211.722 26.8675C212.088 27.5452 212.33 28.293 212.443 29.1191L214.424 28.8489C214.281 27.7977 213.968 26.8175 213.481 25.9165L211.722 26.8675ZM212.442 29.1112C212.538 29.8599 212.537 30.5946 212.442 31.3175L214.425 31.5785C214.543 30.6801 214.543 29.7721 214.425 28.8568L212.442 29.1112ZM212.441 31.3261C212.311 32.3857 211.951 33.3436 211.359 34.2132L213.012 35.3388C213.785 34.2031 214.258 32.9423 214.426 31.5699L212.441 31.3261ZM211.365 34.2049C210.775 35.0525 210.024 35.7124 209.1 36.1928L210.023 37.9672C211.232 37.3383 212.231 36.4621 213.006 35.3471L211.365 34.2049ZM208.791 37.7173L213.687 43.6373L215.228 42.3627L210.332 36.4427L208.791 37.7173ZM203.001 33.376C203.561 33.376 204.092 33.234 204.58 32.9596L203.599 31.2164C203.404 31.326 203.21 31.376 203.001 31.376V33.376ZM204.58 32.9596C205.081 32.6778 205.479 32.2792 205.761 31.7783L204.018 30.7977C203.916 30.9794 203.781 31.1142 203.599 31.2164L204.58 32.9596ZM205.722 31.8427C206.044 31.3587 206.21 30.8137 206.21 30.232H204.21C204.21 30.4182 204.161 30.5773 204.057 30.7333L205.722 31.8427ZM206.21 30.232C206.21 29.6513 206.045 29.1062 205.738 28.614L204.042 29.674C204.161 29.8644 204.21 30.0447 204.21 30.232H206.21ZM205.761 28.6537C205.479 28.1528 205.081 27.7542 204.58 27.4724L203.599 29.2156C203.781 29.3178 203.916 29.4526 204.018 29.6343L205.761 28.6537ZM204.58 27.4724C204.076 27.1888 203.524 27.0574 202.946 27.0895L203.057 29.0865C203.247 29.0759 203.421 29.1152 203.599 29.2156L204.58 27.4724ZM203.001 27.088H193.242V29.088H203.001V27.088ZM192.242 28.088V32.376H194.242V28.088H192.242ZM193.242 33.376H203.001V31.376H193.242V33.376ZM225.71 27.8V26.8H224.71V27.8H225.71ZM225.71 30.232H224.71V31.232H225.71V30.232ZM244.366 30.232H245.366V29.232H244.366V30.232ZM244.366 35.256V36.256H245.366V35.256H244.366ZM225.71 35.256V34.256H224.71V35.256H225.71ZM225.71 37.688H224.71V38.688H225.71V37.688ZM244.366 37.688H245.366V36.688H244.366V37.688ZM244.366 43V44H245.366V43H244.366ZM217.646 43H216.646V44H217.646V43ZM217.646 22.488V21.488H216.646V22.488H217.646ZM244.366 22.488H245.366V21.488H244.366V22.488ZM244.366 27.8V28.8H245.366V27.8H244.366ZM224.71 27.8V30.232H226.71V27.8H224.71ZM225.71 31.232H244.366V29.232H225.71V31.232ZM243.366 30.232V35.256H245.366V30.232H243.366ZM244.366 34.256H225.71V36.256H244.366V34.256ZM224.71 35.256V37.688H226.71V35.256H224.71ZM225.71 38.688H244.366V36.688H225.71V38.688ZM243.366 37.688V43H245.366V37.688H243.366ZM244.366 42H217.646V44H244.366V42ZM218.646 43V22.488H216.646V43H218.646ZM217.646 23.488H244.366V21.488H217.646V23.488ZM243.366 22.488V27.8H245.366V22.488H243.366ZM244.366 26.8H225.71V28.8H244.366V26.8ZM280.996 43V44H282.82L281.839 42.4621L280.996 43ZM271.108 43L270.229 43.476L270.512 44H271.108V43ZM269.22 39.512L270.099 39.036L269.816 38.512H269.22V39.512ZM258.564 39.512V38.512H257.973L257.688 39.0298L258.564 39.512ZM256.644 43V44H257.235L257.52 43.4822L256.644 43ZM246.788 43L245.945 42.4621L244.964 44H246.788V43ZM259.876 22.488V21.488H259.328L259.033 21.9501L259.876 22.488ZM267.908 22.488L268.751 21.9501L268.456 21.488H267.908V22.488ZM266.66 34.872V35.872H268.347L267.537 34.392L266.66 34.872ZM263.876 29.784L264.753 29.304L263.871 27.6914L262.996 29.3083L263.876 29.784ZM261.124 34.872L260.244 34.3963L259.446 35.872H261.124V34.872ZM280.996 42H271.108V44H280.996V42ZM271.987 42.524L270.099 39.036L268.341 39.988L270.229 43.476L271.987 42.524ZM269.22 38.512H258.564V40.512H269.22V38.512ZM257.688 39.0298L255.768 42.5178L257.52 43.4822L259.44 39.9942L257.688 39.0298ZM256.644 42H246.788V44H256.644V42ZM247.631 43.5379L260.719 23.0259L259.033 21.9501L245.945 42.4621L247.631 43.5379ZM259.876 23.488H267.908V21.488H259.876V23.488ZM267.065 23.0259L280.153 43.5379L281.839 42.4621L268.751 21.9501L267.065 23.0259ZM267.537 34.392L264.753 29.304L262.999 30.264L265.783 35.352L267.537 34.392ZM262.996 29.3083L260.244 34.3963L262.004 35.3477L264.756 30.2597L262.996 29.3083ZM261.124 35.872H266.66V33.872H261.124V35.872ZM313.665 28.984L314.657 28.8579L314.656 28.8489L313.665 28.984ZM313.665 36.472L314.656 36.6071L314.657 36.6002L313.665 36.472ZM312.833 39.096L313.713 39.5715L313.718 39.5617L312.833 39.096ZM311.201 41.144L311.858 41.8981L311.201 41.144ZM308.929 42.52L309.28 43.4563L309.291 43.4525L309.301 43.4485L308.929 42.52ZM283.521 43H282.521V44H283.521V43ZM283.521 22.488V21.488H282.521V22.488H283.521ZM308.929 23L308.558 23.9285L308.568 23.9325L308.578 23.9363L308.929 23ZM311.201 24.344L310.544 25.0981L311.201 24.344ZM312.833 26.392L313.713 25.9165V25.9165L312.833 26.392ZM305.281 35.16L304.305 34.9417L304.302 34.9558L304.299 34.97L305.281 35.16ZM305.281 30.328L304.299 30.518L304.302 30.5336L304.306 30.5491L305.281 30.328ZM304.321 28.728L303.681 29.4962L303.691 29.5043L303.701 29.512L304.321 28.728ZM291.585 28.088V27.088H290.585V28.088H291.585ZM291.585 37.4H290.585V38.4H291.585V37.4ZM304.321 36.792L304.942 37.576L304.952 37.5683L304.961 37.5602L304.321 36.792ZM312.673 29.1101C312.983 31.5444 312.982 33.9549 312.674 36.3438L314.657 36.6002C314.988 34.0397 314.988 31.4582 314.657 28.8579L312.673 29.1101ZM312.674 36.3369C312.562 37.164 312.319 37.9263 311.948 38.6303L313.718 39.5617C314.201 38.6444 314.513 37.6573 314.656 36.6071L312.674 36.3369ZM311.954 38.6205C311.583 39.3068 311.113 39.8945 310.544 40.3899L311.858 41.8981C312.612 41.2415 313.231 40.4638 313.713 39.5715L311.954 38.6205ZM310.544 40.3899C309.972 40.8887 309.312 41.2899 308.558 41.5915L309.301 43.4485C310.253 43.0675 311.108 42.5513 311.858 41.8981L310.544 40.3899ZM308.578 41.5837C307.84 41.8603 307.064 42 306.241 42V44C307.296 44 308.311 43.8197 309.28 43.4563L308.578 41.5837ZM306.241 42H283.521V44H306.241V42ZM284.521 43V22.488H282.521V43H284.521ZM283.521 23.488H306.241V21.488H283.521V23.488ZM306.241 23.488C307.055 23.488 307.825 23.6354 308.558 23.9285L309.301 22.0715C308.327 21.6819 307.304 21.488 306.241 21.488V23.488ZM308.578 23.9363C309.324 24.216 309.977 24.6037 310.544 25.0981L311.858 23.5899C311.103 22.9323 310.241 22.424 309.28 22.0637L308.578 23.9363ZM310.544 25.0981C311.113 25.5935 311.583 26.1812 311.954 26.8675L313.713 25.9165C313.231 25.0242 312.612 24.2465 311.858 23.5899L310.544 25.0981ZM311.954 26.8675C312.32 27.5452 312.562 28.293 312.674 29.1191L314.656 28.8489C314.513 27.7977 314.2 26.8175 313.713 25.9165L311.954 26.8675ZM306.257 35.3783C306.652 33.6142 306.652 31.8534 306.257 30.1069L304.306 30.5491C304.635 32.0026 304.636 33.4632 304.305 34.9417L306.257 35.3783ZM306.263 30.138C306.091 29.2499 305.648 28.5028 304.942 27.944L303.701 29.512C304.019 29.7639 304.215 30.0834 304.299 30.518L306.263 30.138ZM304.961 27.9598C304.271 27.3846 303.458 27.088 302.561 27.088V29.088C302.987 29.088 303.347 29.218 303.681 29.4962L304.961 27.9598ZM302.561 27.088H291.585V29.088H302.561V27.088ZM290.585 28.088V37.4H292.585V28.088H290.585ZM291.585 38.4H302.561V36.4H291.585V38.4ZM302.561 38.4C303.445 38.4 304.251 38.1232 304.942 37.576L303.701 36.008C303.368 36.2715 303 36.4 302.561 36.4V38.4ZM304.961 37.5602C305.653 36.9842 306.092 36.2351 306.263 35.35L304.299 34.97C304.215 35.4076 304.014 35.7464 303.681 36.0238L304.961 37.5602ZM348.46 28.984L347.469 29.1191L347.469 29.1206L348.46 28.984ZM348.492 36.472L349.483 36.6071L349.484 36.5981L348.492 36.472ZM347.66 39.096L348.54 39.5715L348.545 39.5617L347.66 39.096ZM346.028 41.144L345.371 40.3899L346.028 41.144ZM343.756 42.52L344.107 43.4563L344.117 43.4525L344.127 43.4485L343.756 42.52ZM322.028 42.52L321.648 43.4452L321.663 43.451L321.677 43.4563L322.028 42.52ZM319.788 41.144L319.131 41.8981L319.788 41.144ZM318.156 39.096L317.271 39.5618L317.276 39.5715L318.156 39.096ZM317.324 36.504L318.314 36.3658L318.314 36.3614L317.324 36.504ZM317.324 28.984L318.314 29.1278L318.315 29.1191L317.324 28.984ZM318.156 26.392L317.276 25.9165V25.9165L318.156 26.392ZM319.788 24.344L320.445 25.0981L319.788 24.344ZM322.028 23L322.387 23.9334L322.399 23.9285L322.028 23ZM343.724 23L343.344 23.9252L343.359 23.931L343.373 23.9363L343.724 23ZM345.996 24.344L345.339 25.0981L345.996 24.344ZM347.628 26.392L348.508 25.9165V25.9165L347.628 26.392ZM340.108 35.16L339.127 34.9664L339.126 34.97L340.108 35.16ZM340.108 30.328L339.126 30.518L339.127 30.5241L340.108 30.328ZM339.148 28.728L338.508 29.4962L338.517 29.5043L338.527 29.512L339.148 28.728ZM326.636 28.728L327.257 29.512L327.267 29.5043L327.276 29.4962L326.636 28.728ZM325.676 30.328L326.655 30.534L326.656 30.526L326.658 30.518L325.676 30.328ZM325.676 35.16L326.658 34.97L326.656 34.962L326.655 34.954L325.676 35.16ZM326.636 36.792L325.996 37.5602L326.005 37.5683L326.015 37.576L326.636 36.792ZM339.148 36.792L339.769 37.576L339.779 37.5683L339.788 37.5602L339.148 36.792ZM347.469 29.1206C347.798 31.5068 347.809 33.9144 347.5 36.3459L349.484 36.5981C349.815 33.9949 349.804 31.4105 349.451 28.8474L347.469 29.1206ZM347.501 36.3369C347.388 37.164 347.146 37.9263 346.775 38.6303L348.545 39.5617C349.028 38.6444 349.34 37.6573 349.483 36.6071L347.501 36.3369ZM346.78 38.6205C346.409 39.3068 345.94 39.8945 345.371 40.3899L346.685 41.8981C347.439 41.2415 348.057 40.4638 348.54 39.5715L346.78 38.6205ZM345.371 40.3899C344.799 40.8887 344.139 41.2899 343.385 41.5915L344.127 43.4485C345.08 43.0675 345.935 42.5513 346.685 41.8981L345.371 40.3899ZM343.405 41.5837C342.667 41.8603 341.89 42 341.068 42V44C342.123 44 343.138 43.8197 344.107 43.4563L343.405 41.5837ZM341.068 42H324.716V44H341.068V42ZM324.716 42C323.894 42 323.117 41.8603 322.379 41.5837L321.677 43.4563C322.646 43.8197 323.661 44 324.716 44V42ZM322.408 41.5948C321.674 41.2939 321.022 40.8923 320.445 40.3899L319.131 41.8981C319.877 42.5477 320.718 43.0634 321.648 43.4452L322.408 41.5948ZM320.445 40.3899C319.876 39.8945 319.407 39.3068 319.036 38.6205L317.276 39.5715C317.759 40.4638 318.377 41.2415 319.131 41.8981L320.445 40.3899ZM319.041 38.6303C318.669 37.923 318.427 37.17 318.314 36.3658L316.334 36.6422C316.477 37.6727 316.79 38.6477 317.271 39.5617L319.041 38.6303ZM318.314 36.3614C317.965 33.9382 317.965 31.528 318.314 29.1278L316.334 28.8402C315.958 31.432 315.958 34.0351 316.334 36.6466L318.314 36.3614ZM318.315 29.1191C318.427 28.2929 318.669 27.5452 319.036 26.8675L317.276 25.9165C316.789 26.8175 316.477 27.7977 316.333 28.8489L318.315 29.1191ZM319.036 26.8675C319.407 26.1812 319.876 25.5935 320.445 25.0981L319.131 23.5899C318.377 24.2465 317.759 25.0242 317.276 25.9165L319.036 26.8675ZM320.445 25.0981C321.017 24.6 321.662 24.2121 322.387 23.9333L321.669 22.0667C320.73 22.4279 319.882 22.936 319.131 23.5899L320.445 25.0981ZM322.399 23.9285C323.132 23.6354 323.902 23.488 324.716 23.488V21.488C323.653 21.488 322.631 21.6819 321.657 22.0715L322.399 23.9285ZM324.716 23.488H341.068V21.488H324.716V23.488ZM341.068 23.488C341.882 23.488 342.638 23.6354 343.344 23.9252L344.104 22.0748C343.146 21.6819 342.131 21.488 341.068 21.488V23.488ZM343.373 23.9363C344.119 24.216 344.772 24.6037 345.339 25.0981L346.653 23.5899C345.898 22.9323 345.036 22.424 344.075 22.0637L343.373 23.9363ZM345.339 25.0981C345.908 25.5935 346.377 26.1812 346.748 26.8675L348.508 25.9165C348.025 25.0242 347.407 24.2465 346.653 23.5899L345.339 25.0981ZM346.748 26.8675C347.115 27.5452 347.357 28.293 347.469 29.1191L349.451 28.8489C349.307 27.7977 348.995 26.8175 348.508 25.9165L346.748 26.8675ZM341.089 35.3536C341.434 33.6053 341.435 31.8622 341.089 30.1319L339.127 30.5241C339.421 31.9938 339.422 33.472 339.127 34.9664L341.089 35.3536ZM341.09 30.138C340.918 29.2499 340.475 28.5028 339.769 27.944L338.527 29.512C338.845 29.7639 339.042 30.0834 339.126 30.518L341.09 30.138ZM339.788 27.9598C339.092 27.3794 338.266 27.088 337.356 27.088V29.088C337.811 29.088 338.18 29.2232 338.508 29.4962L339.788 27.9598ZM337.356 27.088H328.396V29.088H337.356V27.088ZM328.396 27.088C327.499 27.088 326.686 27.3846 325.996 27.9598L327.276 29.4962C327.61 29.218 327.971 29.088 328.396 29.088V27.088ZM326.015 27.944C325.309 28.5028 324.866 29.2499 324.694 30.138L326.658 30.518C326.742 30.0834 326.939 29.7639 327.257 29.512L326.015 27.944ZM324.697 30.122C324.513 30.9989 324.42 31.8786 324.42 32.76H326.42C326.42 32.0201 326.498 31.2784 326.655 30.534L324.697 30.122ZM324.42 32.76C324.42 33.6219 324.513 34.4909 324.697 35.366L326.655 34.954C326.497 34.2077 326.42 33.4768 326.42 32.76H324.42ZM324.694 35.35C324.866 36.2351 325.305 36.9842 325.996 37.5602L327.276 36.0238C326.943 35.7464 326.742 35.4076 326.658 34.97L324.694 35.35ZM326.015 37.576C326.712 38.1279 327.531 38.4 328.428 38.4V36.4C327.96 36.4 327.584 36.2667 327.257 36.008L326.015 37.576ZM328.428 38.4H337.356V36.4H328.428V38.4ZM337.356 38.4C338.253 38.4 339.072 38.1279 339.769 37.576L338.527 36.008C338.2 36.2667 337.824 36.4 337.356 36.4V38.4ZM339.788 37.5602C340.479 36.9842 340.918 36.2351 341.09 35.35L339.126 34.97C339.042 35.4076 338.841 35.7464 338.508 36.0238L339.788 37.5602ZM381.832 43V44H383.957L382.603 42.3627L381.832 43ZM372.905 43L372.112 43.6104L372.413 44H372.905V43ZM369.033 37.976L369.825 37.3656L369.524 36.976H369.033V37.976ZM360.617 37.976V36.976H359.617V37.976H360.617ZM360.617 43V44H361.617V43H360.617ZM352.552 43H351.552V44H352.552V43ZM352.552 22.488V21.488H351.552V22.488H352.552ZM376.073 23L375.693 23.9252L375.707 23.931L375.721 23.9363L376.073 23ZM378.345 24.344L377.688 25.0981V25.0981L378.345 24.344ZM379.977 26.392L380.856 25.9165L379.977 26.392ZM380.809 28.984L381.8 28.8568L381.799 28.8489L380.809 28.984ZM380.809 31.448L379.817 31.3175L379.816 31.3261L380.809 31.448ZM379.56 34.776L380.381 35.3471L380.387 35.3388L379.56 34.776ZM376.936 37.08L376.475 36.1928L375.377 36.7637L376.166 37.7173L376.936 37.08ZM371.465 32.088L370.974 31.2164V31.2164L371.465 32.088ZM372.264 31.288L371.432 30.7333L371.411 30.7648L371.393 30.7977L372.264 31.288ZM372.264 29.144L371.393 29.6343L371.404 29.6544L371.417 29.674L372.264 29.144ZM371.465 28.344L370.974 29.2156L371.465 28.344ZM370.376 28.088V29.088H370.404L370.432 29.0865L370.376 28.088ZM360.617 28.088V27.088H359.617V28.088H360.617ZM360.617 32.376H359.617V33.376H360.617V32.376ZM381.832 42H372.905V44H381.832V42ZM373.697 42.3896L369.825 37.3656L368.24 38.5864L372.112 43.6104L373.697 42.3896ZM369.033 36.976H360.617V38.976H369.033V36.976ZM359.617 37.976V43H361.617V37.976H359.617ZM360.617 42H352.552V44H360.617V42ZM353.552 43V22.488H351.552V43H353.552ZM352.552 23.488H373.417V21.488H352.552V23.488ZM373.417 23.488C374.231 23.488 374.987 23.6354 375.693 23.9252L376.452 22.0748C375.494 21.6819 374.48 21.488 373.417 21.488V23.488ZM375.721 23.9363C376.467 24.216 377.12 24.6037 377.688 25.0981L379.001 23.5899C378.246 22.9323 377.384 22.424 376.424 22.0637L375.721 23.9363ZM377.688 25.0981C378.257 25.5935 378.726 26.1812 379.097 26.8675L380.856 25.9165C380.374 25.0242 379.755 24.2465 379.001 23.5899L377.688 25.0981ZM379.097 26.8675C379.463 27.5452 379.705 28.293 379.818 29.1191L381.799 28.8489C381.656 27.7977 381.343 26.8175 380.856 25.9165L379.097 26.8675ZM379.817 29.1112C379.913 29.8599 379.912 30.5946 379.817 31.3175L381.8 31.5785C381.918 30.6801 381.918 29.7721 381.8 28.8568L379.817 29.1112ZM379.816 31.3261C379.686 32.3857 379.326 33.3436 378.734 34.2132L380.387 35.3388C381.16 34.2031 381.633 32.9423 381.801 31.5699L379.816 31.3261ZM378.74 34.2049C378.15 35.0525 377.399 35.7124 376.475 36.1928L377.398 37.9672C378.607 37.3383 379.606 36.4621 380.381 35.3471L378.74 34.2049ZM376.166 37.7173L381.062 43.6373L382.603 42.3627L377.707 36.4427L376.166 37.7173ZM370.376 33.376C370.936 33.376 371.467 33.234 371.955 32.9596L370.974 31.2164C370.779 31.326 370.585 31.376 370.376 31.376V33.376ZM371.955 32.9596C372.456 32.6778 372.854 32.2792 373.136 31.7783L371.393 30.7977C371.291 30.9794 371.156 31.1142 370.974 31.2164L371.955 32.9596ZM373.097 31.8427C373.419 31.3587 373.585 30.8137 373.585 30.232H371.585C371.585 30.4182 371.536 30.5773 371.432 30.7333L373.097 31.8427ZM373.585 30.232C373.585 29.6513 373.42 29.1062 373.112 28.614L371.417 29.674C371.536 29.8644 371.585 30.0447 371.585 30.232H373.585ZM373.136 28.6537C372.854 28.1528 372.456 27.7542 371.955 27.4724L370.974 29.2156C371.156 29.3178 371.291 29.4526 371.393 29.6343L373.136 28.6537ZM371.955 27.4724C371.451 27.1888 370.899 27.0574 370.321 27.0895L370.432 29.0865C370.622 29.0759 370.796 29.1152 370.974 29.2156L371.955 27.4724ZM370.376 27.088H360.617V29.088H370.376V27.088ZM359.617 28.088V32.376H361.617V28.088H359.617ZM360.617 33.376H370.376V31.376H360.617V33.376ZM393.085 27.8V26.8H392.085V27.8H393.085ZM393.085 30.232H392.085V31.232H393.085V30.232ZM411.741 30.232H412.741V29.232H411.741V30.232ZM411.741 35.256V36.256H412.741V35.256H411.741ZM393.085 35.256V34.256H392.085V35.256H393.085ZM393.085 37.688H392.085V38.688H393.085V37.688ZM411.741 37.688H412.741V36.688H411.741V37.688ZM411.741 43V44H412.741V43H411.741ZM385.021 43H384.021V44H385.021V43ZM385.021 22.488V21.488H384.021V22.488H385.021ZM411.741 22.488H412.741V21.488H411.741V22.488ZM411.741 27.8V28.8H412.741V27.8H411.741ZM392.085 27.8V30.232H394.085V27.8H392.085ZM393.085 31.232H411.741V29.232H393.085V31.232ZM410.741 30.232V35.256H412.741V30.232H410.741ZM411.741 34.256H393.085V36.256H411.741V34.256ZM392.085 35.256V37.688H394.085V35.256H392.085ZM393.085 38.688H411.741V36.688H393.085V38.688ZM410.741 37.688V43H412.741V37.688H410.741ZM411.741 42H385.021V44H411.741V42ZM386.021 43V22.488H384.021V43H386.021ZM385.021 23.488H411.741V21.488H385.021V23.488ZM410.741 22.488V27.8H412.741V22.488H410.741ZM411.741 26.8H393.085V28.8H411.741V26.8ZM439.639 30.84L439.374 31.8042L439.38 31.8058L439.639 30.84ZM441.943 31.96L441.331 32.7507L441.337 32.7554L441.343 32.76L441.943 31.96ZM443.543 33.976L442.635 34.3951L442.641 34.4092L442.648 34.4232L443.543 33.976ZM443.543 39.864L442.653 39.4072L442.648 39.4168L443.543 39.864ZM441.943 41.72L441.376 40.896L441.37 40.9002L441.364 40.9045L441.943 41.72ZM439.639 42.712L439.424 41.7352L439.419 41.7364L439.639 42.712ZM419.799 42.52L419.419 43.4452L419.433 43.451L419.448 43.4563L419.799 42.52ZM417.559 41.144L418.216 40.3899L417.559 41.144ZM415.927 39.096L415.042 39.5618L415.047 39.5715L415.927 39.096ZM415.095 36.472V35.472H413.949L414.104 36.6071L415.095 36.472ZM423.319 36.472L424.213 36.0248L423.937 35.472H423.319V36.472ZM424.343 37.592L423.816 38.4423L423.831 38.4515L423.847 38.4602L424.343 37.592ZM425.815 37.944L425.819 36.944L425.797 36.9439L425.775 36.9448L425.815 37.944ZM433.719 37.976L433.715 38.976H433.719V37.976ZM434.295 37.944L434.212 36.9474L434.204 36.9481L434.295 37.944ZM434.999 37.752L434.585 36.8416L434.568 36.8493L434.552 36.8576L434.999 37.752ZM435.607 37.304L436.354 37.9684L436.371 37.949L436.388 37.9287L435.607 37.304ZM435.607 35.64L434.859 36.3044V36.3044L435.607 35.64ZM434.999 35.192L434.585 36.1024L434.999 35.192ZM434.295 35L434.204 35.9959L434.295 35ZM420.023 34.616L420.282 33.6502L420.023 34.616ZM417.687 33.496L417.075 34.2867L417.081 34.2914L417.087 34.296L417.687 33.496ZM416.087 31.512L415.183 31.9401L415.188 31.9497L415.192 31.9592L416.087 31.512ZM416.087 25.656L415.197 25.1992L415.192 25.2088L416.087 25.656ZM417.687 23.768L417.12 22.944L417.114 22.9482L417.108 22.9525L417.687 23.768ZM419.991 22.776L419.776 21.7992L419.771 21.8004L419.991 22.776ZM439.159 23L438.787 23.9285L438.797 23.9325L438.808 23.9363L439.159 23ZM441.431 24.344L440.774 25.0981L441.431 24.344ZM443.063 26.392L443.942 25.9165V25.9165L443.063 26.392ZM443.895 28.984L443.899 29.984L445.04 29.9796L444.886 28.8489L443.895 28.984ZM435.671 29.016L434.769 29.4475L435.042 30.0185L435.675 30.016L435.671 29.016ZM434.615 27.896L434.088 28.7463L434.112 28.7607L434.136 28.7739L434.615 27.896ZM433.143 27.512V28.512H433.163L433.183 28.5112L433.143 27.512ZM425.335 27.544L425.252 26.5474L425.244 26.5481L425.335 27.544ZM424.631 27.736L424.217 26.8256L424.2 26.8333L424.184 26.8416L424.631 27.736ZM424.055 28.184L423.307 27.5196V27.5196L424.055 28.184ZM424.055 29.848L423.274 30.4727L423.29 30.493L423.307 30.5124L424.055 29.848ZM424.663 30.296L424.249 31.2064L424.284 31.2225L424.321 31.2358L424.663 30.296ZM425.367 30.456L425.276 31.4519L425.284 31.4525L425.367 30.456ZM436.951 31.488C437.805 31.488 438.612 31.5947 439.374 31.8042L439.904 29.8758C438.959 29.616 437.974 29.488 436.951 29.488V31.488ZM439.38 31.8058C440.137 32.009 440.783 32.3265 441.331 32.7507L442.555 31.1693C441.78 30.5695 440.89 30.1403 439.898 29.8742L439.38 31.8058ZM441.343 32.76C441.883 33.1652 442.315 33.7022 442.635 34.3951L444.451 33.5569C444.003 32.5858 443.368 31.7788 442.543 31.16L441.343 32.76ZM442.648 34.4232C442.967 35.0603 443.151 35.8897 443.151 36.952H445.151C445.151 35.6676 444.929 34.513 444.437 33.5288L442.648 34.4232ZM443.151 36.952C443.151 37.9909 442.968 38.795 442.653 39.4072L444.432 40.3208C444.929 39.3544 445.151 38.2171 445.151 36.952H443.151ZM442.648 39.4168C442.337 40.0392 441.914 40.526 441.376 40.896L442.509 42.544C443.337 41.9753 443.98 41.2248 444.437 40.3112L442.648 39.4168ZM441.364 40.9045C440.823 41.2885 440.182 41.569 439.424 41.7353L439.853 43.6887C440.845 43.471 441.74 43.0902 442.521 42.5355L441.364 40.9045ZM439.419 41.7364C438.643 41.911 437.821 42 436.951 42V44C437.958 44 438.928 43.897 439.858 43.6876L439.419 41.7364ZM436.951 42H422.487V44H436.951V42ZM422.487 42C421.664 42 420.888 41.8603 420.15 41.5837L419.448 43.4563C420.417 43.8197 421.432 44 422.487 44V42ZM420.178 41.5948C419.445 41.2939 418.792 40.8923 418.216 40.3899L416.902 41.8981C417.648 42.5477 418.489 43.0634 419.419 43.4452L420.178 41.5948ZM418.216 40.3899C417.647 39.8945 417.177 39.3068 416.806 38.6205L415.047 39.5715C415.529 40.4638 416.148 41.2415 416.902 41.8981L418.216 40.3899ZM416.812 38.6303C416.441 37.9263 416.198 37.164 416.086 36.3369L414.104 36.6071C414.247 37.6573 414.559 38.6444 415.042 39.5617L416.812 38.6303ZM415.095 37.472H423.319V35.472H415.095V37.472ZM422.424 36.9192C422.742 37.5552 423.211 38.0677 423.816 38.4423L424.869 36.7417C424.578 36.5616 424.365 36.3275 424.213 36.0248L422.424 36.9192ZM423.847 38.4602C424.463 38.8126 425.141 38.9718 425.855 38.9432L425.775 36.9448C425.422 36.9589 425.118 36.8834 424.839 36.7238L423.847 38.4602ZM425.811 38.944L433.715 38.976L433.723 36.976L425.819 36.944L425.811 38.944ZM433.719 38.976C433.91 38.976 434.136 38.9626 434.385 38.9399L434.204 36.9481C433.985 36.9681 433.826 36.976 433.719 36.976V38.976ZM434.378 38.9405C434.751 38.9095 435.11 38.8142 435.446 38.6464L434.552 36.8576C434.461 36.9031 434.351 36.9359 434.212 36.9475L434.378 38.9405ZM435.413 38.6624C435.774 38.4981 436.09 38.2651 436.354 37.9684L434.859 36.6396C434.782 36.7269 434.693 36.7926 434.585 36.8416L435.413 38.6624ZM436.388 37.9287C436.733 37.4975 436.863 36.9825 436.863 36.472H434.863C434.863 36.5601 434.852 36.6136 434.843 36.6419C434.835 36.6679 434.828 36.6768 434.826 36.6793L436.388 37.9287ZM436.863 36.472C436.863 35.9647 436.744 35.4139 436.354 34.9756L434.859 36.3044C434.838 36.2802 434.837 36.2666 434.843 36.2861C434.85 36.3092 434.863 36.3666 434.863 36.472H436.863ZM436.354 34.9756C436.09 34.6789 435.774 34.4459 435.413 34.2816L434.585 36.1024C434.693 36.1514 434.782 36.2171 434.859 36.3044L436.354 34.9756ZM435.413 34.2816C435.085 34.1329 434.742 34.0365 434.385 34.0041L434.204 35.9959C434.317 36.0062 434.443 36.0378 434.585 36.1024L435.413 34.2816ZM434.385 34.0041C434.136 33.9814 433.91 33.968 433.719 33.968V35.968C433.826 35.968 433.985 35.9759 434.204 35.9959L434.385 34.0041ZM433.719 33.968H422.743V35.968H433.719V33.968ZM422.743 33.968C421.888 33.968 421.069 33.8613 420.282 33.6502L419.764 35.5818C420.726 35.84 421.72 35.968 422.743 35.968V33.968ZM420.282 33.6502C419.523 33.4465 418.861 33.1269 418.287 32.696L417.087 34.296C417.878 34.8891 418.773 35.3162 419.764 35.5818L420.282 33.6502ZM418.299 32.7053C417.766 32.2927 417.325 31.7526 416.981 31.0648L415.192 31.9592C415.659 32.8927 416.285 33.6753 417.075 34.2867L418.299 32.7053ZM416.99 31.0839C416.686 30.4416 416.511 29.605 416.511 28.536H414.511C414.511 29.8137 414.719 30.961 415.183 31.9401L416.99 31.0839ZM416.511 28.536C416.511 27.4886 416.686 26.6933 416.981 26.1032L415.192 25.2088C414.719 26.1547 414.511 27.2793 414.511 28.536H416.511ZM416.976 26.1128C417.315 25.4525 417.747 24.9514 418.266 24.5835L417.108 22.9525C416.304 23.5232 415.669 24.2808 415.197 25.1992L416.976 26.1128ZM418.253 24.592C418.825 24.1988 419.474 23.9172 420.21 23.7516L419.771 21.8004C418.801 22.0188 417.914 22.3985 417.12 22.944L418.253 24.592ZM420.205 23.7527C421.006 23.5769 421.841 23.488 422.711 23.488V21.488C421.703 21.488 420.725 21.5911 419.776 21.7993L420.205 23.7527ZM422.711 23.488H436.471V21.488H422.711V23.488ZM436.471 23.488C437.285 23.488 438.055 23.6354 438.787 23.9285L439.53 22.0715C438.556 21.6819 437.534 21.488 436.471 21.488V23.488ZM438.808 23.9363C439.553 24.216 440.206 24.6037 440.774 25.0981L442.088 23.5899C441.333 22.9323 440.471 22.424 439.51 22.0637L438.808 23.9363ZM440.774 25.0981C441.343 25.5935 441.812 26.1812 442.183 26.8675L443.942 25.9165C443.46 25.0242 442.841 24.2465 442.088 23.5899L440.774 25.0981ZM442.183 26.8675C442.549 27.5452 442.791 28.2929 442.904 29.1191L444.886 28.8489C444.742 27.7977 444.429 26.8175 443.942 25.9165L442.183 26.8675ZM443.891 27.984L435.667 28.016L435.675 30.016L443.899 29.984L443.891 27.984ZM436.573 28.5845C436.249 27.9078 435.751 27.3766 435.094 27.0181L434.136 28.7739C434.417 28.9274 434.623 29.1429 434.769 29.4475L436.573 28.5845ZM435.141 27.0457C434.521 26.6619 433.833 26.4836 433.103 26.5128L433.183 28.5112C433.519 28.4977 433.812 28.5754 434.088 28.7463L435.141 27.0457ZM433.143 26.512H425.943V28.512H433.143V26.512ZM425.943 26.512C425.753 26.512 425.519 26.5252 425.252 26.5475L425.418 28.5405C425.663 28.5201 425.834 28.512 425.943 28.512V26.512ZM425.244 26.5481C424.888 26.5805 424.544 26.6769 424.217 26.8256L425.045 28.6464C425.187 28.5818 425.312 28.5502 425.425 28.5399L425.244 26.5481ZM424.184 26.8416C423.848 27.0094 423.556 27.2399 423.307 27.5196L424.802 28.8484C424.895 28.7441 424.987 28.6759 425.078 28.6304L424.184 26.8416ZM423.307 27.5196C422.918 27.9579 422.799 28.5087 422.799 29.016H424.799C424.799 28.9106 424.811 28.8532 424.819 28.8301C424.825 28.8106 424.824 28.8242 424.802 28.8484L423.307 27.5196ZM422.799 29.016C422.799 29.5265 422.929 30.0415 423.274 30.4727L424.836 29.2233C424.834 29.2208 424.827 29.2119 424.819 29.1859C424.81 29.1576 424.799 29.1041 424.799 29.016H422.799ZM423.307 30.5124C423.571 30.8091 423.888 31.0421 424.249 31.2064L425.077 29.3856C424.969 29.3366 424.88 29.2709 424.802 29.1836L423.307 30.5124ZM424.321 31.2358C424.632 31.3488 424.951 31.4223 425.276 31.4519L425.457 29.4601C425.313 29.447 425.163 29.4138 425.004 29.3562L424.321 31.2358ZM425.284 31.4525C425.546 31.4744 425.772 31.488 425.943 31.488V29.488C425.858 29.488 425.7 29.4803 425.45 29.4595L425.284 31.4525ZM425.943 31.488H436.951V29.488H425.943V31.488Z" fill="black" mask="url(#path-2-outside-1_26_132)"/>
</g>
<path d="M-1 11.2C-1 7.27963 -1 5.31945 -0.237046 3.82207C0.434068 2.50493 1.50493 1.43407 2.82207 0.762954C4.31945 0 6.27963 0 10.2 0H11V62H10.2C6.27963 62 4.31945 62 2.82207 61.237C1.50493 60.5659 0.434068 59.4951 -0.237046 58.1779C-1 56.6805 -1 54.7204 -1 50.8V11.2Z" fill="url(#paint1_linear_26_132)"/>
</g>
<defs>
<filter id="filter0_d_26_132" x="-5" y="0" width="713" height="70" filterUnits="userSpaceOnUse" color-interpolation-filters="sRGB">
<feFlood flood-opacity="0" result="BackgroundImageFix"/>
<feColorMatrix in="SourceAlpha" type="matrix" values="0 0 0 0 0 0 0 0 0 0 0 0 0 0 0 0 0 0 127 0" result="hardAlpha"/>
<feOffset dy="4"/>
<feGaussianBlur stdDeviation="2"/>
<feComposite in2="hardAlpha" operator="out"/>
<feColorMatrix type="matrix" values="0 0 0 0 0 0 0 0 0 0 0 0 0 0 0 0 0 0 0.7 0"/>
<feBlend mode="normal" in2="BackgroundImageFix" result="effect1_dropShadow_26_132"/>
<feBlend mode="normal" in="SourceGraphic" in2="effect1_dropShadow_26_132" result="shape"/>
</filter>
<filter id="filter1_d_26_132" x="30.24" y="22.488" width="417.911" height="28.512" filterUnits="userSpaceOnUse" color-interpolation-filters="sRGB">
<feFlood flood-opacity="0" result="BackgroundImageFix"/>
<feColorMatrix in="SourceAlpha" type="matrix" values="0 0 0 0 0 0 0 0 0 0 0 0 0 0 0 0 0 0 127 0" result="hardAlpha"/>
<feOffset dy="4"/>
<feGaussianBlur stdDeviation="2"/>
<feComposite in2="hardAlpha" operator="out"/>
<feColorMatrix type="matrix" values="0 0 0 0 0 0 0 0 0 0 0 0 0 0 0 0 0 0 0.7 0"/>
<feBlend mode="normal" in2="BackgroundImageFix" result="effect1_dropShadow_26_132"/>
<feBlend mode="normal" in="SourceGraphic" in2="effect1_dropShadow_26_132" result="shape"/>
</filter>
<linearGradient id="paint0_linear_26_132" x1="11" y1="62" x2="604.388" y2="62" gradientUnits="userSpaceOnUse">
<stop/>
<stop offset="0.563452" stop-color="#4E4E4E" stop-opacity="0.0115625"/>
<stop offset="1" stop-color="#929292" stop-opacity="0"/>
</linearGradient>
<linearGradient id="paint1_linear_26_132" x1="5" y1="0" x2="5" y2="62" gradientUnits="userSpaceOnUse">
<stop stop-color="#0D687B"/>
<stop offset="0.515625" stop-color="#32F8BA"/>
<stop offset="1" stop-color="#FEFEFB"/>
</linearGradient>
</defs>
</svg>
